Messapia.glyphspackage
{
glyphname = exclam;
layers = (
{
layerId = m01;
shapes = (
{
closed = 1;
nodes = (
(91,206,l),
(113,206,l),
(140,700,l),
(65,700,l)
);
},
{
ref = period;
}
);
userData = {
assembly = "MPPEM[ ]	/* MeasurePixelPerEm */
PUSHB[ ]	/* 1 value pushed */
42 
LT[ ]	/* LessThan */
IF[ ]	/* If */
NPUSHB[ ]	/* 24 values pushed */
0 1 0 2 0 1 2 128 0 0 0 19 77 0 2 2 3 97 0 3 3 27 3 78 
ELSE[ ]	/* Else */
NPUSHB[ ]	/* 21 values pushed */
0 0 1 0 133 0 1 2 1 133 0 2 2 3 97 0 3 3 27 3 78 
EIF[ ]	/* EndIf */
PUSHB[ ]	/* 7 values pushed */
36 35 18 33 4 7 26 
CALL[ ]	/* CallFunction */";
};
width = 204;
},
{
layerId = "03DC8633-12B9-4C09-834B-15CC0827035A";
shapes = (
{
closed = 1;
nodes = (
(80,234,l),
(198,234,l),
(208,450,l),
(208,734,l),
(70,734,l),
(70,450,l)
);
},
{
ref = period;
}
);
userData = {
assembly = "MPPEM[ ]	/* MeasurePixelPerEm */
PUSHB[ ]	/* 1 value pushed */
17 
LT[ ]	/* LessThan */
IF[ ]	/* If */
NPUSHB[ ]	/* 23 values pushed */
0 0 3 1 3 0 114 4 1 1 1 132 0 3 3 2 95 0 2 2 19 3 78 
ELSE[ ]	/* Else */
NPUSHB[ ]	/* 24 values pushed */
0 0 3 1 3 0 1 128 4 1 1 1 132 0 3 3 2 95 0 2 2 19 3 78 
EIF[ ]	/* EndIf */
NPUSHB[ ]	/* 14 values pushed */
0 0 16 15 13 12 0 11 0 10 36 5 7 23 
CALL[ ]	/* CallFunction */";
};
width = 278;
}
);
note = exclam;
unicode = 33;
}
{
glyphname = numbersign;
layers = (
{
layerId = m01;
shapes = (
{
closed = 1;
nodes = (
(572,211,l),
(572,243,l),
(-5,243,l),
(-5,211,l)
);
},
{
closed = 1;
nodes = (
(646,463,l),
(646,494,l),
(69,494,l),
(69,463,l)
);
},
{
closed = 1;
nodes = (
(93,0,l),
(128,0,l),
(327,700,l),
(292,700,l)
);
},
{
closed = 1;
nodes = (
(313,0,l),
(348,0,l),
(547,700,l),
(512,700,l)
);
}
);
userData = {
assembly = "NPUSHB[ ]	/* 68 values pushed */
17 13 2 4 74 27 3 2 0 73 6 5 2 4 10 7 2 3 2 4 3 103 12 11 8 3 2 0 0 2 87 12 11 8 3 2 2 0 95 9 1 2 0 2 0 79 28 28 28 31 28 31 30 29 25 24 17 17 19 19 17 17 17 19 16 13 7 31 
CALL[ ]	/* CallFunction */";
};
width = 626;
},
{
layerId = "03DC8633-12B9-4C09-834B-15CC0827035A";
shapes = (
{
closed = 1;
nodes = (
(1012,561,l),
(128,561,l),
(128,433,l),
(1012,433,l)
);
},
{
closed = 1;
nodes = (
(918,290,l),
(70,290,l),
(70,162,l),
(918,162,l)
);
},
{
closed = 1;
nodes = (
(510,0,l),
(666,0,l),
(886,715,l),
(730,715,l)
);
},
{
closed = 1;
nodes = (
(186,0,l),
(342,0,l),
(562,715,l),
(406,715,l)
);
}
);
userData = {
assembly = "MPPEM[ ]	/* MeasurePixelPerEm */
PUSHB[ ]	/* 1 value pushed */
42 
LT[ ]	/* LessThan */
IF[ ]	/* If */
NPUSHB[ ]	/* 38 values pushed */
8 6 2 4 9 3 16 3 1 0 4 1 104 10 2 2 0 15 13 2 11 12 0 11 103 7 1 5 5 19 77 14 1 12 12 18 12 78 
ELSE[ ]	/* Else */
NPUSHB[ ]	/* 38 values pushed */
14 1 12 11 12 134 8 6 2 4 9 3 16 3 1 0 4 1 104 10 2 2 0 15 13 2 11 12 0 11 103 7 1 5 5 19 5 78 
EIF[ ]	/* EndIf */
NPUSHB[ ]	/* 38 values pushed */
0 0 31 30 29 28 27 26 25 24 23 22 21 20 19 18 17 16 15 14 13 12 11 10 9 8 7 6 5 4 0 3 0 3 17 17 7 23 
CALL[ ]	/* CallFunction */";
};
width = 1116;
}
);
note = numbersign;
unicode = 35;
}
{
glyphname = dollar;
kernLeft = S;
kernRight = S;
layers = (
{
anchors = (
{
name = bottom;
pos = (386,0);
},
{
name = top;
pos = (386,650);
}
);
layerId = m01;
shapes = (
{
closed = 1;
nodes = (
(323,-93,l),
(323,750,l),
(291,750,l),
(291,-93,l)
);
},
{
closed = 1;
nodes = (
(425,-93,l),
(425,750,l),
(393,750,l),
(393,-93,l)
);
},
{
closed = 1;
nodes = (
(185,51,l),
(262,9,o),
(336,-15,o),
(431,-15,cs),
(552,-15,o),
(667,65,o),
(667,175,cs),
(667,280,o),
(559,339,o),
(463,365,cs),
(309,406,ls),
(229,427,o),
(148,476,o),
(148,560,cs),
(148,616,o),
(196,669,o),
(306,669,cs),
(422,669,o),
(535,613,o),
(659,455,c),
(666,455,l),
(548,682,l),
(508,629,l),
(435,676,o),
(372,700,o),
(277,700,cs),
(149,700,o),
(59,631,o),
(59,542,cs),
(59,435,o),
(158,361,o),
(278,329,cs),
(425,290,ls),
(534,261,o),
(577,215,o),
(577,154,cs),
(577,68,o),
(500,17,o),
(421,17,cs),
(261,17,o),
(129,99,o),
(38,267,c),
(30,268,l),
(125,-1,l)
);
}
);
userData = {
assembly = "NPUSHB[ ]	/* 33 values pushed */
29 24 21 3 4 3 77 67 61 60 55 53 43 42 41 28 27 22 20 16 15 15 5 4 54 44 5 2 4 1 5 3 76 
MPPEM[ ]	/* MeasurePixelPerEm */
PUSHB[ ]	/* 1 value pushed */
42 
LT[ ]	/* LessThan */
IF[ ]	/* If */
NPUSHB[ ]	/* 29 values pushed */
0 0 1 0 134 0 3 0 4 5 3 4 105 0 2 2 19 77 0 5 5 1 97 0 1 1 21 1 78 
ELSE[ ]	/* Else */
NPUSHB[ ]	/* 27 values pushed */
0 0 1 0 134 0 3 0 4 5 3 4 105 0 5 0 1 0 5 1 105 0 2 2 19 2 78 
EIF[ ]	/* EndIf */
NPUSHB[ ]	/* 13 values pushed */
76 74 59 57 33 31 26 25 34 19 6 7 24 
CALL[ ]	/* CallFunction */";
};
width = 717;
},
{
layerId = "03DC8633-12B9-4C09-834B-15CC0827035A";
shapes = (
{
closed = 1;
nodes = (
(56,104,l),
(187,39,o),
(322,2,o),
(497,2,cs),
(737,2,o),
(880,82,o),
(880,216,cs),
(880,353,o),
(769,412,o),
(593,422,cs),
(404,433,ls),
(303,439,o),
(266,459,o),
(266,501,cs),
(266,548,o),
(353,563,o),
(447,563,cs),
(593,563,o),
(691,543,o),
(792,484,c),
(846,615,l),
(735,671,o),
(604,702,o),
(461,702,cs),
(299,702,o),
(83,649,o),
(83,490,cs),
(83,359,o),
(206,297,o),
(368,285,cs),
(548,272,ls),
(651,265,o),
(702,263,o),
(702,214,cs),
(702,169,o),
(637,152,o),
(497,152,cs),
(334,152,o),
(225,181,o),
(109,246,c)
);
},
{
closed = 1;
nodes = (
(550,622,l),
(550,795,l),
(412,795,l),
(412,622,l)
);
},
{
closed = 1;
nodes = (
(550,-103,l),
(550,70,l),
(412,70,l),
(412,-103,l)
);
}
);
userData = {
assembly = "MPPEM[ ]	/* MeasurePixelPerEm */
PUSHB[ ]	/* 1 value pushed */
34 
LT[ ]	/* LessThan */
IF[ ]	/* If */
NPUSHB[ ]	/* 20 values pushed */
14 1 9 1 18 15 2 4 9 33 2 2 11 0 32 1 5 11 4 76 
ELSE[ ]	/* Else */
MPPEM[ ]	/* MeasurePixelPerEm */
PUSHB[ ]	/* 1 value pushed */
40 
LT[ ]	/* LessThan */
IF[ ]	/* If */
NPUSHB[ ]	/* 20 values pushed */
14 1 9 1 18 15 2 8 9 33 2 2 11 0 32 1 5 11 4 76 
ELSE[ ]	/* Else */
NPUSHB[ ]	/* 20 values pushed */
14 1 9 3 18 15 2 8 9 33 2 2 11 10 32 1 5 11 4 76 
EIF[ ]	/* EndIf */
EIF[ ]	/* EndIf */
MPPEM[ ]	/* MeasurePixelPerEm */
PUSHB[ ]	/* 1 value pushed */
30 
LT[ ]	/* LessThan */
IF[ ]	/* If */
NPUSHB[ ]	/* 41 values pushed */
8 1 4 10 1 0 11 4 0 106 0 2 0 6 2 6 99 0 9 9 1 97 3 1 1 1 19 77 12 1 11 11 5 97 7 1 5 5 27 5 78 
ELSE[ ]	/* Else */
MPPEM[ ]	/* MeasurePixelPerEm */
PUSHB[ ]	/* 1 value pushed */
34 
LT[ ]	/* LessThan */
IF[ ]	/* If */
NPUSHB[ ]	/* 39 values pushed */
3 1 1 0 9 4 1 9 105 8 1 4 10 1 0 11 4 0 106 0 2 0 6 2 6 99 12 1 11 11 5 97 7 1 5 5 27 5 78 
ELSE[ ]	/* Else */
MPPEM[ ]	/* MeasurePixelPerEm */
PUSHB[ ]	/* 1 value pushed */
38 
LT[ ]	/* LessThan */
IF[ ]	/* If */
NPUSHB[ ]	/* 44 values pushed */
3 1 1 0 9 8 1 9 105 0 8 4 0 8 89 0 4 10 1 0 11 4 0 106 0 2 0 6 2 6 99 12 1 11 11 5 97 7 1 5 5 27 5 78 
ELSE[ ]	/* Else */
MPPEM[ ]	/* MeasurePixelPerEm */
PUSHB[ ]	/* 1 value pushed */
40 
LT[ ]	/* LessThan */
IF[ ]	/* If */
NPUSHB[ ]	/* 44 values pushed */
3 1 1 0 9 8 1 9 105 0 8 4 0 8 89 0 4 10 1 0 11 4 0 106 0 2 0 6 2 6 99 12 1 11 11 5 97 7 1 5 5 24 5 78 
ELSE[ ]	/* Else */
MPPEM[ ]	/* MeasurePixelPerEm */
PUSHB[ ]	/* 1 value pushed */
42 
LT[ ]	/* LessThan */
IF[ ]	/* If */
NPUSHB[ ]	/* 49 values pushed */
0 1 0 9 8 1 9 105 0 8 0 0 10 8 0 105 0 4 0 10 11 4 10 106 0 2 0 6 2 6 99 0 3 3 19 77 12 1 11 11 5 97 7 1 5 5 24 5 78 
ELSE[ ]	/* Else */
MPPEM[ ]	/* MeasurePixelPerEm */
PUSHB[ ]	/* 1 value pushed */
45 
LT[ ]	/* LessThan */
IF[ ]	/* If */
NPUSHB[ ]	/* 47 values pushed */
0 1 0 9 8 1 9 105 0 8 0 0 10 8 0 105 0 4 0 10 11 4 10 106 12 1 11 7 1 5 6 11 5 105 0 2 0 6 2 6 99 0 3 3 19 3 78 
ELSE[ ]	/* Else */
NPUSHB[ ]	/* 58 values pushed */
0 3 1 9 1 3 9 128 0 2 1 6 2 87 0 1 0 9 8 1 9 105 0 8 0 0 10 8 0 105 0 4 0 10 11 4 10 106 12 1 11 7 1 5 6 11 5 105 0 2 2 6 95 0 6 2 6 79 
EIF[ ]	/* EndIf */
EIF[ ]	/* EndIf */
EIF[ ]	/* EndIf */
EIF[ ]	/* EndIf */
EIF[ ]	/* EndIf */
EIF[ ]	/* EndIf */
NPUSHB[ ]	/* 22 values pushed */
41 41 41 47 41 47 46 45 38 37 21 17 17 21 22 17 17 20 19 13 7 31 
CALL[ ]	/* CallFunction */";
};
width = 953;
},
{
associatedMasterId = m01;
layerId = "62347931-3D74-48AF-A9BC-3C09E6FC29CB";
name = "14 feb 22, 12:08";
shapes = (
{
closed = 1;
nodes = (
(127,27,l),
(50,259,l),
(54,267,l),
(115.333,144.333,o),
(208.667,66,o),
(318,42,cs),
(322.667,40.667,o),
(329.667,39.333,o),
(339,38,c),
(339,19,l),
(334.333,19.667,o),
(327.333,21.333,o),
(318,24,c),
(318,369,l),
(339,362,l),
(339,276,l),
(318,282,ls),
(308,284.667,o),
(296.667,288.333,o),
(284,293,cs),
(152,341,o),
(76,392.667,o),
(76,482,cs),
(76,559.333,o),
(143,617,o),
(243,617,cs),
(264.333,617,o),
(289.333,613,o),
(318,605,cs),
(339,598,l),
(339,577,l),
(318,584,l),
(318,700,l),
(339,700,l),
(339,598,l),
(373.667,584.667,o),
(414.333,564.667,o),
(461,538,c),
(510,602,l),
(604,372,l),
(601,366,l),
(531.667,478,o),
(433.667,546.333,o),
(339,577,c),
(339,362,l),
(375,352,ls),
(472.333,325.333,o),
(528.833,307.167,o),
(573.5,258.5,cs),
(595.833,234.167,o),
(607,202.667,o),
(607,164,cs),
(607,45.333,o),
(528,12,o),
(408,12,cs),
(383.333,12,o),
(360.333,14.333,o),
(339,19,c),
(339,-71,l),
(318,-71,l),
(318,24,l),
(264.667,37.333,o),
(212,61.667,o),
(176,91,c)
);
},
{
closed = 1;
nodes = (
(135,443.516,o),
(191.019,411.909,o),
(315,370,cs),
(318,369,l),
(318,584,l),
(291.333,591.333,o),
(263.667,595,o),
(235,595,cs),
(176.333,595,o),
(135,560.667,o),
(135,502,cs)
);
},
{
closed = 1;
nodes = (
(360.333,34.667,o),
(379.667,33,o),
(397,33,cs),
(490.333,33,o),
(548,70,o),
(548,142,cs),
(548,191.333,o),
(514.833,219.833,o),
(471.5,236.5,cs),
(449.833,244.833,o),
(419,254.333,o),
(379,265,cs),
(339,276,l),
(339,38,l),
(339,38,l)
);
}
);
userData = {
assembly = "NPUSHB[ ]	/* 33 values pushed */
29 24 21 3 4 3 77 67 61 60 55 53 43 42 41 28 27 22 20 16 15 15 5 4 54 44 5 2 4 1 5 3 76 
MPPEM[ ]	/* MeasurePixelPerEm */
PUSHB[ ]	/* 1 value pushed */
42 
LT[ ]	/* LessThan */
IF[ ]	/* If */
NPUSHB[ ]	/* 29 values pushed */
0 0 1 0 134 0 3 0 4 5 3 4 105 0 2 2 19 77 0 5 5 1 97 0 1 1 21 1 78 
ELSE[ ]	/* Else */
NPUSHB[ ]	/* 27 values pushed */
0 0 1 0 134 0 3 0 4 5 3 4 105 0 5 0 1 0 5 1 105 0 2 2 19 2 78 
EIF[ ]	/* EndIf */
NPUSHB[ ]	/* 13 values pushed */
76 74 59 57 33 31 26 25 34 19 6 7 24 
CALL[ ]	/* CallFunction */";
};
width = 657;
}
);
note = dollar;
unicode = 36;
}
{
glyphname = percent;
layers = (
{
layerId = m01;
shapes = (
{
closed = 1;
nodes = (
(205,1,l),
(735,681,l),
(692,681,l),
(162,1,l)
);
},
{
closed = 1;
nodes = (
(320,364,o),
(399,435,o),
(399,534,cs),
(399,628,o),
(323,705,o),
(223,705,cs),
(127,705,o),
(50,632,o),
(50,534,cs),
(50,438,o),
(123,364,o),
(223,364,cs)
);
},
{
closed = 1;
nodes = (
(337,626,o),
(337,534,cs),
(337,445,o),
(313,392,o),
(224,392,cs),
(134,392,o),
(111,449,o),
(111,534,cs),
(111,626,o),
(143,678,o),
(224,678,cs),
(313,678,o)
);
},
{
closed = 1;
nodes = (
(800,-5,o),
(879,66,o),
(879,165,cs),
(879,259,o),
(803,336,o),
(703,336,cs),
(607,336,o),
(530,263,o),
(530,165,cs),
(530,69,o),
(603,-5,o),
(703,-5,cs)
);
},
{
closed = 1;
nodes = (
(817,257,o),
(817,165,cs),
(817,76,o),
(793,23,o),
(704,23,cs),
(614,23,o),
(591,80,o),
(591,165,cs),
(591,257,o),
(623,309,o),
(704,309,cs),
(793,309,o)
);
}
);
userData = {
assembly = "NPUSHB[ ]	/* 18 values pushed */
29 1 3 5 3 1 0 3 28 1 7 8 3 76 25 1 2 74 
MPPEM[ ]	/* MeasurePixelPerEm */
PUSHB[ ]	/* 1 value pushed */
42 
LT[ ]	/* LessThan */
IF[ ]	/* If */
NPUSHB[ ]	/* 45 values pushed */
0 3 0 0 4 3 0 105 0 4 0 1 6 4 1 105 0 6 0 9 8 6 9 105 0 5 5 2 97 0 2 2 19 77 0 8 8 7 97 0 7 7 27 7 78 
ELSE[ ]	/* Else */
NPUSHB[ ]	/* 43 values pushed */
0 2 0 5 3 2 5 105 0 3 0 0 4 3 0 105 0 4 0 1 6 4 1 105 0 6 0 9 8 6 9 105 0 8 8 7 97 0 7 7 27 7 78 
EIF[ ]	/* EndIf */
NPUSHB[ ]	/* 14 values pushed */
76 74 38 38 40 38 42 34 38 38 32 10 7 31 
CALL[ ]	/* CallFunction */";
};
width = 929;
},
{
layerId = "03DC8633-12B9-4C09-834B-15CC0827035A";
shapes = (
{
closed = 1;
nodes = (
(471,1,l),
(1036,700,l),
(873,700,l),
(308,1,l)
);
},
{
pos = (20,17);
ref = zerosuperior;
},
{
pos = (740,-333);
ref = zerosuperior;
}
);
userData = {
assembly = "MPPEM[ ]	/* MeasurePixelPerEm */
PUSHB[ ]	/* 1 value pushed */
14 
LT[ ]	/* LessThan */
IF[ ]	/* If */
NPUSHB[ ]	/* 42 values pushed */
0 2 10 1 1 8 2 1 105 0 3 3 0 97 4 1 0 0 19 77 0 9 9 6 97 0 6 6 20 77 0 8 8 5 97 7 1 5 5 18 5 78 
ELSE[ ]	/* Else */
MPPEM[ ]	/* MeasurePixelPerEm */
PUSHB[ ]	/* 1 value pushed */
20 
LT[ ]	/* LessThan */
IF[ ]	/* If */
NPUSHB[ ]	/* 46 values pushed */
0 2 10 1 1 8 2 1 105 0 4 4 19 77 0 3 3 0 97 0 0 0 19 77 0 9 9 6 97 0 6 6 20 77 0 8 8 5 97 7 1 5 5 18 5 78 
ELSE[ ]	/* Else */
MPPEM[ ]	/* MeasurePixelPerEm */
PUSHB[ ]	/* 1 value pushed */
24 
LT[ ]	/* LessThan */
IF[ ]	/* If */
NPUSHB[ ]	/* 50 values pushed */
0 2 10 1 1 8 2 1 105 0 4 4 19 77 0 3 3 0 97 0 0 0 19 77 0 9 9 6 97 0 6 6 20 77 0 5 5 18 77 0 8 8 7 97 0 7 7 24 7 78 
ELSE[ ]	/* Else */
MPPEM[ ]	/* MeasurePixelPerEm */
PUSHB[ ]	/* 1 value pushed */
42 
LT[ ]	/* LessThan */
IF[ ]	/* If */
NPUSHB[ ]	/* 48 values pushed */
0 6 0 9 2 6 9 105 0 2 10 1 1 8 2 1 105 0 4 4 19 77 0 3 3 0 97 0 0 0 19 77 0 5 5 18 77 0 8 8 7 97 0 7 7 24 7 78 
ELSE[ ]	/* Else */
MPPEM[ ]	/* MeasurePixelPerEm */
PUSHB[ ]	/* 1 value pushed */
49 
LT[ ]	/* LessThan */
IF[ ]	/* If */
NPUSHB[ ]	/* 48 values pushed */
0 5 8 7 8 5 7 128 0 6 0 9 2 6 9 105 0 2 10 1 1 8 2 1 105 0 8 0 7 8 7 101 0 4 4 19 77 0 3 3 0 97 0 0 0 19 3 78 
ELSE[ ]	/* Else */
NPUSHB[ ]	/* 46 values pushed */
0 5 8 7 8 5 7 128 0 0 0 3 6 0 3 105 0 6 0 9 2 6 9 105 0 2 10 1 1 8 2 1 105 0 8 0 7 8 7 101 0 4 4 19 4 78 
EIF[ ]	/* EndIf */
EIF[ ]	/* EndIf */
EIF[ ]	/* EndIf */
EIF[ ]	/* EndIf */
EIF[ ]	/* EndIf */
NPUSHB[ ]	/* 26 values pushed */
0 0 59 57 53 51 46 44 38 36 32 31 29 28 25 23 19 17 0 15 0 14 38 11 7 23 
CALL[ ]	/* CallFunction */";
};
width = 1345;
},
{
associatedMasterId = m01;
layerId = "E6249C28-C9D8-4A57-A1D6-BA0E67BCF7F4";
name = "17 feb 22, 12:18";
shapes = (
{
closed = 1;
nodes = (
(146,-4,l),
(167,-16,l),
(559,683,l),
(539,695,l),
(519,667.667,o),
(494.333,647,o),
(465,633,cs),
(434.333,617,o),
(406.667,609,o),
(382,609,cs),
(341.333,609,o),
(305.333,624.333,o),
(274,655,cs),
(251.333,677,o),
(223.667,688,o),
(191,688,cs),
(147.667,688,o),
(113.667,671.667,o),
(89,639,cs),
(63,606.333,o),
(50,565.667,o),
(50,517,cs),
(50,467.667,o),
(63,427,o),
(89,395,cs),
(113.667,362.333,o),
(147.667,346,o),
(191,346,cs),
(233.667,346,o),
(266.333,362.333,o),
(289,395,cs),
(311.667,427.667,o),
(323,468.333,o),
(323,517,cs),
(323,549,o),
(317.667,577.667,o),
(307,603,c),
(329.667,591.667,o),
(354.667,586,o),
(382,586,cs),
(426,586,o),
(466.333,600.333,o),
(503,629,c)
);
},
{
closed = 1;
nodes = (
(111,548.333,o),
(113,574,o),
(117,594,cs),
(120.333,613.333,o),
(128.333,630,o),
(141,644,cs),
(153,658,o),
(170,665,o),
(192,665,cs),
(226,665,o),
(252.333,651,o),
(271,623,cs),
(289,594.333,o),
(298,559,o),
(298,517,cs),
(298,474.333,o),
(289,439,o),
(271,411,cs),
(252.333,383,o),
(226,369,o),
(192,369,cs),
(160.667,369,o),
(139.333,381.667,o),
(128,407,cs),
(116.667,433,o),
(111,469.667,o),
(111,517,cs)
);
},
{
closed = 1;
nodes = (
(376,113.667,o),
(389,73,o),
(415,41,cs),
(441,8.333,o),
(475.333,-8,o),
(518,-8,cs),
(560,-8,o),
(592.333,8.333,o),
(615,41,cs),
(637.667,73.667,o),
(649,114.333,o),
(649,163,cs),
(649,211.667,o),
(637.667,252.333,o),
(615,285,cs),
(592.333,317.667,o),
(560,334,o),
(518,334,cs),
(475.333,334,o),
(441,317.667,o),
(415,285,cs),
(389,252.333,o),
(376,211.667,o),
(376,163,cs)
);
},
{
closed = 1;
nodes = (
(437,194.333,o),
(439,220,o),
(443,240,cs),
(446.333,259.333,o),
(454.333,276,o),
(467,290,cs),
(479,304,o),
(496,311,o),
(518,311,cs),
(552,311,o),
(578.333,297,o),
(597,269,cs),
(615,240.333,o),
(624,205,o),
(624,163,cs),
(624,120.333,o),
(615,85,o),
(597,57,cs),
(578.333,29,o),
(552,15,o),
(518,15,cs),
(486.667,15,o),
(465.333,27.667,o),
(454,53,cs),
(442.667,79,o),
(437,115.667,o),
(437,163,cs)
);
}
);
userData = {
assembly = "NPUSHB[ ]	/* 18 values pushed */
29 1 3 5 3 1 0 3 28 1 7 8 3 76 25 1 2 74 
MPPEM[ ]	/* MeasurePixelPerEm */
PUSHB[ ]	/* 1 value pushed */
42 
LT[ ]	/* LessThan */
IF[ ]	/* If */
NPUSHB[ ]	/* 45 values pushed */
0 3 0 0 4 3 0 105 0 4 0 1 6 4 1 105 0 6 0 9 8 6 9 105 0 5 5 2 97 0 2 2 19 77 0 8 8 7 97 0 7 7 27 7 78 
ELSE[ ]	/* Else */
NPUSHB[ ]	/* 43 values pushed */
0 2 0 5 3 2 5 105 0 3 0 0 4 3 0 105 0 4 0 1 6 4 1 105 0 6 0 9 8 6 9 105 0 8 8 7 97 0 7 7 27 7 78 
EIF[ ]	/* EndIf */
NPUSHB[ ]	/* 14 values pushed */
76 74 38 38 40 38 42 34 38 38 32 10 7 31 
CALL[ ]	/* CallFunction */";
};
width = 699;
},
{
associatedMasterId = "03DC8633-12B9-4C09-834B-15CC0827035A";
layerId = "8AE57529-3B30-4FC7-A105-53B39FADF5D9";
name = "23 feb 22, 12:52";
shapes = (
{
closed = 1;
nodes = (
(581.961,248,o),
(706,344.58,o),
(706,494,cs),
(706,645.51,o),
(582.082,740,o),
(378,740,cs),
(173.123,740,o),
(50,646.711,o),
(50,494,cs),
(50,391.333,o),
(105.333,316.833,o),
(204,277.5,cs),
(253.333,257.833,o),
(311.333,248,o),
(378,248,cs)
);
},
{
closed = 1;
nodes = (
(179,583.333,o),
(255.333,632,o),
(378,632,cs),
(500.667,632,o),
(576,584.667,o),
(576,494,cs),
(576,404.667,o),
(500.667,356,o),
(378,356,cs),
(255.333,356,o),
(179,404.667,o),
(179,494,cs)
);
},
{
closed = 1;
nodes = (
(618,0,l),
(1182,718,l),
(1179,722,l),
(1030,722,l),
(466,4,l)
);
},
{
closed = 1;
nodes = (
(951,131.333,o),
(1006.333,56.833,o),
(1105,17.5,cs),
(1154.333,-2.167,o),
(1212.333,-12,o),
(1279,-12,cs),
(1482.961,-12,o),
(1607,84.58,o),
(1607,234,cs),
(1607,385.51,o),
(1483.082,480,o),
(1279,480,cs),
(1074.123,480,o),
(951,386.711,o),
(951,234,cs)
);
},
{
closed = 1;
nodes = (
(1080,323.333,o),
(1156.333,372,o),
(1279,372,cs),
(1401.667,372,o),
(1477,324.667,o),
(1477,234,cs),
(1477,144.667,o),
(1401.667,96,o),
(1279,96,cs),
(1156.333,96,o),
(1080,144.667,o),
(1080,234,cs)
);
}
);
userData = {
assembly = "MPPEM[ ]	/* MeasurePixelPerEm */
PUSHB[ ]	/* 1 value pushed */
14 
LT[ ]	/* LessThan */
IF[ ]	/* If */
NPUSHB[ ]	/* 42 values pushed */
0 2 10 1 1 8 2 1 105 0 3 3 0 97 4 1 0 0 19 77 0 9 9 6 97 0 6 6 20 77 0 8 8 5 97 7 1 5 5 18 5 78 
ELSE[ ]	/* Else */
MPPEM[ ]	/* MeasurePixelPerEm */
PUSHB[ ]	/* 1 value pushed */
20 
LT[ ]	/* LessThan */
IF[ ]	/* If */
NPUSHB[ ]	/* 46 values pushed */
0 2 10 1 1 8 2 1 105 0 4 4 19 77 0 3 3 0 97 0 0 0 19 77 0 9 9 6 97 0 6 6 20 77 0 8 8 5 97 7 1 5 5 18 5 78 
ELSE[ ]	/* Else */
MPPEM[ ]	/* MeasurePixelPerEm */
PUSHB[ ]	/* 1 value pushed */
24 
LT[ ]	/* LessThan */
IF[ ]	/* If */
NPUSHB[ ]	/* 50 values pushed */
0 2 10 1 1 8 2 1 105 0 4 4 19 77 0 3 3 0 97 0 0 0 19 77 0 9 9 6 97 0 6 6 20 77 0 5 5 18 77 0 8 8 7 97 0 7 7 24 7 78 
ELSE[ ]	/* Else */
MPPEM[ ]	/* MeasurePixelPerEm */
PUSHB[ ]	/* 1 value pushed */
42 
LT[ ]	/* LessThan */
IF[ ]	/* If */
NPUSHB[ ]	/* 48 values pushed */
0 6 0 9 2 6 9 105 0 2 10 1 1 8 2 1 105 0 4 4 19 77 0 3 3 0 97 0 0 0 19 77 0 5 5 18 77 0 8 8 7 97 0 7 7 24 7 78 
ELSE[ ]	/* Else */
MPPEM[ ]	/* MeasurePixelPerEm */
PUSHB[ ]	/* 1 value pushed */
49 
LT[ ]	/* LessThan */
IF[ ]	/* If */
NPUSHB[ ]	/* 48 values pushed */
0 5 8 7 8 5 7 128 0 6 0 9 2 6 9 105 0 2 10 1 1 8 2 1 105 0 8 0 7 8 7 101 0 4 4 19 77 0 3 3 0 97 0 0 0 19 3 78 
ELSE[ ]	/* Else */
NPUSHB[ ]	/* 46 values pushed */
0 5 8 7 8 5 7 128 0 0 0 3 6 0 3 105 0 6 0 9 2 6 9 105 0 2 10 1 1 8 2 1 105 0 8 0 7 8 7 101 0 4 4 19 4 78 
EIF[ ]	/* EndIf */
EIF[ ]	/* EndIf */
EIF[ ]	/* EndIf */
EIF[ ]	/* EndIf */
EIF[ ]	/* EndIf */
NPUSHB[ ]	/* 26 values pushed */
0 0 59 57 53 51 46 44 38 36 32 31 29 28 25 23 19 17 0 15 0 14 38 11 7 23 
CALL[ ]	/* CallFunction */";
};
width = 1657;
}
);
note = percent;
unicode = 37;
}
{
glyphname = ampersand;
layers = (
{
layerId = m01;
shapes = (
{
closed = 1;
nodes = (
(624,319,o),
(675,359,o),
(725,359,cs),
(758,359,o),
(775,352,o),
(798,339,c),
(783,419,l),
(672,408,o),
(645,372,o),
(544,247,cs),
(466,150,o),
(399,14,o),
(260,14,cs),
(176,14,o),
(114,79.054,o),
(114,189,cs),
(114,294.333,o),
(167,369,o),
(251,398,c),
(297,380,ls),
(382,347,o),
(442,334,o),
(468,245,cs),
(523,58,o),
(594,-7,o),
(679,-7,cs),
(745,-7,o),
(795.333,25,o),
(824,69,c),
(808,82,l),
(782.667,46,o),
(740.333,22,o),
(703,22,cs),
(620,22,o),
(592,103,o),
(570,184,cs),
(526,343,o),
(482,394,o),
(326,443,cs),
(246,469.667,o),
(201,502.667,o),
(201,573,cs),
(201,628,o),
(247,671,o),
(326,670,cs),
(403,670,o),
(474.667,615,o),
(516,527,c),
(544,604,l),
(498.667,656,o),
(417.333,691,o),
(337,691,cs),
(227,691,o),
(136,628.561,o),
(136,541,cs),
(136,478,o),
(177.667,437.333,o),
(232,408,c),
(124,380,o),
(25,309,o),
(25,191,cs),
(25,57,o),
(138,-10,o),
(259,-10,cs),
(405,-10,o),
(479,122,o),
(558,229,cs)
);
}
);
userData = {
assembly = "NPUSHB[ ]	/* 88 values pushed */
22 21 2 2 1 93 11 2 3 2 83 67 61 60 49 41 36 7 4 3 3 76 0 2 0 3 4 2 3 105 0 1 1 0 97 0 0 0 19 77 0 4 4 5 97 8 6 2 5 5 21 77 0 7 7 5 97 8 6 2 5 5 21 5 78 0 0 78 76 0 73 0 72 65 63 58 56 44 42 40 39 26 24 19 17 9 7 22 
CALL[ ]	/* CallFunction */";
};
width = 861;
},
{
layerId = "03DC8633-12B9-4C09-834B-15CC0827035A";
shapes = (
{
closed = 1;
nodes = (
(900,334,l),
(755,334,l),
(755,318,ls),
(755,175,o),
(651,110,o),
(428,110,cs),
(310,110,o),
(195,132,o),
(195,223,cs),
(195,277,o),
(241,308,o),
(304,308,cs),
(1008,308,l),
(1008,432,l),
(297,432,ls),
(244,432,o),
(203,456,o),
(203,502,cs),
(203,564,o),
(273,591,o),
(402,591,cs),
(568,591,o),
(671,556,o),
(744,505,c),
(816,617,l),
(723,669,o),
(596,715,o),
(420,715,cs),
(189,715,o),
(44,639,o),
(44,513,cs),
(44,440,o),
(109,379,o),
(190,368,c),
(190,366,l),
(84,346,o),
(30,280,o),
(30,205,cs),
(30,65,o),
(168,-19,o),
(427,-19,cs),
(748,-19,o),
(900,124,o),
(900,322,cs)
);
}
);
userData = {
assembly = "NPUSHB[ ]	/* 17 values pushed */
30 1 0 1 47 33 31 28 4 7 4 36 1 5 7 3 76 
MPPEM[ ]	/* MeasurePixelPerEm */
PUSHB[ ]	/* 1 value pushed */
20 
LT[ ]	/* LessThan */
IF[ ]	/* If */
NPUSHB[ ]	/* 32 values pushed */
2 1 0 8 1 4 7 0 4 105 0 1 1 3 97 0 3 3 19 77 0 7 7 5 97 6 1 5 5 18 5 78 
ELSE[ ]	/* Else */
MPPEM[ ]	/* MeasurePixelPerEm */
PUSHB[ ]	/* 1 value pushed */
42 
LT[ ]	/* LessThan */
IF[ ]	/* If */
NPUSHB[ ]	/* 36 values pushed */
2 1 0 8 1 4 7 0 4 105 0 1 1 3 97 0 3 3 19 77 0 5 5 18 77 0 7 7 6 97 0 6 6 24 6 78 
ELSE[ ]	/* Else */
MPPEM[ ]	/* MeasurePixelPerEm */
PUSHB[ ]	/* 1 value pushed */
45 
LT[ ]	/* LessThan */
IF[ ]	/* If */
NPUSHB[ ]	/* 42 values pushed */
0 5 7 6 7 5 6 128 0 3 0 1 0 3 1 105 2 1 0 8 1 4 7 0 4 105 0 7 5 6 7 89 0 7 7 6 97 0 6 7 6 81 
ELSE[ ]	/* Else */
NPUSHB[ ]	/* 47 values pushed */
0 5 7 6 7 5 6 128 0 3 0 1 0 3 1 105 0 0 2 4 0 87 0 2 8 1 4 7 2 4 105 0 7 5 6 7 89 0 7 7 6 97 0 6 7 6 81 
EIF[ ]	/* EndIf */
EIF[ ]	/* EndIf */
EIF[ ]	/* EndIf */
NPUSHB[ ]	/* 12 values pushed */
35 36 35 24 36 36 20 36 33 9 7 31 
CALL[ ]	/* CallFunction */";
};
width = 1058;
},
{
associatedMasterId = m01;
layerId = "4CFCD5AC-0D9A-4DC9-ADD7-A3C0D3D8BF79";
name = "17 feb 22, 15:10";
shapes = (
{
closed = 1;
nodes = (
(594,278,ls),
(624,319,o),
(666.333,349.333,o),
(701,356,cs),
(710.333,358,o),
(719.333,359,o),
(728,359,cs),
(758,359,o),
(784.667,352.333,o),
(808,339,c),
(783,409,l),
(720.333,409,o),
(648,369,o),
(601,311,cs),
(547,244,l),
(489,150,o),
(369,5,o),
(260,5,cs),
(176.039,5,o),
(114,79.054,o),
(114,189,cs),
(114,294.333,o),
(167,379.333,o),
(251,398,c),
(297,380,ls),
(382,347,o),
(446,334,o),
(468,245,cs),
(521,58,o),
(594,-7,o),
(675,-7,cs),
(735,-7,o),
(795.333,25,o),
(826,73,c),
(808,82,l),
(782.667,46,o),
(740.333,22,o),
(703,22,cs),
(620,22,o),
(590,103,o),
(570,184,cs),
(531,343,o),
(482,394,o),
(326,443,cs),
(246,469.667,o),
(201,502.667,o),
(201,560,cs),
(201,638,o),
(246.667,677,o),
(338,677,cs),
(403.333,675.667,o),
(474.667,615,o),
(516,527,c),
(544,604,l),
(498.667,656,o),
(417.333,691,o),
(340,691,cs),
(229.003,691,o),
(136,628.561,o),
(136,539,cs),
(136,488.333,o),
(177.667,437.333,o),
(235,408,c),
(124,380,o),
(25,309,o),
(25,191,cs),
(25,67,o),
(138,-10,o),
(259,-10,cs),
(375,-10,o),
(493,130,o),
(558,229,c)
);
}
);
userData = {
assembly = "NPUSHB[ ]	/* 88 values pushed */
22 21 2 2 1 93 11 2 3 2 83 67 61 60 49 41 36 7 4 3 3 76 0 2 0 3 4 2 3 105 0 1 1 0 97 0 0 0 19 77 0 4 4 5 97 8 6 2 5 5 21 77 0 7 7 5 97 8 6 2 5 5 21 5 78 0 0 78 76 0 73 0 72 65 63 58 56 44 42 40 39 26 24 19 17 9 7 22 
CALL[ ]	/* CallFunction */";
};
width = 861;
},
{
associatedMasterId = "03DC8633-12B9-4C09-834B-15CC0827035A";
layerId = "97F6CD2B-EBEC-4028-8A98-907188EC031A";
name = "22 feb 22, 11:57";
shapes = (
{
closed = 1;
nodes = (
(518,562,o),
(536,583.667,o),
(572,595,cs),
(608,606.333,o),
(661,612,o),
(731,612,cs),
(809.667,612,o),
(864.5,606.667,o),
(895.5,596,cs),
(926.5,585.333,o),
(942,567.667,o),
(942,543,cs),
(942,518.333,o),
(928,500.667,o),
(900,490,cs),
(872,479.333,o),
(824,474,o),
(756,474,cs),
(546,474,l),
(527.333,490.667,o),
(518,509.333,o),
(518,530,cs)
);
},
{
closed = 1;
nodes = (
(40,84.333,o),
(209.667,-12,o),
(519,-12,cs),
(667,-12,o),
(799,9,o),
(935,65,c),
(1071,0,l),
(1386,0,l),
(1091,143,l),
(1160.333,182.333,o),
(1233,233.667,o),
(1309,297,c),
(1305,494,l),
(1184.333,375.333,o),
(1056.333,285,o),
(921,223,c),
(811.667,277,o),
(732.333,320.667,o),
(683,354,c),
(831,354,ls),
(1008.333,354,o),
(1115,427,o),
(1115,551,cs),
(1115,616.333,o),
(1084.167,664.5,o),
(1022.5,695.5,cs),
(960.833,726.5,o),
(861.667,742,o),
(725,742,cs),
(457,742,o),
(333,683.333,o),
(333,550,cs),
(333,522.667,o),
(338.333,497,o),
(349,473,c),
(146.333,462.333,o),
(40,383,o),
(40,251,cs)
);
},
{
closed = 1;
nodes = (
(227,320.333,o),
(293.333,354,o),
(408,354,cs),
(441,354,l),
(509,296,o),
(610.333,231.667,o),
(745,161,c),
(669.667,141.667,o),
(592,132,o),
(512,132,cs),
(424,132,o),
(354.5,143.333,o),
(303.5,166,cs),
(252.5,188.667,o),
(227,219.667,o),
(227,259,cs)
);
}
);
userData = {
assembly = "NPUSHB[ ]	/* 17 values pushed */
30 1 0 1 47 33 31 28 4 7 4 36 1 5 7 3 76 
MPPEM[ ]	/* MeasurePixelPerEm */
PUSHB[ ]	/* 1 value pushed */
20 
LT[ ]	/* LessThan */
IF[ ]	/* If */
NPUSHB[ ]	/* 32 values pushed */
2 1 0 8 1 4 7 0 4 105 0 1 1 3 97 0 3 3 19 77 0 7 7 5 97 6 1 5 5 18 5 78 
ELSE[ ]	/* Else */
MPPEM[ ]	/* MeasurePixelPerEm */
PUSHB[ ]	/* 1 value pushed */
42 
LT[ ]	/* LessThan */
IF[ ]	/* If */
NPUSHB[ ]	/* 36 values pushed */
2 1 0 8 1 4 7 0 4 105 0 1 1 3 97 0 3 3 19 77 0 5 5 18 77 0 7 7 6 97 0 6 6 24 6 78 
ELSE[ ]	/* Else */
MPPEM[ ]	/* MeasurePixelPerEm */
PUSHB[ ]	/* 1 value pushed */
45 
LT[ ]	/* LessThan */
IF[ ]	/* If */
NPUSHB[ ]	/* 42 values pushed */
0 5 7 6 7 5 6 128 0 3 0 1 0 3 1 105 2 1 0 8 1 4 7 0 4 105 0 7 5 6 7 89 0 7 7 6 97 0 6 7 6 81 
ELSE[ ]	/* Else */
NPUSHB[ ]	/* 47 values pushed */
0 5 7 6 7 5 6 128 0 3 0 1 0 3 1 105 0 0 2 4 0 87 0 2 8 1 4 7 2 4 105 0 7 5 6 7 89 0 7 7 6 97 0 6 7 6 81 
EIF[ ]	/* EndIf */
EIF[ ]	/* EndIf */
EIF[ ]	/* EndIf */
NPUSHB[ ]	/* 12 values pushed */
35 36 35 24 36 36 20 36 33 9 7 31 
CALL[ ]	/* CallFunction */";
};
width = 1426;
},
{
associatedMasterId = "03DC8633-12B9-4C09-834B-15CC0827035A";
layerId = "45FCD5B0-0292-457C-9F7D-9B710D942F40";
name = "23 feb 22, 14:08";
shapes = (
{
closed = 1;
nodes = (
(808,0,l),
(319,411,ls),
(255,465,o),
(201,498,o),
(201,554,cs),
(201,612,o),
(250,652,o),
(316,652,cs),
(395,652,o),
(443,613,o),
(503,557,c),
(584,647,l),
(516,716,o),
(437,764,o),
(322,764,cs),
(178,764,o),
(63,680,o),
(63,547,cs),
(63,423,o),
(241,318,o),
(269,295,cs),
(613,2,l)
);
},
{
closed = 1;
nodes = (
(128,399,o),
(27,332,o),
(27,209,cs),
(27,66,o),
(140,-15,o),
(271,-15,cs),
(432,-15,o),
(512,101,o),
(563,151,cs),
(626,213,o),
(673,276,o),
(731,357,c),
(635,426,l),
(597,374,o),
(532,290,o),
(464,222,cs),
(403,160,o),
(359,115,o),
(292,115,cs),
(227,115,o),
(177,156,o),
(177,217,cs),
(177,288,o),
(233,316,o),
(304,384,c),
(207,449,l)
);
}
);
userData = {
assembly = "NPUSHB[ ]	/* 17 values pushed */
30 1 0 1 47 33 31 28 4 7 4 36 1 5 7 3 76 
MPPEM[ ]	/* MeasurePixelPerEm */
PUSHB[ ]	/* 1 value pushed */
20 
LT[ ]	/* LessThan */
IF[ ]	/* If */
NPUSHB[ ]	/* 32 values pushed */
2 1 0 8 1 4 7 0 4 105 0 1 1 3 97 0 3 3 19 77 0 7 7 5 97 6 1 5 5 18 5 78 
ELSE[ ]	/* Else */
MPPEM[ ]	/* MeasurePixelPerEm */
PUSHB[ ]	/* 1 value pushed */
42 
LT[ ]	/* LessThan */
IF[ ]	/* If */
NPUSHB[ ]	/* 36 values pushed */
2 1 0 8 1 4 7 0 4 105 0 1 1 3 97 0 3 3 19 77 0 5 5 18 77 0 7 7 6 97 0 6 6 24 6 78 
ELSE[ ]	/* Else */
MPPEM[ ]	/* MeasurePixelPerEm */
PUSHB[ ]	/* 1 value pushed */
45 
LT[ ]	/* LessThan */
IF[ ]	/* If */
NPUSHB[ ]	/* 42 values pushed */
0 5 7 6 7 5 6 128 0 3 0 1 0 3 1 105 2 1 0 8 1 4 7 0 4 105 0 7 5 6 7 89 0 7 7 6 97 0 6 7 6 81 
ELSE[ ]	/* Else */
NPUSHB[ ]	/* 47 values pushed */
0 5 7 6 7 5 6 128 0 3 0 1 0 3 1 105 0 0 2 4 0 87 0 2 8 1 4 7 2 4 105 0 7 5 6 7 89 0 7 7 6 97 0 6 7 6 81 
EIF[ ]	/* EndIf */
EIF[ ]	/* EndIf */
EIF[ ]	/* EndIf */
NPUSHB[ ]	/* 12 values pushed */
35 36 35 24 36 36 20 36 33 9 7 31 
CALL[ ]	/* CallFunction */";
};
width = 888;
},
{
associatedMasterId = "03DC8633-12B9-4C09-834B-15CC0827035A";
layerId = "E2E89F10-38B3-4AFF-9463-DFBD5B1144A9";
name = "3 apr 22, 15:34";
shapes = (
{
closed = 1;
nodes = (
(818,0,l),
(299,411,ls),
(233,463,o),
(190,500,o),
(190,560,cs),
(190,614,o),
(230,652,o),
(302,652,cs),
(375,652,o),
(453,613,o),
(513,557,c),
(594,647,l),
(526,716,o),
(417,764,o),
(302,764,cs),
(158,764,o),
(51,688,o),
(51,556,cs),
(51,421,o),
(220,317,o),
(249,295,cs),
(623,2,l)
);
},
{
closed = 1;
nodes = (
(114,402,o),
(7,322,o),
(7,199,cs),
(7,66,o),
(120,-15,o),
(261,-15,cs),
(412,-15,o),
(522,101,o),
(573,151,cs),
(636,213,o),
(683,276,o),
(741,357,c),
(645,426,l),
(607,374,o),
(542,292,o),
(469,216,cs),
(396,140,o),
(339,108,o),
(272,108,cs),
(206,108,o),
(150,149,o),
(150,216,cs),
(150,287,o),
(198,316,o),
(284,384,c),
(193,452,l)
);
}
);
userData = {
assembly = "NPUSHB[ ]	/* 17 values pushed */
30 1 0 1 47 33 31 28 4 7 4 36 1 5 7 3 76 
MPPEM[ ]	/* MeasurePixelPerEm */
PUSHB[ ]	/* 1 value pushed */
20 
LT[ ]	/* LessThan */
IF[ ]	/* If */
NPUSHB[ ]	/* 32 values pushed */
2 1 0 8 1 4 7 0 4 105 0 1 1 3 97 0 3 3 19 77 0 7 7 5 97 6 1 5 5 18 5 78 
ELSE[ ]	/* Else */
MPPEM[ ]	/* MeasurePixelPerEm */
PUSHB[ ]	/* 1 value pushed */
42 
LT[ ]	/* LessThan */
IF[ ]	/* If */
NPUSHB[ ]	/* 36 values pushed */
2 1 0 8 1 4 7 0 4 105 0 1 1 3 97 0 3 3 19 77 0 5 5 18 77 0 7 7 6 97 0 6 6 24 6 78 
ELSE[ ]	/* Else */
MPPEM[ ]	/* MeasurePixelPerEm */
PUSHB[ ]	/* 1 value pushed */
45 
LT[ ]	/* LessThan */
IF[ ]	/* If */
NPUSHB[ ]	/* 42 values pushed */
0 5 7 6 7 5 6 128 0 3 0 1 0 3 1 105 2 1 0 8 1 4 7 0 4 105 0 7 5 6 7 89 0 7 7 6 97 0 6 7 6 81 
ELSE[ ]	/* Else */
NPUSHB[ ]	/* 47 values pushed */
0 5 7 6 7 5 6 128 0 3 0 1 0 3 1 105 0 0 2 4 0 87 0 2 8 1 4 7 2 4 105 0 7 5 6 7 89 0 7 7 6 97 0 6 7 6 81 
EIF[ ]	/* EndIf */
EIF[ ]	/* EndIf */
EIF[ ]	/* EndIf */
NPUSHB[ ]	/* 12 values pushed */
35 36 35 24 36 36 20 36 33 9 7 31 
CALL[ ]	/* CallFunction */";
};
width = 858;
},
{
associatedMasterId = "03DC8633-12B9-4C09-834B-15CC0827035A";
layerId = "95166D02-562D-4C8C-BBDF-613933A487BE";
name = "3 apr 22, 16:05";
shapes = (
{
closed = 1;
nodes = (
(871,124,o),
(717,0,o),
(476,0,cs),
(460,0,ls),
(159,0,o),
(80,78,o),
(80,206,cs),
(80,296,o),
(134,362,o),
(230,380,c),
(230,383,l),
(159,394,o),
(94,451,o),
(94,524,cs),
(94,637,o),
(173,701,o),
(350,701,cs),
(785,701,l),
(785,581,l),
(342,581,ls),
(279,581,o),
(253,552,o),
(253,514,cs),
(253,473,o),
(281,450,o),
(347,450,cs),
(978,450,l),
(978,320,l),
(461,320,ls),
(316,320,o),
(260,295,o),
(260,231,cs),
(260,165,o),
(296,140,o),
(471,140,cs),
(502,140,o),
(479,140,o),
(513,140,cs),
(644,140,o),
(705,193,o),
(705,315,cs),
(705,349,l),
(871,349,l),
(871,317,ls)
);
}
);
userData = {
assembly = "NPUSHB[ ]	/* 17 values pushed */
30 1 0 1 47 33 31 28 4 7 4 36 1 5 7 3 76 
MPPEM[ ]	/* MeasurePixelPerEm */
PUSHB[ ]	/* 1 value pushed */
20 
LT[ ]	/* LessThan */
IF[ ]	/* If */
NPUSHB[ ]	/* 32 values pushed */
2 1 0 8 1 4 7 0 4 105 0 1 1 3 97 0 3 3 19 77 0 7 7 5 97 6 1 5 5 18 5 78 
ELSE[ ]	/* Else */
MPPEM[ ]	/* MeasurePixelPerEm */
PUSHB[ ]	/* 1 value pushed */
42 
LT[ ]	/* LessThan */
IF[ ]	/* If */
NPUSHB[ ]	/* 36 values pushed */
2 1 0 8 1 4 7 0 4 105 0 1 1 3 97 0 3 3 19 77 0 5 5 18 77 0 7 7 6 97 0 6 6 24 6 78 
ELSE[ ]	/* Else */
MPPEM[ ]	/* MeasurePixelPerEm */
PUSHB[ ]	/* 1 value pushed */
45 
LT[ ]	/* LessThan */
IF[ ]	/* If */
NPUSHB[ ]	/* 42 values pushed */
0 5 7 6 7 5 6 128 0 3 0 1 0 3 1 105 2 1 0 8 1 4 7 0 4 105 0 7 5 6 7 89 0 7 7 6 97 0 6 7 6 81 
ELSE[ ]	/* Else */
NPUSHB[ ]	/* 47 values pushed */
0 5 7 6 7 5 6 128 0 3 0 1 0 3 1 105 0 0 2 4 0 87 0 2 8 1 4 7 2 4 105 0 7 5 6 7 89 0 7 7 6 97 0 6 7 6 81 
EIF[ ]	/* EndIf */
EIF[ ]	/* EndIf */
EIF[ ]	/* EndIf */
NPUSHB[ ]	/* 12 values pushed */
35 36 35 24 36 36 20 36 33 9 7 31 
CALL[ ]	/* CallFunction */";
};
width = 1028;
},
{
associatedMasterId = "03DC8633-12B9-4C09-834B-15CC0827035A";
layerId = "09A17C1C-9389-4897-A7B3-BDC0A34804C5";
name = "17 ott 22, 23:29";
shapes = (
{
closed = 1;
nodes = (
(900,334,l),
(745,334,l),
(745,318,ls),
(745,186,o),
(679,121,o),
(477,121,cs),
(465,121,o),
(456,121,o),
(445,121,cs),
(308,121,o),
(210,133,o),
(210,216,cs),
(210,280,o),
(261,305,o),
(441,305,cs),
(1008,305,l),
(1008,435,l),
(407,435,ls),
(254,435,o),
(203,456,o),
(203,503,cs),
(203,559,o),
(273,581,o),
(402,581,cs),
(568,581,o),
(671,549,o),
(744,498,c),
(816,617,l),
(723,669,o),
(596,715,o),
(440,715,cs),
(189,715,o),
(44,639,o),
(44,513,cs),
(44,440,o),
(109,379,o),
(180,368,c),
(180,366,l),
(84,348,o),
(30,271,o),
(30,201,cs),
(30,93,o),
(158,-19,o),
(427,-19,cs),
(462,-19,ls),
(758,-19,o),
(900,124,o),
(900,322,cs)
);
}
);
userData = {
assembly = "NPUSHB[ ]	/* 17 values pushed */
30 1 0 1 47 33 31 28 4 7 4 36 1 5 7 3 76 
MPPEM[ ]	/* MeasurePixelPerEm */
PUSHB[ ]	/* 1 value pushed */
20 
LT[ ]	/* LessThan */
IF[ ]	/* If */
NPUSHB[ ]	/* 32 values pushed */
2 1 0 8 1 4 7 0 4 105 0 1 1 3 97 0 3 3 19 77 0 7 7 5 97 6 1 5 5 18 5 78 
ELSE[ ]	/* Else */
MPPEM[ ]	/* MeasurePixelPerEm */
PUSHB[ ]	/* 1 value pushed */
42 
LT[ ]	/* LessThan */
IF[ ]	/* If */
NPUSHB[ ]	/* 36 values pushed */
2 1 0 8 1 4 7 0 4 105 0 1 1 3 97 0 3 3 19 77 0 5 5 18 77 0 7 7 6 97 0 6 6 24 6 78 
ELSE[ ]	/* Else */
MPPEM[ ]	/* MeasurePixelPerEm */
PUSHB[ ]	/* 1 value pushed */
45 
LT[ ]	/* LessThan */
IF[ ]	/* If */
NPUSHB[ ]	/* 42 values pushed */
0 5 7 6 7 5 6 128 0 3 0 1 0 3 1 105 2 1 0 8 1 4 7 0 4 105 0 7 5 6 7 89 0 7 7 6 97 0 6 7 6 81 
ELSE[ ]	/* Else */
NPUSHB[ ]	/* 47 values pushed */
0 5 7 6 7 5 6 128 0 3 0 1 0 3 1 105 0 0 2 4 0 87 0 2 8 1 4 7 2 4 105 0 7 5 6 7 89 0 7 7 6 97 0 6 7 6 81 
EIF[ ]	/* EndIf */
EIF[ ]	/* EndIf */
EIF[ ]	/* EndIf */
NPUSHB[ ]	/* 12 values pushed */
35 36 35 24 36 36 20 36 33 9 7 31 
CALL[ ]	/* CallFunction */";
};
width = 1058;
}
);
note = ampersand;
unicode = 38;
}
{
glyphname = quotesingle;
layers = (
{
layerId = m01;
shapes = (
{
closed = 1;
nodes = (
(69,564,l),
(100,750,l),
(20,750,l),
(51,564,l)
);
}
);
userData = {
assembly = "NPUSHB[ ]	/* 22 values pushed */
11 1 1 0 1 76 0 1 1 0 97 0 0 0 19 1 78 23 38 2 7 24 
CALL[ ]	/* CallFunction */";
};
width = 120;
},
{
layerId = "03DC8633-12B9-4C09-834B-15CC0827035A";
shapes = (
{
closed = 1;
nodes = (
(62,484,l),
(189,484,l),
(201,625,l),
(201,750,l),
(50,750,l),
(50,625,l)
);
}
);
userData = {
assembly = "NPUSHB[ ]	/* 16 values pushed */
0 1 1 0 95 0 0 0 19 1 78 18 16 2 7 24 
CALL[ ]	/* CallFunction */";
};
width = 251;
}
);
note = quotesingle;
unicode = 39;
}
{
glyphname = parenleft;
layers = (
{
layerId = m01;
shapes = (
{
closed = 1;
nodes = (
(109,458,o),
(174,621,o),
(281,710,c),
(267,728,l),
(131,633,o),
(22,443,o),
(22,276,cs),
(22,109,o),
(132,-83,o),
(267,-176,c),
(281,-157,l),
(174,-68,o),
(109,94,o),
(109,276,cs)
);
}
);
userData = {
assembly = "PUSHB[ ]	/* 4 values pushed */
10 2 1 50 
CALL[ ]	/* CallFunction */";
};
width = 328;
},
{
layerId = "03DC8633-12B9-4C09-834B-15CC0827035A";
shapes = (
{
closed = 1;
nodes = (
(467,-250,l),
(469,-248,l),
(321,-118,o),
(212,59,o),
(212,259,cs),
(212,457,o),
(317,634,o),
(465,762,c),
(464,764,l),
(283,764,l),
(141,643,o),
(50,443,o),
(50,259,cs),
(50,73,o),
(142,-129,o),
(283,-250,c)
);
}
);
userData = {
assembly = "NPUSHB[ ]	/* 21 values pushed */
0 0 1 1 0 87 0 0 0 1 95 0 1 0 1 79 41 23 2 7 24 
CALL[ ]	/* CallFunction */";
};
width = 413;
}
);
note = parenleft;
unicode = 40;
}
{
glyphname = asterisk;
layers = (
{
layerId = m01;
shapes = (
{
closed = 1;
nodes = (
(208,400,o),
(223,410,o),
(223,432,cs),
(223,439.333,o),
(220,455.667,o),
(214,481,cs),
(208,505,o),
(204,528,o),
(202,550,c),
(207,546,o),
(223,533,o),
(248,511,cs),
(265,496,o),
(293,467,o),
(310,467,cs),
(330,467,o),
(338,486,o),
(338,496,cs),
(338,518.667,o),
(322.333,525.333,o),
(281,536,cs),
(249.667,544.667,o),
(226,553.333,o),
(210,562,c),
(226.667,570,o),
(249,578.333,o),
(277,587,cs),
(290,590,o),
(339,607,o),
(339,629,cs),
(339,644,o),
(327,658,o),
(311,658,cs),
(291,658,o),
(268,633,o),
(254,619,cs),
(230.667,597,o),
(213.333,582,o),
(202,574,c),
(202.667,578,o),
(206.667,600.667,o),
(214,642,cs),
(220,672,o),
(223,689.667,o),
(223,695,cs),
(223,711,o),
(210,724,o),
(194,724,cs),
(178,724,o),
(165,711,o),
(165,695,cs),
(165,689.667,o),
(168,672,o),
(174,642,cs),
(181.333,600.667,o),
(185.333,578,o),
(186,574,c),
(179.333,578.667,o),
(163,593,o),
(120,631,cs),
(110,640,o),
(90,658,o),
(78,658,cs),
(61,658,o),
(49,643,o),
(49,628,cs),
(49,617,o),
(54,608,o),
(64,604,cs),
(178,562,l),
(156.667,550.667,o),
(135.333,542.667,o),
(114,538,cs),
(87,531,o),
(50,526,o),
(50,496,cs),
(50,483,o),
(61,467,o),
(78,467,cs),
(90.667,467,o),
(109.333,480,o),
(134,506,cs),
(148.667,522,o),
(166,536.667,o),
(186,550,c),
(184,528,o),
(180,505,o),
(174,481,cs),
(168,458.333,o),
(165,442,o),
(165,432,cs),
(165,415,o),
(177,400,o),
(194,400,cs)
);
}
);
userData = {
assembly = "NPUSHB[ ]	/* 14 values pushed */
47 1 1 2 82 68 37 20 7 5 0 1 2 76 
MPPEM[ ]	/* MeasurePixelPerEm */
PUSHB[ ]	/* 1 value pushed */
9 
LT[ ]	/* LessThan */
IF[ ]	/* If */
NPUSHB[ ]	/* 24 values pushed */
0 2 1 2 133 6 1 5 0 5 134 4 1 0 0 1 97 3 1 1 1 17 0 78 
ELSE[ ]	/* Else */
MPPEM[ ]	/* MeasurePixelPerEm */
PUSHB[ ]	/* 1 value pushed */
21 
LT[ ]	/* LessThan */
IF[ ]	/* If */
NPUSHB[ ]	/* 24 values pushed */
6 1 5 0 5 134 0 2 2 19 77 4 1 0 0 1 97 3 1 1 1 17 0 78 
ELSE[ ]	/* Else */
MPPEM[ ]	/* MeasurePixelPerEm */
PUSHB[ ]	/* 1 value pushed */
42 
LT[ ]	/* LessThan */
IF[ ]	/* If */
NPUSHB[ ]	/* 24 values pushed */
0 2 1 2 133 6 1 5 0 5 134 4 1 0 0 1 97 3 1 1 1 17 0 78 
ELSE[ ]	/* Else */
NPUSHB[ ]	/* 30 values pushed */
0 2 1 2 133 6 1 5 0 5 134 3 1 1 0 0 1 89 3 1 1 1 0 97 4 1 0 1 0 81 
EIF[ ]	/* EndIf */
EIF[ ]	/* EndIf */
EIF[ ]	/* EndIf */
NPUSHB[ ]	/* 18 values pushed */
0 0 0 90 0 89 78 76 58 56 45 43 31 30 42 7 7 23 
CALL[ ]	/* CallFunction */";
};
width = 388;
},
{
layerId = "03DC8633-12B9-4C09-834B-15CC0827035A";
shapes = (
{
closed = 1;
nodes = (
(685,258,l),
(547,414,l),
(745,442,l),
(715,576,l),
(501,517,l),
(511,734,l),
(372,734,l),
(382,517,l),
(169,576,l),
(139,442,l),
(336,414,l),
(199,258,l),
(299,169,l),
(444,358,l),
(585,169,l)
);
}
);
userData = {
assembly = "NPUSHB[ ]	/* 44 values pushed */
16 5 3 0 4 0 1 1 76 17 4 2 0 73 4 1 2 5 1 1 0 2 1 103 0 0 0 3 95 0 3 3 19 0 78 17 17 17 17 20 17 6 7 28 
CALL[ ]	/* CallFunction */";
};
width = 881;
}
);
note = asterisk;
unicode = 42;
}
{
glyphname = plus;
layers = (
{
layerId = m01;
shapes = (
{
closed = 1;
nodes = (
(222,116,l),
(258,116,l),
(258,531,l),
(222,531,l)
);
},
{
closed = 1;
nodes = (
(35,339,l),
(35,306,l),
(445,306,l),
(445,339,l)
);
}
);
userData = {
assembly = "NPUSHB[ ]	/* 38 values pushed */
0 3 2 3 133 0 0 1 0 134 4 1 2 1 1 2 87 4 1 2 2 1 95 5 1 1 2 1 79 17 17 17 17 17 16 6 7 28 
CALL[ ]	/* CallFunction */";
};
width = 480;
},
{
layerId = "03DC8633-12B9-4C09-834B-15CC0827035A";
shapes = (
{
closed = 1;
nodes = (
(680,271,l),
(680,399,l),
(60,399,l),
(60,271,l)
);
},
{
closed = 1;
nodes = (
(444,620,l),
(296,620,l),
(296,50,l),
(444,50,l)
);
}
);
userData = {
assembly = "NPUSHB[ ]	/* 35 values pushed */
0 3 2 0 3 87 4 1 2 5 1 1 0 2 1 103 0 3 3 0 95 0 0 3 0 79 17 17 17 17 17 16 6 7 28 
CALL[ ]	/* CallFunction */";
};
width = 740;
}
);
note = plus;
unicode = 43;
}
{
glyphname = comma;
layers = (
{
layerId = m01;
shapes = (
{
closed = 1;
nodes = (
(113,-10,o),
(129,-4,o),
(136,7,c),
(136,-39,o),
(116,-92,o),
(45,-128,c),
(52,-141,l),
(124,-114,o),
(163,-50,o),
(163,11,cs),
(163,64,o),
(141,102,o),
(99,102,cs),
(65,102,o),
(40,76,o),
(40,45,cs),
(40,14,o),
(64,-10,o),
(94,-10,cs)
);
}
);
userData = {
assembly = "NPUSHB[ ]	/* 33 values pushed */
18 1 1 0 1 76 16 15 2 1 73 0 0 0 1 97 2 1 1 1 21 1 78 0 0 0 20 0 19 38 3 7 23 
CALL[ ]	/* CallFunction */";
};
width = 193;
},
{
layerId = "03DC8633-12B9-4C09-834B-15CC0827035A";
shapes = (
{
closed = 1;
nodes = (
(167,-95,l),
(186,-54,ls),
(202,-19,o),
(225,28,o),
(225,69,cs),
(225,114,o),
(192,155,o),
(137,155,cs),
(86,155,o),
(44,123,o),
(44,69,cs),
(44,8,o),
(93,-11,o),
(127,-11,c),
(91,-95,l)
);
}
);
userData = {
assembly = "PUSHB[ ]	/* 6 values pushed */
4 1 0 1 1 76 
MPPEM[ ]	/* MeasurePixelPerEm */
PUSHB[ ]	/* 1 value pushed */
42 
LT[ ]	/* LessThan */
IF[ ]	/* If */
NPUSHB[ ]	/* 16 values pushed */
0 2 0 2 134 0 1 1 0 95 0 0 0 18 0 78 
ELSE[ ]	/* Else */
NPUSHB[ ]	/* 21 values pushed */
0 2 0 2 134 0 1 0 0 1 87 0 1 1 0 95 0 0 1 0 79 
EIF[ ]	/* EndIf */
PUSHB[ ]	/* 6 values pushed */
18 17 16 3 7 25 
CALL[ ]	/* CallFunction */";
};
width = 300;
}
);
note = comma;
unicode = 44;
}
{
glyphname = hyphen;
layers = (
{
layerId = m01;
shapes = (
{
closed = 1;
nodes = (
(343,244,l),
(343,299,l),
(40,299,l),
(40,244,l)
);
}
);
userData = {
assembly = "NPUSHB[ ]	/* 21 values pushed */
0 0 1 1 0 87 0 0 0 1 95 0 1 0 1 79 17 16 2 7 24 
CALL[ ]	/* CallFunction */";
};
width = 383;
},
{
layerId = "03DC8633-12B9-4C09-834B-15CC0827035A";
shapes = (
{
closed = 1;
nodes = (
(40,205,l),
(420,206,l),
(420,340,l),
(40,340,l)
);
}
);
userData = {
assembly = "NPUSHB[ ]	/* 28 values pushed */
2 1 1 0 0 1 87 2 1 1 1 0 95 0 0 1 0 79 0 0 0 3 0 3 17 3 7 23 
CALL[ ]	/* CallFunction */";
};
width = 460;
}
);
note = hyphen;
unicode = 45;
}
{
glyphname = period;
layers = (
{
layerId = m01;
shapes = (
{
closed = 1;
nodes = (
(130,-15,o),
(156,11,o),
(156,43,cs),
(156,75,o),
(129,101,o),
(98,101,cs),
(66,101,o),
(40,75,o),
(40,43,cs),
(40,11,o),
(67,-15,o),
(98,-15,cs)
);
}
);
userData = {
assembly = "NPUSHB[ ]	/* 22 values pushed */
0 0 0 1 97 2 1 1 1 27 1 78 0 0 0 11 0 10 36 3 7 23 
CALL[ ]	/* CallFunction */";
};
width = 196;
},
{
layerId = "03DC8633-12B9-4C09-834B-15CC0827035A";
shapes = (
{
closed = 1;
nodes = (
(84.333,-10,o),
(50,18.667,o),
(50,72,cs),
(50,125.333,o),
(84.333,154,o),
(139,154,cs),
(193.667,154,o),
(228,125.333,o),
(228,72,cs),
(228,18.667,o),
(193.667,-10,o),
(139,-10,cs)
);
}
);
userData = {
assembly = "MPPEM[ ]	/* MeasurePixelPerEm */
PUSHB[ ]	/* 1 value pushed */
42 
LT[ ]	/* LessThan */
IF[ ]	/* If */
NPUSHB[ ]	/* 12 values pushed */
0 0 0 1 97 2 1 1 1 24 1 78 
ELSE[ ]	/* Else */
NPUSHB[ ]	/* 17 values pushed */
0 0 1 1 0 89 0 0 0 1 97 2 1 1 0 1 81 
EIF[ ]	/* EndIf */
NPUSHB[ ]	/* 10 values pushed */
0 0 0 11 0 10 36 3 7 23 
CALL[ ]	/* CallFunction */";
};
width = 278;
}
);
note = period;
unicode = 46;
}
{
glyphname = slash;
layers = (
{
layerId = m01;
shapes = (
{
closed = 1;
nodes = (
(77,-168,l),
(374,715,l),
(340,715,l),
(43,-168,l)
);
}
);
userData = {
assembly = "PUSHB[ ]	/* 4 values pushed */
2 0 1 50 
CALL[ ]	/* CallFunction */";
};
width = 426;
},
{
layerId = "03DC8633-12B9-4C09-834B-15CC0827035A";
shapes = (
{
closed = 1;
nodes = (
(21,-182,l),
(174,-182,l),
(490,715,l),
(338,715,l)
);
}
);
userData = {
assembly = "NPUSHB[ ]	/* 14 values pushed */
0 0 1 0 133 0 1 1 118 18 16 2 7 24 
CALL[ ]	/* CallFunction */";
};
width = 520;
}
);
note = slash;
unicode = 47;
}
{
glyphname = zero;
layers = (
{
layerId = m01;
shapes = (
{
closed = 1;
nodes = (
(583,-14,o),
(740,140,o),
(740,335,cs),
(740,550,o),
(588,700,o),
(389,700,cs),
(195,700,o),
(40,550,o),
(40,335,cs),
(40,140,o),
(188,-14,o),
(388,-14,cs)
);
},
{
closed = 1;
nodes = (
(592,582,l),
(171,131,l),
(189,100,l),
(610,552,l)
);
},
{
closed = 1;
nodes = (
(631,544,o),
(631,335,cs),
(631,142,o),
(581,14,o),
(391,14,cs),
(198,14,o),
(149,142,o),
(149,335,cs),
(149,544,o),
(215,672,o),
(390,672,cs),
(581,672,o)
);
}
);
userData = {
assembly = "NPUSHB[ ]	/* 45 values pushed */
35 34 18 17 4 3 2 1 76 0 2 2 0 97 0 0 0 17 77 0 3 3 1 97 4 1 1 1 27 1 78 0 0 29 27 22 20 0 15 0 14 38 5 7 23 
CALL[ ]	/* CallFunction */";
};
width = 780;
},
{
layerId = "03DC8633-12B9-4C09-834B-15CC0827035A";
shapes = (
{
closed = 1;
nodes = (
(783,-15,o),
(955,127,o),
(955,353,cs),
(955,575,o),
(783,715,o),
(508,715,cs),
(239,715,o),
(70,575,o),
(70,353,cs),
(70,127,o),
(239,-15,o),
(508,-15,cs)
);
},
{
closed = 1;
nodes = (
(245,495,o),
(339,575,o),
(508,575,cs),
(683,575,o),
(780,497,o),
(780,355,cs),
(780,206,o),
(683,125,o),
(508,125,cs),
(339,125,o),
(245,205,o),
(245,350,cs)
);
}
);
userData = {
assembly = "MPPEM[ ]	/* MeasurePixelPerEm */
PUSHB[ ]	/* 1 value pushed */
38 
LT[ ]	/* LessThan */
IF[ ]	/* If */
NPUSHB[ ]	/* 22 values pushed */
0 3 3 0 97 0 0 0 23 77 0 2 2 1 97 4 1 1 1 27 1 78 
ELSE[ ]	/* Else */
MPPEM[ ]	/* MeasurePixelPerEm */
PUSHB[ ]	/* 1 value pushed */
42 
LT[ ]	/* LessThan */
IF[ ]	/* If */
NPUSHB[ ]	/* 22 values pushed */
0 3 3 0 97 0 0 0 19 77 0 2 2 1 97 4 1 1 1 24 1 78 
ELSE[ ]	/* Else */
MPPEM[ ]	/* MeasurePixelPerEm */
PUSHB[ ]	/* 1 value pushed */
49 
LT[ ]	/* LessThan */
IF[ ]	/* If */
NPUSHB[ ]	/* 19 values pushed */
0 2 4 1 1 2 1 101 0 3 3 0 97 0 0 0 19 3 78 
ELSE[ ]	/* Else */
NPUSHB[ ]	/* 25 values pushed */
0 0 0 3 2 0 3 105 0 2 1 1 2 89 0 2 2 1 97 4 1 1 2 1 81 
EIF[ ]	/* EndIf */
EIF[ ]	/* EndIf */
EIF[ ]	/* EndIf */
NPUSHB[ ]	/* 14 values pushed */
0 0 25 23 19 17 0 15 0 14 38 5 7 23 
CALL[ ]	/* CallFunction */";
};
width = 1015;
},
{
associatedMasterId = "03DC8633-12B9-4C09-834B-15CC0827035A";
layerId = "7E540652-2904-4AA3-A95E-8826DA52B605";
name = "21 feb 22, 15:04";
shapes = (
{
closed = 1;
nodes = (
(726,-20,o),
(875,44,o),
(955,157,cs),
(995,213,o),
(1015,279,o),
(1015,354,cs),
(1015,579,o),
(825,720,o),
(545,720,cs),
(265,720,o),
(75,579,o),
(75,354,cs),
(75,203,o),
(159,87,o),
(302,26,cs),
(373,-5,o),
(454,-20,o),
(545,-20,cs)
);
},
{
closed = 1;
nodes = (
(255,499,o),
(357,570,o),
(545,570,cs),
(733,570,o),
(835,499,o),
(835,354,cs),
(835,203,o),
(733,130,o),
(545,130,cs),
(357,130,o),
(255,203,o),
(255,354,cs)
);
}
);
userData = {
assembly = "MPPEM[ ]	/* MeasurePixelPerEm */
PUSHB[ ]	/* 1 value pushed */
38 
LT[ ]	/* LessThan */
IF[ ]	/* If */
NPUSHB[ ]	/* 22 values pushed */
0 3 3 0 97 0 0 0 23 77 0 2 2 1 97 4 1 1 1 27 1 78 
ELSE[ ]	/* Else */
MPPEM[ ]	/* MeasurePixelPerEm */
PUSHB[ ]	/* 1 value pushed */
42 
LT[ ]	/* LessThan */
IF[ ]	/* If */
NPUSHB[ ]	/* 22 values pushed */
0 3 3 0 97 0 0 0 19 77 0 2 2 1 97 4 1 1 1 24 1 78 
ELSE[ ]	/* Else */
MPPEM[ ]	/* MeasurePixelPerEm */
PUSHB[ ]	/* 1 value pushed */
49 
LT[ ]	/* LessThan */
IF[ ]	/* If */
NPUSHB[ ]	/* 19 values pushed */
0 2 4 1 1 2 1 101 0 3 3 0 97 0 0 0 19 3 78 
ELSE[ ]	/* Else */
NPUSHB[ ]	/* 25 values pushed */
0 0 0 3 2 0 3 105 0 2 1 1 2 89 0 2 2 1 97 4 1 1 2 1 81 
EIF[ ]	/* EndIf */
EIF[ ]	/* EndIf */
EIF[ ]	/* EndIf */
NPUSHB[ ]	/* 14 values pushed */
0 0 25 23 19 17 0 15 0 14 38 5 7 23 
CALL[ ]	/* CallFunction */";
};
width = 1090;
}
);
note = zero;
unicode = 48;
}
{
glyphname = one;
layers = (
{
layerId = m01;
shapes = (
{
closed = 1;
nodes = (
(494,0,l),
(494,2,l),
(336,71,l),
(331,705,l),
(306,705,l),
(57,542,l),
(62,533,l),
(256,603,l),
(256,71,l),
(98,1,l),
(98,0,l)
);
}
);
userData = {
assembly = "NPUSHB[ ]	/* 33 values pushed */
18 11 1 3 2 0 1 76 0 0 1 2 1 0 2 128 0 1 1 17 77 0 2 2 21 2 78 34 25 37 3 7 25 
CALL[ ]	/* CallFunction */";
};
width = 504;
},
{
layerId = "03DC8633-12B9-4C09-834B-15CC0827035A";
shapes = (
{
closed = 1;
nodes = (
(339,0,l),
(514,0,l),
(514,700,l),
(372,700,l),
(283,621,o),
(178,566,o),
(55,551,c),
(55,400,l),
(178,419,o),
(272,465,o),
(339,522,c)
);
}
);
userData = {
assembly = "PUSHB[ ]	/* 8 values pushed */
10 3 2 3 1 0 1 76 
MPPEM[ ]	/* MeasurePixelPerEm */
PUSHB[ ]	/* 1 value pushed */
38 
LT[ ]	/* LessThan */
IF[ ]	/* If */
NPUSHB[ ]	/* 11 values pushed */
0 0 0 17 77 0 1 1 18 1 78 
ELSE[ ]	/* Else */
MPPEM[ ]	/* MeasurePixelPerEm */
PUSHB[ ]	/* 1 value pushed */
42 
LT[ ]	/* LessThan */
IF[ ]	/* If */
NPUSHB[ ]	/* 11 values pushed */
0 0 0 1 95 0 1 1 18 1 78 
ELSE[ ]	/* Else */
NPUSHB[ ]	/* 16 values pushed */
0 0 1 1 0 87 0 0 0 1 95 0 1 0 1 79 
EIF[ ]	/* EndIf */
EIF[ ]	/* EndIf */
PUSHB[ ]	/* 5 values pushed */
17 22 2 7 24 
CALL[ ]	/* CallFunction */";
};
width = 594;
},
{
associatedMasterId = m01;
layerId = "4E40A873-3B07-40AC-AE5D-5E3D7015ADD9";
name = "15 feb 22, 22:00";
shapes = (
{
closed = 1;
nodes = (
(474,0,l),
(474,2,l),
(336,71,l),
(331,665,l),
(306,665,l),
(233,567,o),
(163,521,o),
(47,482,c),
(57,461,l),
(74,466,o),
(184,503,o),
(214,503,cs),
(257,503,o),
(256,480,o),
(256,415,cs),
(256,71,l),
(98,1,l),
(98,0,l)
);
}
);
userData = {
assembly = "NPUSHB[ ]	/* 33 values pushed */
18 11 1 3 2 0 1 76 0 0 1 2 1 0 2 128 0 1 1 17 77 0 2 2 21 2 78 34 25 37 3 7 25 
CALL[ ]	/* CallFunction */";
};
width = 504;
}
);
note = one;
unicode = 49;
}
{
glyphname = two;
layers = (
{
layerId = m01;
shapes = (
{
closed = 1;
nodes = (
(549,705,o),
(659,637,o),
(659,526,cs),
(659,361,o),
(501,307,o),
(369,261,cs),
(221,209,o),
(165,139,o),
(161,78,c),
(547,80,l),
(695,220,l),
(697,220,l),
(604,-34,l),
(579,0,l),
(107,0,l),
(107,175,o),
(225,247,o),
(373,299,cs),
(513,348,o),
(559,429,o),
(559,526,cs),
(559,610,o),
(493,677,o),
(384,677,cs),
(242,677,o),
(173,560,o),
(171,441,c),
(169,441,l),
(82,515,l),
(137,640,o),
(246,705,o),
(393,705,cs)
);
}
);
userData = {
assembly = "NPUSHB[ ]	/* 46 values pushed */
21 3 2 3 2 0 1 76 20 1 1 73 0 0 0 3 97 4 1 3 3 17 77 0 2 2 1 95 0 1 1 21 1 78 0 0 0 35 0 34 20 25 39 5 7 25 
CALL[ ]	/* CallFunction */";
};
width = 784;
},
{
layerId = "03DC8633-12B9-4C09-834B-15CC0827035A";
shapes = (
{
closed = 1;
nodes = (
(70,0,l),
(828,0,l),
(828,135,l),
(269,135,l),
(269,199,o),
(361,210,o),
(469,242,cs),
(627,288,o),
(820,314,o),
(820,505,cs),
(820,641,o),
(684,719,o),
(453,719,cs),
(332,719,o),
(208,686,o),
(99,640,c),
(104,494,l),
(199,549,o),
(320,587,o),
(447,587,cs),
(555,587,o),
(640,564,o),
(640,502,cs),
(640,441,o),
(573,413,o),
(450,378,cs),
(313,339,o),
(70,300,o),
(70,40,cs)
);
}
);
userData = {
assembly = "NPUSHB[ ]	/* 10 values pushed */
14 1 0 1 13 1 2 0 2 76 
MPPEM[ ]	/* MeasurePixelPerEm */
PUSHB[ ]	/* 1 value pushed */
38 
LT[ ]	/* LessThan */
IF[ ]	/* If */
NPUSHB[ ]	/* 21 values pushed */
0 0 0 1 97 0 1 1 23 77 0 2 2 3 95 0 3 3 18 3 78 
ELSE[ ]	/* Else */
MPPEM[ ]	/* MeasurePixelPerEm */
PUSHB[ ]	/* 1 value pushed */
42 
LT[ ]	/* LessThan */
IF[ ]	/* If */
NPUSHB[ ]	/* 21 values pushed */
0 0 0 1 97 0 1 1 19 77 0 2 2 3 95 0 3 3 18 3 78 
ELSE[ ]	/* Else */
MPPEM[ ]	/* MeasurePixelPerEm */
PUSHB[ ]	/* 1 value pushed */
45 
LT[ ]	/* LessThan */
IF[ ]	/* If */
NPUSHB[ ]	/* 18 values pushed */
0 2 0 3 2 3 99 0 0 0 1 97 0 1 1 19 0 78 
ELSE[ ]	/* Else */
NPUSHB[ ]	/* 24 values pushed */
0 1 0 0 2 1 0 105 0 2 3 3 2 87 0 2 2 3 95 0 3 2 3 79 
EIF[ ]	/* EndIf */
EIF[ ]	/* EndIf */
EIF[ ]	/* EndIf */
PUSHB[ ]	/* 7 values pushed */
17 25 35 42 4 7 26 
CALL[ ]	/* CallFunction */";
};
width = 908;
},
{
associatedMasterId = m01;
layerId = "5771EC56-0319-4513-8ECB-4018ADE2D715";
name = "11 feb 22, 19:36";
shapes = (
{
closed = 1;
nodes = (
(556,670,o),
(655,601.667,o),
(655,491,cs),
(655,339,o),
(497,299,o),
(369,254,cs),
(221,202,o),
(151,139.333,o),
(147,78,c),
(557,80,l),
(711,200,l),
(713,200,l),
(580,-34,l),
(555,0,l),
(100,0,l),
(100,93.333,o),
(130.333,155.667,o),
(209,209,cs),
(248.333,235.667,o),
(303,261.667,o),
(373,287,cs),
(509,336.333,o),
(555,393.667,o),
(555,491,cs),
(555,575,o),
(500.333,642,o),
(391,642,cs),
(304.333,642,o),
(239.833,592,o),
(208.5,520,cs),
(192.833,484,o),
(184.667,446,o),
(184,406,c),
(182,406,l),
(105,480,l),
(159.667,605.333,o),
(260,670,o),
(404,670,cs)
);
}
);
userData = {
assembly = "NPUSHB[ ]	/* 46 values pushed */
21 3 2 3 2 0 1 76 20 1 1 73 0 0 0 3 97 4 1 3 3 17 77 0 2 2 1 95 0 1 1 21 1 78 0 0 0 35 0 34 20 25 39 5 7 25 
CALL[ ]	/* CallFunction */";
};
width = 784;
}
);
note = two;
unicode = 50;
}
{
glyphname = three;
layers = (
{
layerId = m01;
shapes = (
{
closed = 1;
nodes = (
(504,-15,o),
(627,67,o),
(627,189,cs),
(627,328,o),
(521,387,o),
(401,386,c),
(516,413,o),
(576,477,o),
(576,557,cs),
(576,666,o),
(471,715,o),
(343,715,cs),
(184,715,o),
(99,626,o),
(64,548,c),
(147,475,l),
(149,475,l),
(156,601,o),
(229,688,o),
(344,688,cs),
(429,688,o),
(486,642,o),
(486,567,cs),
(486,467,o),
(398,402,o),
(203,363,c),
(210,331,l),
(288,349,o),
(333,356,o),
(372,356,cs),
(466,356,o),
(527,288,o),
(527,192,cs),
(527,75,o),
(450,11,o),
(344,11,cs),
(207,11,o),
(143,118,o),
(138,225,c),
(136,225,l),
(54,146,l),
(98,41,o),
(225,-15,o),
(344,-15,cs)
);
}
);
userData = {
assembly = "NPUSHB[ ]	/* 61 values pushed */
34 32 2 4 2 43 1 1 4 19 4 3 3 0 1 3 76 0 4 0 1 0 4 1 105 0 2 2 3 97 0 3 3 17 77 0 0 0 5 97 6 1 5 5 27 5 78 0 0 0 52 0 51 38 41 41 36 40 7 7 27 
CALL[ ]	/* CallFunction */";
};
width = 682;
},
{
layerId = "03DC8633-12B9-4C09-834B-15CC0827035A";
shapes = (
{
closed = 1;
nodes = (
(652,-15,o),
(814,75,o),
(814,197,cs),
(814,290,o),
(770,345,o),
(656,368,c),
(763,404,o),
(787,455,o),
(787,511,cs),
(787,649,o),
(635,715,o),
(412,715,cs),
(269,715,o),
(139,674,o),
(60,641,c),
(83,512,l),
(174,545,o),
(283,573,o),
(431,573,cs),
(572,573,o),
(627,548,o),
(627,499,cs),
(627,441,o),
(558,425,o),
(410,425,cs),
(265,425,l),
(265,296,l),
(410,296,ls),
(565,296,o),
(634,289,o),
(634,214,cs),
(634,154,o),
(558,124,o),
(416,124,cs),
(261,124,o),
(172,147,o),
(93,186,c),
(60,54,l),
(160,7,o),
(262,-15,o),
(395,-15,cs)
);
}
);
userData = {
assembly = "NPUSHB[ ]	/* 22 values pushed */
23 1 3 4 22 1 2 3 32 1 1 2 2 1 0 1 1 1 5 0 5 76 
MPPEM[ ]	/* MeasurePixelPerEm */
PUSHB[ ]	/* 1 value pushed */
38 
LT[ ]	/* LessThan */
IF[ ]	/* If */
NPUSHB[ ]	/* 30 values pushed */
0 2 0 1 0 2 1 103 0 3 3 4 97 0 4 4 23 77 0 0 0 5 97 6 1 5 5 24 5 78 
ELSE[ ]	/* Else */
MPPEM[ ]	/* MeasurePixelPerEm */
PUSHB[ ]	/* 1 value pushed */
42 
LT[ ]	/* LessThan */
IF[ ]	/* If */
NPUSHB[ ]	/* 30 values pushed */
0 2 0 1 0 2 1 103 0 3 3 4 97 0 4 4 19 77 0 0 0 5 97 6 1 5 5 24 5 78 
ELSE[ ]	/* Else */
MPPEM[ ]	/* MeasurePixelPerEm */
PUSHB[ ]	/* 1 value pushed */
49 
LT[ ]	/* LessThan */
IF[ ]	/* If */
NPUSHB[ ]	/* 27 values pushed */
0 2 0 1 0 2 1 103 0 0 6 1 5 0 5 101 0 3 3 4 97 0 4 4 19 3 78 
ELSE[ ]	/* Else */
NPUSHB[ ]	/* 33 values pushed */
0 4 0 3 2 4 3 105 0 2 0 1 0 2 1 103 0 0 5 5 0 89 0 0 0 5 97 6 1 5 0 5 81 
EIF[ ]	/* EndIf */
EIF[ ]	/* EndIf */
EIF[ ]	/* EndIf */
NPUSHB[ ]	/* 14 values pushed */
0 0 0 39 0 38 36 36 33 36 36 7 7 27 
CALL[ ]	/* CallFunction */";
};
width = 884;
},
{
associatedMasterId = m01;
layerId = "3C0D6F9A-E45F-4EED-9825-B41A6611CFEA";
name = "11 feb 22, 19:37";
shapes = (
{
closed = 1;
nodes = (
(514.445,-14,o),
(638,62.979,o),
(638,191,cs),
(638,326,o),
(522,369,o),
(401,358,c),
(519.667,395.333,o),
(580,447.667,o),
(580,525,cs),
(580,615.667,o),
(491,670,o),
(363,670,cs),
(193.667,670,o),
(98.667,595.333,o),
(64,498,c),
(147,425,l),
(149,425,l),
(126,541,o),
(229,646,o),
(363,646,cs),
(447,646,o),
(490,604.667,o),
(490,538,cs),
(490,444.667,o),
(397.667,380.667,o),
(203,326,c),
(211,300,l),
(302.667,331.333,o),
(332.667,341,o),
(382,341,cs),
(483.333,341,o),
(538,288,o),
(538,188,cs),
(538,74.667,o),
(460,10,o),
(344,10,cs),
(187,10,o),
(129,118,o),
(129,225,c),
(127,225,l),
(45,146,l),
(89,31,o),
(219,-14,o),
(344,-14,cs)
);
}
);
userData = {
assembly = "NPUSHB[ ]	/* 61 values pushed */
34 32 2 4 2 43 1 1 4 19 4 3 3 0 1 3 76 0 4 0 1 0 4 1 105 0 2 2 3 97 0 3 3 17 77 0 0 0 5 97 6 1 5 5 27 5 78 0 0 0 52 0 51 38 41 41 36 40 7 7 27 
CALL[ ]	/* CallFunction */";
};
width = 682;
}
);
note = three;
unicode = 51;
}
{
glyphname = four;
layers = (
{
layerId = m01;
shapes = (
{
closed = 1;
nodes = (
(659,191,l),
(659,223,l),
(58,223,l),
(74,215,l),
(194,263,o),
(364,435,o),
(479,620,c),
(348,715,l),
(355,491,o),
(227,318,o),
(29,221,c),
(29,191,l)
);
},
{
closed = 1;
nodes = (
(414,67,l),
(288,3,l),
(288,0,l),
(625,0,l),
(625,3,l),
(499,67,l),
(499,433,l),
(414,383,l)
);
}
);
userData = {
assembly = "NPUSHB[ ]	/* 43 values pushed */
15 1 1 0 12 7 2 2 1 2 76 25 21 20 3 0 5 0 74 4 1 0 3 1 1 2 0 1 103 0 2 2 21 2 78 25 19 34 19 17 5 7 27 
CALL[ ]	/* CallFunction */";
};
width = 726;
},
{
background = {
shapes = (
{
closed = 1;
nodes = (
(541,0,l),
(541,518,l),
(254,283,l),
(883,283,l),
(883,158,l),
(15,158,l),
(15,274,l),
(552,700,l),
(711,700,l),
(711,0,l)
);
}
);
};
layerId = "03DC8633-12B9-4C09-834B-15CC0827035A";
shapes = (
{
closed = 1;
nodes = (
(711,158,l),
(883,158,l),
(883,283,l),
(711,283,l),
(711,700,l),
(552,700,l),
(15,274,l),
(15,158,l),
(541,158,l),
(541,0,l),
(711,0,l)
);
},
{
closed = 1;
nodes = (
(541,518,l),
(541,283,l),
(254,283,l)
);
}
);
userData = {
assembly = "NPUSHB[ ]	/* 10 values pushed */
2 1 0 1 3 1 3 0 2 76 
MPPEM[ ]	/* MeasurePixelPerEm */
PUSHB[ ]	/* 1 value pushed */
38 
LT[ ]	/* LessThan */
IF[ ]	/* If */
NPUSHB[ ]	/* 21 values pushed */
2 1 0 5 1 3 4 0 3 103 0 1 1 17 77 0 4 4 18 4 78 
ELSE[ ]	/* Else */
MPPEM[ ]	/* MeasurePixelPerEm */
PUSHB[ ]	/* 1 value pushed */
42 
LT[ ]	/* LessThan */
IF[ ]	/* If */
NPUSHB[ ]	/* 21 values pushed */
2 1 0 5 1 3 4 0 3 103 0 1 1 4 95 0 4 4 18 4 78 
ELSE[ ]	/* Else */
NPUSHB[ ]	/* 26 values pushed */
0 1 0 4 1 87 2 1 0 5 1 3 4 0 3 103 0 1 1 4 95 0 4 1 4 79 
EIF[ ]	/* EndIf */
EIF[ ]	/* EndIf */
NPUSHB[ ]	/* 9 values pushed */
17 17 17 17 19 16 6 7 28 
CALL[ ]	/* CallFunction */";
};
width = 913;
},
{
associatedMasterId = m01;
layerId = "024E96B2-E064-43E2-BB11-788937D7BB4A";
name = "17 feb 22, 12:04";
shapes = (
{
closed = 1;
nodes = (
(659,179,l),
(686,331,l),
(684,333,l),
(560,209,l),
(58,209,l),
(68,201,l),
(208,249,o),
(338,376,o),
(489,606,c),
(348,701,l),
(365,477,o),
(247,304,o),
(29,207,c),
(29,179,l)
);
},
{
closed = 1;
nodes = (
(414,67,l),
(288,3,l),
(288,0,l),
(625,0,l),
(625,3,l),
(499,67,l),
(499,429,l),
(414,379,l)
);
}
);
userData = {
assembly = "NPUSHB[ ]	/* 43 values pushed */
15 1 1 0 12 7 2 2 1 2 76 25 21 20 3 0 5 0 74 4 1 0 3 1 1 2 0 1 103 0 2 2 21 2 78 25 19 34 19 17 5 7 27 
CALL[ ]	/* CallFunction */";
};
width = 726;
},
{
associatedMasterId = "03DC8633-12B9-4C09-834B-15CC0827035A";
layerId = "B269CE5D-978B-4227-921F-341BF93DB4AE";
name = "9 apr 22, 12:06";
shapes = (
{
closed = 1;
nodes = (
(541,0,l),
(541,518,l),
(254,283,l),
(883,283,l),
(883,158,l),
(15,158,l),
(15,274,l),
(552,700,l),
(711,700,l),
(711,0,l)
);
}
);
userData = {
assembly = "NPUSHB[ ]	/* 10 values pushed */
2 1 0 1 3 1 3 0 2 76 
MPPEM[ ]	/* MeasurePixelPerEm */
PUSHB[ ]	/* 1 value pushed */
38 
LT[ ]	/* LessThan */
IF[ ]	/* If */
NPUSHB[ ]	/* 21 values pushed */
2 1 0 5 1 3 4 0 3 103 0 1 1 17 77 0 4 4 18 4 78 
ELSE[ ]	/* Else */
MPPEM[ ]	/* MeasurePixelPerEm */
PUSHB[ ]	/* 1 value pushed */
42 
LT[ ]	/* LessThan */
IF[ ]	/* If */
NPUSHB[ ]	/* 21 values pushed */
2 1 0 5 1 3 4 0 3 103 0 1 1 4 95 0 4 4 18 4 78 
ELSE[ ]	/* Else */
NPUSHB[ ]	/* 26 values pushed */
0 1 0 4 1 87 2 1 0 5 1 3 4 0 3 103 0 1 1 4 95 0 4 1 4 79 
EIF[ ]	/* EndIf */
EIF[ ]	/* EndIf */
NPUSHB[ ]	/* 9 values pushed */
17 17 17 17 19 16 6 7 28 
CALL[ ]	/* CallFunction */";
};
width = 913;
}
);
note = four;
unicode = 52;
}
{
glyphname = five;
layers = (
{
layerId = m01;
shapes = (
{
closed = 1;
nodes = (
(525,-14,o),
(646,76,o),
(646,219,cs),
(646,377,o),
(541,449,o),
(385,449,cs),
(260,449,o),
(197,404,o),
(122,338,c),
(136,330,l),
(188,624,l),
(519,624,l),
(537,573,l),
(538,573,l),
(645,739,l),
(533,700,l),
(165,700,l),
(101,321,l),
(135,313,l),
(216,382,o),
(278,412,o),
(367,412,cs),
(463,412,o),
(546,367,o),
(546,217,cs),
(546,93,o),
(470,11,o),
(354,11,cs),
(243,11,o),
(174,76,o),
(147,203,c),
(63,124,l),
(118,49,o),
(222,-14,o),
(355,-14,cs)
);
}
);
userData = {
assembly = "NPUSHB[ ]	/* 17 values pushed */
20 1 4 3 24 16 3 2 4 0 1 2 76 19 1 2 74 
MPPEM[ ]	/* MeasurePixelPerEm */
PUSHB[ ]	/* 1 value pushed */
32 
LT[ ]	/* LessThan */
IF[ ]	/* If */
NPUSHB[ ]	/* 30 values pushed */
0 4 0 1 0 4 1 105 0 3 3 2 95 0 2 2 17 77 0 0 0 5 97 6 1 5 5 27 5 78 
ELSE[ ]	/* Else */
NPUSHB[ ]	/* 28 values pushed */
0 2 0 3 4 2 3 103 0 4 0 1 0 4 1 105 0 0 0 5 97 6 1 5 5 27 5 78 
EIF[ ]	/* EndIf */
NPUSHB[ ]	/* 14 values pushed */
0 0 0 34 0 33 35 20 20 36 37 7 7 27 
CALL[ ]	/* CallFunction */";
};
width = 708;
},
{
layerId = "03DC8633-12B9-4C09-834B-15CC0827035A";
shapes = (
{
closed = 1;
nodes = (
(610,-15,o),
(861,50,o),
(861,246,cs),
(861,384,o),
(703,488,o),
(521,488,cs),
(401,488,o),
(313,467,o),
(232,401,c),
(232,562,l),
(778,562,l),
(778,700,l),
(82,700,l),
(82,262,l),
(221,262,l),
(296,324,o),
(379,349,o),
(483,349,cs),
(599,349,o),
(681,316,o),
(681,247,cs),
(681,140,o),
(540,125,o),
(433,125,cs),
(334,125,o),
(200,157,o),
(84,201,c),
(77,58,l),
(189,17,o),
(305,-15,o),
(452,-15,cs)
);
}
);
userData = {
assembly = "NPUSHB[ ]	/* 14 values pushed */
21 1 1 5 3 1 0 2 2 1 6 0 3 76 
MPPEM[ ]	/* MeasurePixelPerEm */
PUSHB[ ]	/* 1 value pushed */
38 
LT[ ]	/* LessThan */
IF[ ]	/* If */
NPUSHB[ ]	/* 40 values pushed */
0 2 1 0 1 2 0 128 0 4 4 3 95 0 3 3 17 77 0 1 1 5 97 0 5 5 20 77 0 0 0 6 97 7 1 6 6 24 6 78 
ELSE[ ]	/* Else */
MPPEM[ ]	/* MeasurePixelPerEm */
PUSHB[ ]	/* 1 value pushed */
42 
LT[ ]	/* LessThan */
IF[ ]	/* If */
NPUSHB[ ]	/* 36 values pushed */
0 2 1 0 1 2 0 128 0 3 0 4 5 3 4 103 0 5 0 1 2 5 1 105 0 0 0 6 97 7 1 6 6 24 6 78 
ELSE[ ]	/* Else */
NPUSHB[ ]	/* 41 values pushed */
0 2 1 0 1 2 0 128 0 3 0 4 5 3 4 103 0 5 0 1 2 5 1 105 0 0 6 6 0 89 0 0 0 6 97 7 1 6 0 6 81 
EIF[ ]	/* EndIf */
EIF[ ]	/* EndIf */
NPUSHB[ ]	/* 15 values pushed */
0 0 0 32 0 31 35 17 17 18 36 37 8 7 28 
CALL[ ]	/* CallFunction */";
};
width = 916;
},
{
associatedMasterId = m01;
layerId = "42DF9A15-CC1D-493C-8523-059A3BE86795";
name = "11 feb 22, 19:38";
shapes = (
{
closed = 1;
nodes = (
(538.333,-14,o),
(653,73.667,o),
(653,219,cs),
(653,346.862,o),
(543.668,430,o),
(381,430,cs),
(275.667,430,o),
(200.667,395.667,o),
(122,333,c),
(181,593,l),
(522,574,l),
(537,533,l),
(539,523,l),
(658,699,l),
(536,650,l),
(172,660,l),
(88,307,l),
(122,299,l),
(203.333,368.333,o),
(282.333,406,o),
(365,406,cs),
(479.667,406,o),
(553,336.667,o),
(553,214,cs),
(553,92.667,o),
(482.667,16,o),
(344,16,cs),
(220,16,o),
(150.667,73.667,o),
(124,203,c),
(40,124,l),
(94.667,38.667,o),
(209,-14,o),
(345,-14,cs)
);
}
);
userData = {
assembly = "NPUSHB[ ]	/* 17 values pushed */
20 1 4 3 24 16 3 2 4 0 1 2 76 19 1 2 74 
MPPEM[ ]	/* MeasurePixelPerEm */
PUSHB[ ]	/* 1 value pushed */
32 
LT[ ]	/* LessThan */
IF[ ]	/* If */
NPUSHB[ ]	/* 30 values pushed */
0 4 0 1 0 4 1 105 0 3 3 2 95 0 2 2 17 77 0 0 0 5 97 6 1 5 5 27 5 78 
ELSE[ ]	/* Else */
NPUSHB[ ]	/* 28 values pushed */
0 2 0 3 4 2 3 103 0 4 0 1 0 4 1 105 0 0 0 5 97 6 1 5 5 27 5 78 
EIF[ ]	/* EndIf */
NPUSHB[ ]	/* 14 values pushed */
0 0 0 34 0 33 35 20 20 36 37 7 7 27 
CALL[ ]	/* CallFunction */";
};
width = 708;
},
{
associatedMasterId = "03DC8633-12B9-4C09-834B-15CC0827035A";
layerId = "7A00FBBB-E53D-4AD2-A116-6A1604D60BAF";
name = "21 feb 22, 15:02";
shapes = (
{
closed = 1;
nodes = (
(644.667,-18,o),
(779.667,26.5,o),
(849,104.5,cs),
(883.667,143.5,o),
(901,189.667,o),
(901,243,cs),
(901,387.832,o),
(763.213,491,o),
(558,491,cs),
(440.667,491,o),
(333.333,461,o),
(252,405,c),
(252,560,l),
(818,560,l),
(818,700,l),
(102,700,l),
(102,275,l),
(241,277,l),
(315.667,329,o),
(419,355,o),
(523,355,cs),
(659,355,o),
(721,320,o),
(721,244,cs),
(721,204.667,o),
(702.833,174.5,o),
(666.5,153.5,cs),
(630.167,132.5,o),
(569,122,o),
(483,122,cs),
(353.667,122,o),
(208,144,o),
(92,188,c),
(85,39,l),
(197,4.333,o),
(335.333,-18,o),
(462,-18,cs)
);
}
);
userData = {
assembly = "NPUSHB[ ]	/* 14 values pushed */
21 1 1 5 3 1 0 2 2 1 6 0 3 76 
MPPEM[ ]	/* MeasurePixelPerEm */
PUSHB[ ]	/* 1 value pushed */
38 
LT[ ]	/* LessThan */
IF[ ]	/* If */
NPUSHB[ ]	/* 40 values pushed */
0 2 1 0 1 2 0 128 0 4 4 3 95 0 3 3 17 77 0 1 1 5 97 0 5 5 20 77 0 0 0 6 97 7 1 6 6 24 6 78 
ELSE[ ]	/* Else */
MPPEM[ ]	/* MeasurePixelPerEm */
PUSHB[ ]	/* 1 value pushed */
42 
LT[ ]	/* LessThan */
IF[ ]	/* If */
NPUSHB[ ]	/* 36 values pushed */
0 2 1 0 1 2 0 128 0 3 0 4 5 3 4 103 0 5 0 1 2 5 1 105 0 0 0 6 97 7 1 6 6 24 6 78 
ELSE[ ]	/* Else */
NPUSHB[ ]	/* 41 values pushed */
0 2 1 0 1 2 0 128 0 3 0 4 5 3 4 103 0 5 0 1 2 5 1 105 0 0 6 6 0 89 0 0 0 6 97 7 1 6 0 6 81 
EIF[ ]	/* EndIf */
EIF[ ]	/* EndIf */
NPUSHB[ ]	/* 15 values pushed */
0 0 0 32 0 31 35 17 17 18 36 37 8 7 28 
CALL[ ]	/* CallFunction */";
};
width = 976;
}
);
note = five;
unicode = 53;
}
{
glyphname = six;
layers = (
{
layerId = m01;
shapes = (
{
closed = 1;
nodes = (
(155,311,l),
(198,383,o),
(284,433,o),
(362,433,cs),
(478,433,o),
(554,355,o),
(554,224,cs),
(554,108,o),
(488,11,o),
(368,11,cs),
(225,11,o),
(159,151,o),
(159,280,cs),
(159,505,o),
(265,690,o),
(579,681,c),
(579,710,l),
(302,720,o),
(61,611,o),
(61,303,cs),
(61,130,o),
(170,-14,o),
(370,-14,cs),
(542,-14,o),
(651,102,o),
(651,237,cs),
(651,399,o),
(515,466,o),
(383,466,cs),
(295,466,o),
(203,425,o),
(159,360,c)
);
}
);
userData = {
assembly = "NPUSHB[ ]	/* 44 values pushed */
1 1 4 5 1 76 0 0 0 5 4 0 5 105 0 3 3 2 97 0 2 2 17 77 0 4 4 1 97 0 1 1 27 1 78 36 36 17 21 38 35 6 7 28 
CALL[ ]	/* CallFunction */";
};
width = 688;
},
{
layerId = "03DC8633-12B9-4C09-834B-15CC0827035A";
shapes = (
{
closed = 1;
nodes = (
(754,-20,o),
(902,69,o),
(902,238,cs),
(902,394,o),
(764,478,o),
(523,478,cs),
(404,478,o),
(304,458,o),
(244,397,c),
(257,524,o),
(375,580,o),
(531,580,cs),
(640,580,o),
(750,555,o),
(839,511,c),
(862,656,l),
(783,695,o),
(648,715,o),
(543,715,cs),
(215,715,o),
(75,571,o),
(75,326,cs),
(75,99.333,o),
(219.667,-20,o),
(497,-20,cs)
);
},
{
closed = 1;
nodes = (
(277,316,o),
(342,348,o),
(508,348,cs),
(659,348,o),
(727,316,o),
(727,241,cs),
(727,155,o),
(659,120,o),
(508,120,cs),
(342,120,o),
(277,155,o),
(277,241,cs)
);
}
);
userData = {
assembly = "NPUSHB[ ]	/* 14 values pushed */
8 1 1 0 9 1 2 1 16 1 5 2 3 76 
MPPEM[ ]	/* MeasurePixelPerEm */
PUSHB[ ]	/* 1 value pushed */
30 
LT[ ]	/* LessThan */
IF[ ]	/* If */
NPUSHB[ ]	/* 32 values pushed */
0 1 1 0 97 0 0 0 23 77 0 5 5 2 97 0 2 2 20 77 0 4 4 3 97 6 1 3 3 27 3 78 
ELSE[ ]	/* Else */
MPPEM[ ]	/* MeasurePixelPerEm */
PUSHB[ ]	/* 1 value pushed */
38 
LT[ ]	/* LessThan */
IF[ ]	/* If */
NPUSHB[ ]	/* 30 values pushed */
0 2 0 5 4 2 5 105 0 1 1 0 97 0 0 0 23 77 0 4 4 3 97 6 1 3 3 27 3 78 
ELSE[ ]	/* Else */
MPPEM[ ]	/* MeasurePixelPerEm */
PUSHB[ ]	/* 1 value pushed */
42 
LT[ ]	/* LessThan */
IF[ ]	/* If */
NPUSHB[ ]	/* 30 values pushed */
0 2 0 5 4 2 5 105 0 1 1 0 97 0 0 0 19 77 0 4 4 3 97 6 1 3 3 24 3 78 
ELSE[ ]	/* Else */
MPPEM[ ]	/* MeasurePixelPerEm */
PUSHB[ ]	/* 1 value pushed */
49 
LT[ ]	/* LessThan */
IF[ ]	/* If */
NPUSHB[ ]	/* 27 values pushed */
0 2 0 5 4 2 5 105 0 4 6 1 3 4 3 101 0 1 1 0 97 0 0 0 19 1 78 
ELSE[ ]	/* Else */
NPUSHB[ ]	/* 33 values pushed */
0 0 0 1 2 0 1 105 0 2 0 5 4 2 5 105 0 4 3 3 4 89 0 4 4 3 97 6 1 3 4 3 81 
EIF[ ]	/* EndIf */
EIF[ ]	/* EndIf */
EIF[ ]	/* EndIf */
EIF[ ]	/* EndIf */
NPUSHB[ ]	/* 16 values pushed */
0 0 37 35 29 27 0 24 0 23 36 37 36 7 7 25 
CALL[ ]	/* CallFunction */";
};
width = 969;
},
{
associatedMasterId = m01;
layerId = "22BCEF1C-0A63-4E36-830F-2B9DD69A774F";
name = "11 feb 22, 19:39";
shapes = (
{
closed = 1;
nodes = (
(141,121,o),
(141,240,cs),
(141,455,o),
(278,659,o),
(588,647,c),
(589,670,l),
(316,680,o),
(45,551,o),
(45,273,cs),
(45,99.667,o),
(148,-14,o),
(344,-14,cs),
(526.086,-14,o),
(643,77.773,o),
(643,215,cs),
(643,368,o),
(504,443,o),
(379,443,cs),
(283,443,o),
(196,407,o),
(152,348,c),
(145,305,l),
(188,377,o),
(266,419,o),
(352,419,cs),
(482.667,419,o),
(542,354.333,o),
(542,213,cs),
(542,77,o),
(471.333,11,o),
(342,11,cs),
(193,11,o)
);
}
);
userData = {
assembly = "NPUSHB[ ]	/* 44 values pushed */
1 1 4 5 1 76 0 0 0 5 4 0 5 105 0 3 3 2 97 0 2 2 17 77 0 4 4 1 97 0 1 1 27 1 78 36 36 17 21 38 35 6 7 28 
CALL[ ]	/* CallFunction */";
};
width = 688;
},
{
associatedMasterId = "03DC8633-12B9-4C09-834B-15CC0827035A";
layerId = "D0238EF7-701D-43DA-A6F4-91AACA175BFF";
name = "21 feb 22, 15:02";
shapes = (
{
closed = 1;
nodes = (
(783.667,-20,o),
(934,68.667,o),
(934,238,cs),
(934,399.333,o),
(793.667,483,o),
(523,483,cs),
(403.667,483,o),
(304,462.667,o),
(224,422,c),
(242.667,496.667,o),
(283,543,o),
(371,567,cs),
(415,579,o),
(473.333,585,o),
(546,585,cs),
(628.667,585,o),
(749.667,560,o),
(839,516,c),
(862,661,l),
(783.333,699.667,o),
(657.667,720,o),
(543,720,cs),
(215,720,o),
(75,591.333,o),
(75,326,cs),
(75,99.333,o),
(219.667,-20,o),
(497,-20,cs)
);
},
{
closed = 1;
nodes = (
(240,298.333,o),
(271.833,329.667,o),
(348.5,343,cs),
(386.833,349.667,o),
(440,353,o),
(508,353,cs),
(684.494,353,o),
(759,335.205,o),
(759,241,cs),
(759,177,o),
(731.833,145.667,o),
(660.5,131,cs),
(624.833,123.667,o),
(574,120,o),
(508,120,cs),
(324.008,120,o),
(240,141.374,o),
(240,241,cs)
);
}
);
userData = {
assembly = "NPUSHB[ ]	/* 14 values pushed */
8 1 1 0 9 1 2 1 16 1 5 2 3 76 
MPPEM[ ]	/* MeasurePixelPerEm */
PUSHB[ ]	/* 1 value pushed */
30 
LT[ ]	/* LessThan */
IF[ ]	/* If */
NPUSHB[ ]	/* 32 values pushed */
0 1 1 0 97 0 0 0 23 77 0 5 5 2 97 0 2 2 20 77 0 4 4 3 97 6 1 3 3 27 3 78 
ELSE[ ]	/* Else */
MPPEM[ ]	/* MeasurePixelPerEm */
PUSHB[ ]	/* 1 value pushed */
38 
LT[ ]	/* LessThan */
IF[ ]	/* If */
NPUSHB[ ]	/* 30 values pushed */
0 2 0 5 4 2 5 105 0 1 1 0 97 0 0 0 23 77 0 4 4 3 97 6 1 3 3 27 3 78 
ELSE[ ]	/* Else */
MPPEM[ ]	/* MeasurePixelPerEm */
PUSHB[ ]	/* 1 value pushed */
42 
LT[ ]	/* LessThan */
IF[ ]	/* If */
NPUSHB[ ]	/* 30 values pushed */
0 2 0 5 4 2 5 105 0 1 1 0 97 0 0 0 19 77 0 4 4 3 97 6 1 3 3 24 3 78 
ELSE[ ]	/* Else */
MPPEM[ ]	/* MeasurePixelPerEm */
PUSHB[ ]	/* 1 value pushed */
49 
LT[ ]	/* LessThan */
IF[ ]	/* If */
NPUSHB[ ]	/* 27 values pushed */
0 2 0 5 4 2 5 105 0 4 6 1 3 4 3 101 0 1 1 0 97 0 0 0 19 1 78 
ELSE[ ]	/* Else */
NPUSHB[ ]	/* 33 values pushed */
0 0 0 1 2 0 1 105 0 2 0 5 4 2 5 105 0 4 3 3 4 89 0 4 4 3 97 6 1 3 4 3 81 
EIF[ ]	/* EndIf */
EIF[ ]	/* EndIf */
EIF[ ]	/* EndIf */
EIF[ ]	/* EndIf */
NPUSHB[ ]	/* 16 values pushed */
0 0 37 35 29 27 0 24 0 23 36 37 36 7 7 25 
CALL[ ]	/* CallFunction */";
};
width = 1009;
}
);
note = six;
unicode = 54;
}
{
glyphname = seven;
layers = (
{
layerId = m01;
shapes = (
{
closed = 1;
nodes = (
(449,0,l),
(449,4,l),
(341,61,l),
(341,231,o),
(433,491,o),
(680,697,c),
(680,701,l),
(154,701,l),
(103,721,l),
(100,721,l),
(33,450,l),
(35,450,l),
(151,622,l),
(560,622,l),
(404,497,o),
(226,240,o),
(231,0,c)
);
}
);
userData = {
assembly = "MPPEM[ ]	/* MeasurePixelPerEm */
PUSHB[ ]	/* 1 value pushed */
34 
LT[ ]	/* LessThan */
IF[ ]	/* If */
NPUSHB[ ]	/* 11 values pushed */
15 5 2 2 0 1 76 7 1 1 74 
ELSE[ ]	/* Else */
NPUSHB[ ]	/* 13 values pushed */
15 5 4 3 4 2 1 1 76 7 1 1 74 
EIF[ ]	/* EndIf */
MPPEM[ ]	/* MeasurePixelPerEm */
PUSHB[ ]	/* 1 value pushed */
27 
LT[ ]	/* LessThan */
IF[ ]	/* If */
NPUSHB[ ]	/* 16 values pushed */
0 0 0 1 95 0 1 1 17 77 0 2 2 21 2 78 
ELSE[ ]	/* Else */
MPPEM[ ]	/* MeasurePixelPerEm */
PUSHB[ ]	/* 1 value pushed */
34 
LT[ ]	/* LessThan */
IF[ ]	/* If */
NPUSHB[ ]	/* 14 values pushed */
0 1 0 0 2 1 0 103 0 2 2 21 2 78 
ELSE[ ]	/* Else */
NPUSHB[ ]	/* 11 values pushed */
0 1 2 1 133 0 2 2 21 2 78 
EIF[ ]	/* EndIf */
EIF[ ]	/* EndIf */
PUSHB[ ]	/* 6 values pushed */
38 21 19 3 7 25 
CALL[ ]	/* CallFunction */";
};
width = 715;
},
{
layerId = "03DC8633-12B9-4C09-834B-15CC0827035A";
shapes = (
{
closed = 1;
nodes = (
(447,0,l),
(460,284,o),
(554,414,o),
(764,569,c),
(764,700,l),
(44,697,l),
(44,558,l),
(530,558,l),
(311,386,o),
(288,199,o),
(273,0,c)
);
}
);
userData = {
assembly = "PUSHB[ ]	/* 6 values pushed */
7 1 0 1 1 76 
MPPEM[ ]	/* MeasurePixelPerEm */
PUSHB[ ]	/* 1 value pushed */
38 
LT[ ]	/* LessThan */
IF[ ]	/* If */
NPUSHB[ ]	/* 16 values pushed */
0 0 0 1 95 0 1 1 17 77 0 2 2 18 2 78 
ELSE[ ]	/* Else */
MPPEM[ ]	/* MeasurePixelPerEm */
PUSHB[ ]	/* 1 value pushed */
42 
LT[ ]	/* LessThan */
IF[ ]	/* If */
NPUSHB[ ]	/* 14 values pushed */
0 1 0 0 2 1 0 103 0 2 2 18 2 78 
ELSE[ ]	/* Else */
NPUSHB[ ]	/* 21 values pushed */
0 2 0 2 134 0 1 0 0 1 87 0 1 1 0 95 0 0 1 0 79 
EIF[ ]	/* EndIf */
EIF[ ]	/* EndIf */
PUSHB[ ]	/* 6 values pushed */
21 17 19 3 7 25 
CALL[ ]	/* CallFunction */";
};
width = 809;
},
{
associatedMasterId = m01;
layerId = "1B4E60E3-E24E-4190-AEF7-0BB2F1FBC5C4";
name = "11 feb 22, 19:40";
shapes = (
{
closed = 1;
nodes = (
(423,0,l),
(423,4,l),
(305,74,l),
(305,187,o),
(353,286,o),
(452,406,cs),
(501,466,o),
(574,546,o),
(670,647,c),
(670,651,l),
(172,651,l),
(154,691,l),
(152,691,l),
(1,480,l),
(3,480,l),
(152,565,l),
(583,595,l),
(404,437,o),
(189,232,o),
(194,0,c)
);
}
);
userData = {
assembly = "MPPEM[ ]	/* MeasurePixelPerEm */
PUSHB[ ]	/* 1 value pushed */
34 
LT[ ]	/* LessThan */
IF[ ]	/* If */
NPUSHB[ ]	/* 11 values pushed */
15 5 2 2 0 1 76 7 1 1 74 
ELSE[ ]	/* Else */
NPUSHB[ ]	/* 13 values pushed */
15 5 4 3 4 2 1 1 76 7 1 1 74 
EIF[ ]	/* EndIf */
MPPEM[ ]	/* MeasurePixelPerEm */
PUSHB[ ]	/* 1 value pushed */
27 
LT[ ]	/* LessThan */
IF[ ]	/* If */
NPUSHB[ ]	/* 16 values pushed */
0 0 0 1 95 0 1 1 17 77 0 2 2 21 2 78 
ELSE[ ]	/* Else */
MPPEM[ ]	/* MeasurePixelPerEm */
PUSHB[ ]	/* 1 value pushed */
34 
LT[ ]	/* LessThan */
IF[ ]	/* If */
NPUSHB[ ]	/* 14 values pushed */
0 1 0 0 2 1 0 103 0 2 2 21 2 78 
ELSE[ ]	/* Else */
NPUSHB[ ]	/* 11 values pushed */
0 1 2 1 133 0 2 2 21 2 78 
EIF[ ]	/* EndIf */
EIF[ ]	/* EndIf */
PUSHB[ ]	/* 6 values pushed */
38 21 19 3 7 25 
CALL[ ]	/* CallFunction */";
};
width = 715;
},
{
associatedMasterId = "03DC8633-12B9-4C09-834B-15CC0827035A";
layerId = "33065D98-01AF-41A3-BC46-B4D7381B5995";
name = "21 feb 22, 15:02";
shapes = (
{
closed = 1;
nodes = (
(443,0,l),
(469.667,168,o),
(519.667,277,o),
(625,385,cs),
(677.667,439,o),
(750.667,500.333,o),
(844,569,c),
(844,700,l),
(75,697,l),
(75,557,l),
(605,557,l),
(461,438.333,o),
(382,346.667,o),
(330,224,cs),
(304,162.667,o),
(283.333,88,o),
(268,0,c)
);
}
);
userData = {
assembly = "PUSHB[ ]	/* 6 values pushed */
7 1 0 1 1 76 
MPPEM[ ]	/* MeasurePixelPerEm */
PUSHB[ ]	/* 1 value pushed */
38 
LT[ ]	/* LessThan */
IF[ ]	/* If */
NPUSHB[ ]	/* 16 values pushed */
0 0 0 1 95 0 1 1 17 77 0 2 2 18 2 78 
ELSE[ ]	/* Else */
MPPEM[ ]	/* MeasurePixelPerEm */
PUSHB[ ]	/* 1 value pushed */
42 
LT[ ]	/* LessThan */
IF[ ]	/* If */
NPUSHB[ ]	/* 14 values pushed */
0 1 0 0 2 1 0 103 0 2 2 18 2 78 
ELSE[ ]	/* Else */
NPUSHB[ ]	/* 21 values pushed */
0 2 0 2 134 0 1 0 0 1 87 0 1 1 0 95 0 0 1 0 79 
EIF[ ]	/* EndIf */
EIF[ ]	/* EndIf */
PUSHB[ ]	/* 6 values pushed */
21 17 19 3 7 25 
CALL[ ]	/* CallFunction */";
};
width = 919;
}
);
note = seven;
unicode = 55;
}
{
glyphname = eight;
layers = (
{
layerId = m01;
shapes = (
{
closed = 1;
nodes = (
(469,373,l),
(554,386,o),
(619,451,o),
(619,537,cs),
(619,637,o),
(504,715,o),
(353,715,cs),
(205,715,o),
(88,635,o),
(88,528,cs),
(88,419,o),
(186,374,o),
(282,350,cs),
(443,309,ls),
(536,285,o),
(557,238,o),
(557,178,cs),
(557,82,o),
(477,13,o),
(359,13,cs),
(234,13,o),
(164,106,o),
(164,208,cs),
(164,272,o),
(194,321,o),
(274,364,c),
(245,373,l),
(124,342,o),
(69,260,o),
(69,185,cs),
(69,38,o),
(222,-15,o),
(359,-15,cs),
(493,-15,o),
(653,55,o),
(653,200,cs),
(653,287,o),
(601,352,o),
(502,378,cs),
(317,426,ls),
(225,450,o),
(172,488,o),
(172,557,cs),
(172,632,o),
(238,689,o),
(353,689,cs),
(466,689,o),
(533,631,o),
(533,537,cs),
(533,456,o),
(502,403,o),
(441,378,c)
);
}
);
userData = {
assembly = "NPUSHB[ ]	/* 38 values pushed */
48 41 16 2 4 2 3 1 76 0 3 3 0 97 0 0 0 17 77 0 2 2 1 97 0 1 1 27 1 78 55 53 38 45 40 4 7 25 
CALL[ ]	/* CallFunction */";
};
width = 718;
},
{
layerId = "03DC8633-12B9-4C09-834B-15CC0827035A";
shapes = (
{
closed = 1;
nodes = (
(755,-15,o),
(906,58,o),
(906,199,cs),
(906,282,o),
(852,342,o),
(748,375,c),
(831,402,o),
(875,456,o),
(875,529,cs),
(875,688,o),
(631,715,o),
(493,715,cs),
(345,715,o),
(101,688,o),
(101,529,cs),
(101,456,o),
(145,402,o),
(228,375,c),
(124,342,o),
(70,282,o),
(70,199,cs),
(70,58,o),
(221,-15,o),
(493,-15,cs)
);
},
{
closed = 1;
nodes = (
(251,278,o),
(316,304,o),
(493,304,cs),
(663,304,o),
(725,278,o),
(725,204,cs),
(725,129,o),
(663,102,o),
(493,102,cs),
(316,102,o),
(251,129,o),
(251,204,cs)
);
},
{
closed = 1;
nodes = (
(262,577,o),
(324,601,o),
(493,601,cs),
(655,601,o),
(714,577,o),
(714,521,cs),
(714,455,o),
(655,432,o),
(493,432,cs),
(324,432,o),
(262,455,o),
(262,521,cs)
);
}
);
userData = {
assembly = "PUSHB[ ]	/* 7 values pushed */
17 5 2 3 4 1 76 
MPPEM[ ]	/* MeasurePixelPerEm */
PUSHB[ ]	/* 1 value pushed */
38 
LT[ ]	/* LessThan */
IF[ ]	/* If */
NPUSHB[ ]	/* 30 values pushed */
0 4 0 3 2 4 3 105 0 5 5 0 97 0 0 0 23 77 0 2 2 1 97 6 1 1 1 24 1 78 
ELSE[ ]	/* Else */
MPPEM[ ]	/* MeasurePixelPerEm */
PUSHB[ ]	/* 1 value pushed */
42 
LT[ ]	/* LessThan */
IF[ ]	/* If */
NPUSHB[ ]	/* 30 values pushed */
0 4 0 3 2 4 3 105 0 5 5 0 97 0 0 0 19 77 0 2 2 1 97 6 1 1 1 24 1 78 
ELSE[ ]	/* Else */
NPUSHB[ ]	/* 27 values pushed */
0 4 0 3 2 4 3 105 0 2 6 1 1 2 1 101 0 5 5 0 97 0 0 0 19 5 78 
EIF[ ]	/* EndIf */
EIF[ ]	/* EndIf */
NPUSHB[ ]	/* 18 values pushed */
0 0 49 47 43 41 36 34 28 26 0 23 0 22 42 7 7 23 
CALL[ ]	/* CallFunction */";
};
width = 976;
},
{
associatedMasterId = m01;
layerId = "0259D81F-7B34-4909-AFCB-4F4B327F2A76";
name = "11 feb 22, 19:42";
shapes = (
{
closed = 1;
nodes = (
(484,357,l),
(569,370,o),
(638,435,o),
(638,507,cs),
(638,601.853,o),
(521.497,670,o),
(360,670,cs),
(207.02,670,o),
(86,599.759,o),
(86,493,cs),
(86,403,o),
(177,348,o),
(273,326,cs),
(458,283,ls),
(551,261,o),
(582,222.333,o),
(582,161,cs),
(582,81.69,o),
(487.156,13,o),
(359,13,cs),
(219.376,13,o),
(135,83.83,o),
(135,179,cs),
(135,254,o),
(165,295,o),
(255,338,c),
(226,347,l),
(105,316,o),
(40,242,o),
(40,173,cs),
(40,33,o),
(217,-15,o),
(359,-15,cs),
(503,-15,o),
(678,55,o),
(678,188,cs),
(678,270.667,o),
(616,328,o),
(517,352,cs),
(313,400,ls),
(216,423,o),
(159,467.667,o),
(159,521,cs),
(159,597,o),
(240,644,o),
(360,644,cs),
(482.667,644,o),
(555,596.333,o),
(555,507,cs),
(555,440,o),
(517,387,o),
(456,362,c)
);
}
);
userData = {
assembly = "NPUSHB[ ]	/* 38 values pushed */
48 41 16 2 4 2 3 1 76 0 3 3 0 97 0 0 0 17 77 0 2 2 1 97 0 1 1 27 1 78 55 53 38 45 40 4 7 25 
CALL[ ]	/* CallFunction */";
};
width = 718;
},
{
associatedMasterId = "03DC8633-12B9-4C09-834B-15CC0827035A";
layerId = "7E7CE9AE-0EC5-41C8-A996-C4257191B2F6";
name = "21 feb 22, 15:03";
shapes = (
{
closed = 1;
nodes = (
(807.667,-17,o),
(959,57.667,o),
(959,199,cs),
(959,281.667,o),
(905,341.667,o),
(801,375,c),
(883.667,401.667,o),
(928,455.667,o),
(928,529,cs),
(928,592.333,o),
(893.167,640.5,o),
(823.5,673.5,cs),
(753.833,706.5,o),
(651.667,723,o),
(517,723,cs),
(382.333,723,o),
(280.167,706.5,o),
(210.5,673.5,cs),
(140.833,640.5,o),
(106,592.333,o),
(106,529,cs),
(106,455.667,o),
(150.333,401.667,o),
(233,375,c),
(129,341.667,o),
(75,281.667,o),
(75,199,cs),
(75,57.667,o),
(226.333,-17,o),
(517,-17,cs)
);
},
{
closed = 1;
nodes = (
(255,256,o),
(280.333,281.833,o),
(355,294.5,cs),
(392.333,300.833,o),
(446.333,304,o),
(517,304,cs),
(638.311,304,o),
(723.967,295.532,o),
(757,264,cs),
(771.667,250,o),
(779,230,o),
(779,204,cs),
(779,150.667,o),
(753.5,124.167,o),
(679.5,111.5,cs),
(642.5,105.167,o),
(588.333,102,o),
(517,102,cs),
(393.277,102,o),
(309.797,110.449,o),
(277,142.5,cs),
(262.333,156.833,o),
(255,177.333,o),
(255,204,cs)
);
},
{
closed = 1;
nodes = (
(266,552.333,o),
(286,575.333,o),
(326,590,cs),
(366,604.667,o),
(429.667,612,o),
(517,612,cs),
(604.333,612,o),
(668,604.667,o),
(708,590,cs),
(748,575.333,o),
(768,552.333,o),
(768,521,cs),
(768,489.667,o),
(748.167,467,o),
(708.5,453,cs),
(668.833,439,o),
(605,432,o),
(517,432,cs),
(429,432,o),
(365.167,439,o),
(325.5,453,cs),
(285.833,467,o),
(266,489.667,o),
(266,521,cs)
);
}
);
userData = {
assembly = "PUSHB[ ]	/* 7 values pushed */
17 5 2 3 4 1 76 
MPPEM[ ]	/* MeasurePixelPerEm */
PUSHB[ ]	/* 1 value pushed */
38 
LT[ ]	/* LessThan */
IF[ ]	/* If */
NPUSHB[ ]	/* 30 values pushed */
0 4 0 3 2 4 3 105 0 5 5 0 97 0 0 0 23 77 0 2 2 1 97 6 1 1 1 24 1 78 
ELSE[ ]	/* Else */
MPPEM[ ]	/* MeasurePixelPerEm */
PUSHB[ ]	/* 1 value pushed */
42 
LT[ ]	/* LessThan */
IF[ ]	/* If */
NPUSHB[ ]	/* 30 values pushed */
0 4 0 3 2 4 3 105 0 5 5 0 97 0 0 0 19 77 0 2 2 1 97 6 1 1 1 24 1 78 
ELSE[ ]	/* Else */
NPUSHB[ ]	/* 27 values pushed */
0 4 0 3 2 4 3 105 0 2 6 1 1 2 1 101 0 5 5 0 97 0 0 0 19 5 78 
EIF[ ]	/* EndIf */
EIF[ ]	/* EndIf */
NPUSHB[ ]	/* 18 values pushed */
0 0 49 47 43 41 36 34 28 26 0 23 0 22 42 7 7 23 
CALL[ ]	/* CallFunction */";
};
width = 1034;
},
{
associatedMasterId = m01;
layerId = "BFF74D09-C3E0-4B0F-9948-E7C555E942B5";
name = "23 feb 22, 11:39";
shapes = (
{
closed = 1;
nodes = (
(469,357,l),
(554,370,o),
(616,435,o),
(616,507,cs),
(616,597,o),
(504,665,o),
(353,665,cs),
(205,665,o),
(92,595,o),
(92,498,cs),
(92,403,o),
(186,348,o),
(282,324,cs),
(443,283,ls),
(536,259,o),
(557,222,o),
(557,161,cs),
(557,82,o),
(477,13,o),
(359,13,cs),
(234,13,o),
(164,104,o),
(164,196,cs),
(164,254,o),
(184,295,o),
(264,338,c),
(235,347,l),
(114,316,o),
(69,242,o),
(69,173,cs),
(69,33,o),
(222,-15,o),
(359,-15,cs),
(493,-15,o),
(653,55,o),
(653,188,cs),
(653,271,o),
(601,326,o),
(502,352,cs),
(317,400,ls),
(225,424,o),
(172,468,o),
(172,527,cs),
(172,592,o),
(238,639,o),
(353,639,cs),
(466,639,o),
(533,591,o),
(533,507,cs),
(533,440,o),
(502,387,o),
(441,362,c)
);
}
);
userData = {
assembly = "NPUSHB[ ]	/* 38 values pushed */
48 41 16 2 4 2 3 1 76 0 3 3 0 97 0 0 0 17 77 0 2 2 1 97 0 1 1 27 1 78 55 53 38 45 40 4 7 25 
CALL[ ]	/* CallFunction */";
};
width = 718;
}
);
note = eight;
unicode = 56;
}
{
glyphname = nine;
layers = (
{
layerId = m01;
shapes = (
{
angle = 180;
pos = (688,701);
ref = six;
}
);
userData = {
assembly = "NPUSHB[ ]	/* 45 values pushed */
28 11 2 1 0 1 76 0 1 0 5 4 1 5 105 0 0 0 2 97 0 2 2 17 77 0 4 4 3 97 0 3 3 27 3 78 37 17 21 38 36 33 6 7 28 
CALL[ ]	/* CallFunction */";
};
width = 688;
},
{
layerId = "03DC8633-12B9-4C09-834B-15CC0827035A";
shapes = (
{
angle = 180;
pos = (969,695);
ref = six;
}
);
userData = {
assembly = "NPUSHB[ ]	/* 14 values pushed */
15 1 2 4 9 1 1 2 8 1 0 1 3 76 
MPPEM[ ]	/* MeasurePixelPerEm */
PUSHB[ ]	/* 1 value pushed */
38 
LT[ ]	/* LessThan */
IF[ ]	/* If */
NPUSHB[ ]	/* 30 values pushed */
0 4 0 2 1 4 2 105 0 5 5 3 97 6 1 3 3 23 77 0 1 1 0 97 0 0 0 27 0 78 
ELSE[ ]	/* Else */
MPPEM[ ]	/* MeasurePixelPerEm */
PUSHB[ ]	/* 1 value pushed */
42 
LT[ ]	/* LessThan */
IF[ ]	/* If */
NPUSHB[ ]	/* 30 values pushed */
0 4 0 2 1 4 2 105 0 5 5 3 97 6 1 3 3 19 77 0 1 1 0 97 0 0 0 24 0 78 
ELSE[ ]	/* Else */
MPPEM[ ]	/* MeasurePixelPerEm */
PUSHB[ ]	/* 1 value pushed */
49 
LT[ ]	/* LessThan */
IF[ ]	/* If */
NPUSHB[ ]	/* 27 values pushed */
0 4 0 2 1 4 2 105 0 1 0 0 1 0 101 0 5 5 3 97 6 1 3 3 19 5 78 
ELSE[ ]	/* Else */
NPUSHB[ ]	/* 33 values pushed */
6 1 3 0 5 4 3 5 105 0 4 0 2 1 4 2 105 0 1 0 0 1 89 0 1 1 0 97 0 0 1 0 81 
EIF[ ]	/* EndIf */
EIF[ ]	/* EndIf */
EIF[ ]	/* EndIf */
NPUSHB[ ]	/* 16 values pushed */
0 0 36 34 28 26 0 23 0 22 35 37 36 7 7 25 
CALL[ ]	/* CallFunction */";
};
width = 969;
},
{
associatedMasterId = m01;
layerId = "388F6DE9-BC6A-4484-AB79-BB57AC2940AD";
name = "11 feb 22, 19:45";
shapes = (
{
closed = 1;
nodes = (
(534,348,l),
(479,266,o),
(414,235,o),
(321,235,cs),
(193,235,o),
(140,292.667,o),
(140,434,cs),
(140,582,o),
(203.333,645,o),
(330,645,cs),
(464.667,645,o),
(528,558,o),
(528,350,cs),
(522,67,o),
(388,9,o),
(129,9,c),
(129,-14,l),
(462.333,-14,o),
(628,101.667,o),
(628,371,cs),
(628,551,o),
(523,670,o),
(338,670,cs),
(151.603,670,o),
(40,575.821,o),
(40,436,cs),
(40,285,o),
(169,210,o),
(296,210,cs),
(399,210,o),
(482,246,o),
(532,311,c)
);
}
);
userData = {
assembly = "NPUSHB[ ]	/* 45 values pushed */
28 11 2 1 0 1 76 0 1 0 5 4 1 5 105 0 0 0 2 97 0 2 2 17 77 0 4 4 3 97 0 3 3 27 3 78 37 17 21 38 36 33 6 7 28 
CALL[ ]	/* CallFunction */";
};
width = 668;
},
{
associatedMasterId = "03DC8633-12B9-4C09-834B-15CC0827035A";
layerId = "24057459-7344-4E45-8237-15715F223344";
name = "21 feb 22, 15:03";
shapes = (
{
closed = 1;
nodes = (
(221.333,720,o),
(75,640,o),
(75,472,cs),
(75,310.667,o),
(214,227,o),
(486,227,cs),
(605.333,227,o),
(705,247.333,o),
(785,288,c),
(757,176,o),
(656.333,115,o),
(443,115,cs),
(360.333,115,o),
(239.333,140,o),
(150,184,c),
(127,39,l),
(205.667,0.333,o),
(331.333,-20,o),
(446,-20,cs),
(776.667,-20,o),
(934,112.667,o),
(934,374,cs),
(934,600.667,o),
(789.333,720,o),
(512,720,cs)
);
},
{
closed = 1;
nodes = (
(250,527.667,o),
(277.167,556.667,o),
(348.5,570,cs),
(384.167,576.667,o),
(435,580,o),
(501,580,cs),
(621.011,580,o),
(702.375,570.856,o),
(736,536.5,cs),
(751.333,520.833,o),
(759,498.333,o),
(759,469,cs),
(759,374.502,o),
(681.896,357,o),
(501,357,cs),
(324.506,357,o),
(250,374.795,o),
(250,469,cs)
);
}
);
userData = {
assembly = "NPUSHB[ ]	/* 14 values pushed */
15 1 2 4 9 1 1 2 8 1 0 1 3 76 
MPPEM[ ]	/* MeasurePixelPerEm */
PUSHB[ ]	/* 1 value pushed */
38 
LT[ ]	/* LessThan */
IF[ ]	/* If */
NPUSHB[ ]	/* 30 values pushed */
0 4 0 2 1 4 2 105 0 5 5 3 97 6 1 3 3 23 77 0 1 1 0 97 0 0 0 27 0 78 
ELSE[ ]	/* Else */
MPPEM[ ]	/* MeasurePixelPerEm */
PUSHB[ ]	/* 1 value pushed */
42 
LT[ ]	/* LessThan */
IF[ ]	/* If */
NPUSHB[ ]	/* 30 values pushed */
0 4 0 2 1 4 2 105 0 5 5 3 97 6 1 3 3 19 77 0 1 1 0 97 0 0 0 24 0 78 
ELSE[ ]	/* Else */
MPPEM[ ]	/* MeasurePixelPerEm */
PUSHB[ ]	/* 1 value pushed */
49 
LT[ ]	/* LessThan */
IF[ ]	/* If */
NPUSHB[ ]	/* 27 values pushed */
0 4 0 2 1 4 2 105 0 1 0 0 1 0 101 0 5 5 3 97 6 1 3 3 19 5 78 
ELSE[ ]	/* Else */
NPUSHB[ ]	/* 33 values pushed */
6 1 3 0 5 4 3 5 105 0 4 0 2 1 4 2 105 0 1 0 0 1 89 0 1 1 0 97 0 0 1 0 81 
EIF[ ]	/* EndIf */
EIF[ ]	/* EndIf */
EIF[ ]	/* EndIf */
NPUSHB[ ]	/* 16 values pushed */
0 0 36 34 28 26 0 23 0 22 35 37 36 7 7 25 
CALL[ ]	/* CallFunction */";
};
width = 1009;
},
{
associatedMasterId = "03DC8633-12B9-4C09-834B-15CC0827035A";
layerId = "81DBDA2B-8094-4B18-8E45-10774E357D28";
name = "23 feb 22, 12:34";
shapes = (
{
closed = 1;
nodes = (
(201,720,o),
(55,640,o),
(55,472,cs),
(55,311,o),
(194,227,o),
(456,227,cs),
(565,227,o),
(665,247,o),
(745,288,c),
(717,176,o),
(616,115,o),
(413,115,cs),
(340,115,o),
(219,140,o),
(130,184,c),
(107,39,l),
(186,0,o),
(311,-20,o),
(416,-20,cs),
(737,-20,o),
(894,113,o),
(894,374,cs),
(894,601,o),
(749,720,o),
(482,720,cs)
);
},
{
closed = 1;
nodes = (
(230,588,o),
(382,580,o),
(471,580,cs),
(577,580,o),
(719,585,o),
(719,469,cs),
(719,375,o),
(642,357,o),
(471,357,cs),
(305,357,o),
(230,375,o),
(230,469,cs)
);
}
);
userData = {
assembly = "NPUSHB[ ]	/* 14 values pushed */
15 1 2 4 9 1 1 2 8 1 0 1 3 76 
MPPEM[ ]	/* MeasurePixelPerEm */
PUSHB[ ]	/* 1 value pushed */
38 
LT[ ]	/* LessThan */
IF[ ]	/* If */
NPUSHB[ ]	/* 30 values pushed */
0 4 0 2 1 4 2 105 0 5 5 3 97 6 1 3 3 23 77 0 1 1 0 97 0 0 0 27 0 78 
ELSE[ ]	/* Else */
MPPEM[ ]	/* MeasurePixelPerEm */
PUSHB[ ]	/* 1 value pushed */
42 
LT[ ]	/* LessThan */
IF[ ]	/* If */
NPUSHB[ ]	/* 30 values pushed */
0 4 0 2 1 4 2 105 0 5 5 3 97 6 1 3 3 19 77 0 1 1 0 97 0 0 0 24 0 78 
ELSE[ ]	/* Else */
MPPEM[ ]	/* MeasurePixelPerEm */
PUSHB[ ]	/* 1 value pushed */
49 
LT[ ]	/* LessThan */
IF[ ]	/* If */
NPUSHB[ ]	/* 27 values pushed */
0 4 0 2 1 4 2 105 0 1 0 0 1 0 101 0 5 5 3 97 6 1 3 3 19 5 78 
ELSE[ ]	/* Else */
NPUSHB[ ]	/* 33 values pushed */
6 1 3 0 5 4 3 5 105 0 4 0 2 1 4 2 105 0 1 0 0 1 89 0 1 1 0 97 0 0 1 0 81 
EIF[ ]	/* EndIf */
EIF[ ]	/* EndIf */
EIF[ ]	/* EndIf */
NPUSHB[ ]	/* 16 values pushed */
0 0 36 34 28 26 0 23 0 22 35 37 36 7 7 25 
CALL[ ]	/* CallFunction */";
};
width = 979;
}
);
note = nine;
unicode = 57;
}
{
glyphname = greater;
layers = (
{
layerId = m01;
shapes = (
{
closed = 1;
nodes = (
(65,154,l),
(435,310,l),
(435,336,l),
(65,492,l),
(50,459,l),
(381,323,l),
(50,187,l)
);
}
);
userData = {
assembly = "PUSHB[ ]	/* 4 values pushed */
5 2 1 50 
CALL[ ]	/* CallFunction */";
};
width = 480;
},
{
layerId = "03DC8633-12B9-4C09-834B-15CC0827035A";
shapes = (
{
closed = 1;
nodes = (
(100,11,l),
(747,247,l),
(747,375,l),
(100,611,l),
(100,465,l),
(509,311,l),
(100,158,l)
);
}
);
userData = {
assembly = "PUSHB[ ]	/* 4 values pushed */
5 2 1 50 
CALL[ ]	/* CallFunction */";
};
width = 777;
}
);
note = greater;
unicode = 62;
}
{
glyphname = question;
layers = (
{
layerId = m01;
shapes = (
{
closed = 1;
nodes = (
(305,328,o),
(409,369,o),
(409,518,cs),
(409,633,o),
(346,690,o),
(249,690,cs),
(144,690,o),
(82,630,o),
(78,483,c),
(-7,528,l),
(19,647,o),
(118,715,o),
(251,715,cs),
(395,715,o),
(487,637,o),
(487,518,cs),
(487,370,o),
(354,297,o),
(249,295,c),
(243,175,l),
(217,175,l),
(212,323,l)
);
},
{
pos = (132,0);
ref = period;
}
);
userData = {
assembly = "PUSHB[ ]	/* 7 values pushed */
15 14 2 4 3 1 76 
MPPEM[ ]	/* MeasurePixelPerEm */
PUSHB[ ]	/* 1 value pushed */
11 
LT[ ]	/* LessThan */
IF[ ]	/* If */
NPUSHB[ ]	/* 37 values pushed */
0 0 1 5 1 0 114 0 5 6 1 5 6 126 0 6 6 132 0 4 0 1 0 4 1 105 0 3 3 2 97 0 2 2 19 3 78 
ELSE[ ]	/* Else */
MPPEM[ ]	/* MeasurePixelPerEm */
PUSHB[ ]	/* 1 value pushed */
44 
LT[ ]	/* LessThan */
IF[ ]	/* If */
NPUSHB[ ]	/* 38 values pushed */
0 0 1 5 1 0 5 128 0 5 6 1 5 6 126 0 6 6 132 0 4 0 1 0 4 1 105 0 3 3 2 97 0 2 2 19 3 78 
ELSE[ ]	/* Else */
NPUSHB[ ]	/* 43 values pushed */
0 0 1 5 1 0 5 128 0 5 6 1 5 6 126 0 6 6 132 0 2 0 3 4 2 3 105 0 4 1 1 4 89 0 4 4 1 97 0 1 4 1 81 
EIF[ ]	/* EndIf */
EIF[ ]	/* EndIf */
NPUSHB[ ]	/* 10 values pushed */
36 34 20 38 38 17 16 7 7 29 
CALL[ ]	/* CallFunction */";
};
width = 517;
},
{
layerId = "03DC8633-12B9-4C09-834B-15CC0827035A";
shapes = (
{
closed = 1;
nodes = (
(455,322,ls),
(601,327,o),
(692,404,o),
(692,522,cs),
(692,652,o),
(574,734,o),
(387,734,cs),
(254,734,o),
(128,694,o),
(61,631,c),
(113,508,l),
(172,557,o),
(258,602,o),
(395,602,cs),
(505,602,o),
(541,583,o),
(541,526,cs),
(541,468,o),
(506,448,o),
(380,447,cs),
(263,446,l),
(263,226,l),
(397,226,l),
(397,320,l)
);
},
{
pos = (202,-4);
ref = period;
}
);
userData = {
assembly = "NPUSHB[ ]	/* 18 values pushed */
21 1 3 2 22 1 4 3 47 1 0 1 46 1 6 0 4 76 
MPPEM[ ]	/* MeasurePixelPerEm */
PUSHB[ ]	/* 1 value pushed */
26 
LT[ ]	/* LessThan */
IF[ ]	/* If */
NPUSHB[ ]	/* 41 values pushed */
0 0 7 1 6 9 0 6 105 0 3 3 2 97 0 2 2 19 77 0 1 1 4 97 5 1 4 4 26 77 0 9 9 8 97 0 8 8 24 8 78 
ELSE[ ]	/* Else */
MPPEM[ ]	/* MeasurePixelPerEm */
PUSHB[ ]	/* 1 value pushed */
38 
LT[ ]	/* LessThan */
IF[ ]	/* If */
NPUSHB[ ]	/* 45 values pushed */
0 0 7 1 6 9 0 6 105 0 3 3 2 97 0 2 2 19 77 0 5 5 26 77 0 1 1 4 97 0 4 4 26 77 0 9 9 8 97 0 8 8 24 8 78 
ELSE[ ]	/* Else */
MPPEM[ ]	/* MeasurePixelPerEm */
PUSHB[ ]	/* 1 value pushed */
42 
LT[ ]	/* LessThan */
IF[ ]	/* If */
NPUSHB[ ]	/* 45 values pushed */
0 5 4 1 4 5 114 0 4 0 1 0 4 1 103 0 0 7 1 6 9 0 6 105 0 3 3 2 97 0 2 2 19 77 0 9 9 8 97 0 8 8 24 8 78 
ELSE[ ]	/* Else */
NPUSHB[ ]	/* 42 values pushed */
0 5 4 1 4 5 114 0 4 0 1 0 4 1 103 0 0 7 1 6 9 0 6 105 0 9 0 8 9 8 101 0 3 3 2 97 0 2 2 19 3 78 
EIF[ ]	/* EndIf */
EIF[ ]	/* EndIf */
EIF[ ]	/* EndIf */
NPUSHB[ ]	/* 14 values pushed */
57 55 37 17 37 17 37 37 37 67 65 10 7 31 
CALL[ ]	/* CallFunction */";
};
width = 741;
},
{
associatedMasterId = m01;
layerId = "E5847D01-CAA0-41F6-9ADA-7094B65E85F9";
name = "11 feb 22, 19:18";
shapes = (
{
closed = 1;
nodes = (
(286,344,o),
(392,407,o),
(392,510,qs),
(392,585,o),
(315,676,o),
(255,676,qs),
(182,676,o),
(94,574,o),
(94,475,q),
(50,519,l),
(50,561,o),
(101,640,o),
(194,689,o),
(255,689,qs),
(320,689,o),
(416,642,o),
(467,561,o),
(467,510,qs),
(467,446,o),
(380,359,o),
(273,317,o),
(249,317,q),
(242,206,l),
(225,206,l),
(224,344,l)
);
},
{
closed = 1;
nodes = (
(182,22,o),
(213,-8,o),
(234,-8,qs),
(255,-8,o),
(286,21,o),
(286,44,qs),
(286,66,o),
(256,96,o),
(234,96,qs),
(212,96,o),
(182,66,o),
(182,44,qs)
);
}
);
userData = {
assembly = "PUSHB[ ]	/* 7 values pushed */
15 14 2 4 3 1 76 
MPPEM[ ]	/* MeasurePixelPerEm */
PUSHB[ ]	/* 1 value pushed */
11 
LT[ ]	/* LessThan */
IF[ ]	/* If */
NPUSHB[ ]	/* 37 values pushed */
0 0 1 5 1 0 114 0 5 6 1 5 6 126 0 6 6 132 0 4 0 1 0 4 1 105 0 3 3 2 97 0 2 2 19 3 78 
ELSE[ ]	/* Else */
MPPEM[ ]	/* MeasurePixelPerEm */
PUSHB[ ]	/* 1 value pushed */
44 
LT[ ]	/* LessThan */
IF[ ]	/* If */
NPUSHB[ ]	/* 38 values pushed */
0 0 1 5 1 0 5 128 0 5 6 1 5 6 126 0 6 6 132 0 4 0 1 0 4 1 105 0 3 3 2 97 0 2 2 19 3 78 
ELSE[ ]	/* Else */
NPUSHB[ ]	/* 43 values pushed */
0 0 1 5 1 0 5 128 0 5 6 1 5 6 126 0 6 6 132 0 2 0 3 4 2 3 105 0 4 1 1 4 89 0 4 4 1 97 0 1 4 1 81 
EIF[ ]	/* EndIf */
EIF[ ]	/* EndIf */
NPUSHB[ ]	/* 10 values pushed */
36 34 20 38 38 17 16 7 7 29 
CALL[ ]	/* CallFunction */";
};
width = 517;
},
{
associatedMasterId = "03DC8633-12B9-4C09-834B-15CC0827035A";
layerId = "E3EEA22E-FB5E-4E74-8DCE-5DC36EAE25CE";
name = "21 feb 22, 17:09";
shapes = (
{
closed = 1;
nodes = (
(682,279,l),
(589,226,o),
(451,208,o),
(356,208,cs),
(225,208,o),
(78,241,o),
(78,360,cs),
(78,447,o),
(150,515,o),
(313,523,cs),
(420,528,ls),
(507,532,o),
(551,530.234,o),
(551,572,cs),
(551,622,o),
(424,622,o),
(375,622,cs),
(269.667,622,o),
(172.333,593.333,o),
(103,544,c),
(51,647,l),
(128.333,703,o),
(257.667,734,o),
(387,734,cs),
(567,734,o),
(692,675.333,o),
(692,562,cs),
(692,434,o),
(580,417,o),
(465,411,cs),
(376,406,ls),
(252,399,o),
(219,381,o),
(219,358,cs),
(219,334,o),
(250,315,o),
(345,315,cs),
(402,315,o),
(551,326,o),
(635,378,c)
);
},
{
pos = (202,-4);
ref = period;
}
);
userData = {
assembly = "NPUSHB[ ]	/* 18 values pushed */
21 1 3 2 22 1 4 3 47 1 0 1 46 1 6 0 4 76 
MPPEM[ ]	/* MeasurePixelPerEm */
PUSHB[ ]	/* 1 value pushed */
26 
LT[ ]	/* LessThan */
IF[ ]	/* If */
NPUSHB[ ]	/* 41 values pushed */
0 0 7 1 6 9 0 6 105 0 3 3 2 97 0 2 2 19 77 0 1 1 4 97 5 1 4 4 26 77 0 9 9 8 97 0 8 8 24 8 78 
ELSE[ ]	/* Else */
MPPEM[ ]	/* MeasurePixelPerEm */
PUSHB[ ]	/* 1 value pushed */
38 
LT[ ]	/* LessThan */
IF[ ]	/* If */
NPUSHB[ ]	/* 45 values pushed */
0 0 7 1 6 9 0 6 105 0 3 3 2 97 0 2 2 19 77 0 5 5 26 77 0 1 1 4 97 0 4 4 26 77 0 9 9 8 97 0 8 8 24 8 78 
ELSE[ ]	/* Else */
MPPEM[ ]	/* MeasurePixelPerEm */
PUSHB[ ]	/* 1 value pushed */
42 
LT[ ]	/* LessThan */
IF[ ]	/* If */
NPUSHB[ ]	/* 45 values pushed */
0 5 4 1 4 5 114 0 4 0 1 0 4 1 103 0 0 7 1 6 9 0 6 105 0 3 3 2 97 0 2 2 19 77 0 9 9 8 97 0 8 8 24 8 78 
ELSE[ ]	/* Else */
NPUSHB[ ]	/* 42 values pushed */
0 5 4 1 4 5 114 0 4 0 1 0 4 1 103 0 0 7 1 6 9 0 6 105 0 9 0 8 9 8 101 0 3 3 2 97 0 2 2 19 3 78 
EIF[ ]	/* EndIf */
EIF[ ]	/* EndIf */
EIF[ ]	/* EndIf */
NPUSHB[ ]	/* 14 values pushed */
57 55 37 17 37 17 37 37 37 67 65 10 7 31 
CALL[ ]	/* CallFunction */";
};
width = 741;
}
);
note = question;
unicode = 63;
}
{
glyphname = at;
layers = (
{
layerId = m01;
shapes = (
{
closed = 1;
nodes = (
(693,-18,l),
(634,-67,o),
(553,-92,o),
(461,-92,cs),
(234,-92,o),
(96,42,o),
(96,232,cs),
(96,427,o),
(237,564,o),
(444,564,cs),
(644,564,o),
(769,437,o),
(769,286,cs),
(769,130,o),
(675,48,o),
(608,48,cs),
(570,48,o),
(562,64,o),
(562,84,cs),
(562,104,o),
(571,146,o),
(582,190,cs),
(644,444,l),
(639,446,l),
(618,420,o),
(585,394,o),
(562,386,c),
(520,430,o),
(486,455,o),
(434,455,cs),
(295,455,o),
(219,276,o),
(219,150,cs),
(219,40,o),
(289,15,o),
(327,15,cs),
(394,15,o),
(456,70,o),
(505,119,c),
(500,150,l),
(424,76,o),
(387,60,o),
(360,60,cs),
(328,60,o),
(302,82,o),
(302,150,cs),
(302,227,o),
(345,426,o),
(450,426,cs),
(484,426,o),
(509,401,o),
(538,370,c),
(506,221,ls),
(496,174,o),
(483,122,o),
(483,91,cs),
(483,44,o),
(524,8,o),
(596,8,cs),
(690,8,o),
(813,110,o),
(813,281,cs),
(813,469,o),
(659,602,o),
(445,602,cs),
(208,602,o),
(51,441,o),
(51,232,cs),
(51,19,o),
(214,-131,o),
(453,-131,cs),
(557,-131,o),
(650,-101,o),
(716,-46,c)
);
}
);
userData = {
assembly = "NPUSHB[ ]	/* 84 values pushed */
54 1 3 5 95 86 59 51 25 5 8 9 2 76 0 0 0 5 3 0 5 105 0 3 0 9 8 3 9 105 0 6 10 1 7 6 7 101 0 8 8 1 97 2 1 1 1 27 77 0 4 4 1 97 2 1 1 1 27 1 78 0 0 98 96 93 91 0 90 0 89 82 80 74 72 66 64 45 46 38 38 11 7 26 
CALL[ ]	/* CallFunction */";
};
width = 863;
},
{
layerId = "03DC8633-12B9-4C09-834B-15CC0827035A";
shapes = (
{
closed = 1;
nodes = (
(738,-198,o),
(837,-175,o),
(916,-136,c),
(908,-21,l),
(825,-64,o),
(732,-82,o),
(629,-82,cs),
(400,-82,o),
(272,40,o),
(272,218,cs),
(272,400,o),
(402,519,o),
(643,519,cs),
(801,519,o),
(987,439,o),
(987,275,cs),
(987,195,o),
(942,147,o),
(888,147,cs),
(852,147,o),
(830,170,o),
(836,208,cs),
(862,374,l),
(765,374,l),
(760,345,l),
(726,376,o),
(659,395,o),
(611,395,cs),
(477,395,o),
(387,315,o),
(387,213,cs),
(387,91,o),
(465,31,o),
(578,31,cs),
(656,31,o),
(713,73,o),
(739,128,c),
(754,74,o),
(820,51,o),
(880,51,cs),
(1012,51,o),
(1109,128,o),
(1109,272,cs),
(1109,522,o),
(850,635,o),
(636,635,cs),
(378,635,o),
(135,496,o),
(135,217,cs),
(135,-72,o),
(393,-198,o),
(626,-198,cs)
);
},
{
closed = 1;
nodes = (
(695,141,o),
(664,121,o),
(600,121,cs),
(534,121,o),
(497,157,o),
(497,215,cs),
(497,274,o),
(540,307,o),
(613,307,cs),
(672,307,o),
(716,280,o),
(738,259,c),
(730,203,l)
);
}
);
userData = {
assembly = "MPPEM[ ]	/* MeasurePixelPerEm */
PUSHB[ ]	/* 1 value pushed */
12 
LT[ ]	/* LessThan */
IF[ ]	/* If */
NPUSHB[ ]	/* 14 values pushed */
30 1 10 3 18 1 1 5 54 1 7 1 3 76 
ELSE[ ]	/* Else */
NPUSHB[ ]	/* 14 values pushed */
30 1 10 4 18 1 1 5 54 1 7 1 3 76 
EIF[ ]	/* EndIf */
MPPEM[ ]	/* MeasurePixelPerEm */
PUSHB[ ]	/* 1 value pushed */
12 
LT[ ]	/* LessThan */
IF[ ]	/* If */
NPUSHB[ ]	/* 40 values pushed */
9 1 5 2 1 1 7 5 1 106 0 7 11 1 8 7 8 101 0 6 6 0 97 0 0 0 19 77 0 10 10 3 97 4 1 3 3 26 10 78 
ELSE[ ]	/* Else */
MPPEM[ ]	/* MeasurePixelPerEm */
PUSHB[ ]	/* 1 value pushed */
38 
LT[ ]	/* LessThan */
IF[ ]	/* If */
NPUSHB[ ]	/* 44 values pushed */
9 1 5 2 1 1 7 5 1 106 0 7 11 1 8 7 8 101 0 6 6 0 97 0 0 0 19 77 0 4 4 20 77 0 10 10 3 97 0 3 3 26 10 78 
ELSE[ ]	/* Else */
MPPEM[ ]	/* MeasurePixelPerEm */
PUSHB[ ]	/* 1 value pushed */
42 
LT[ ]	/* LessThan */
IF[ ]	/* If */
NPUSHB[ ]	/* 45 values pushed */
0 4 3 10 3 4 10 128 0 3 0 10 5 3 10 105 9 1 5 2 1 1 7 5 1 106 0 7 11 1 8 7 8 101 0 6 6 0 97 0 0 0 19 6 78 
ELSE[ ]	/* Else */
NPUSHB[ ]	/* 51 values pushed */
0 4 3 10 3 4 10 128 0 0 0 6 3 0 6 105 0 3 0 10 5 3 10 105 9 1 5 2 1 1 7 5 1 106 0 7 8 8 7 89 0 7 7 8 97 11 1 8 7 8 81 
EIF[ ]	/* EndIf */
EIF[ ]	/* EndIf */
EIF[ ]	/* EndIf */
NPUSHB[ ]	/* 21 values pushed */
0 0 68 66 62 60 0 58 0 57 38 37 36 18 37 36 38 38 12 7 30 
CALL[ ]	/* CallFunction */";
};
width = 1244;
},
{
associatedMasterId = m01;
layerId = "4B1827A5-C43A-4432-BD01-A60751118426";
name = "14 feb 22, 11:19";
shapes = (
{
closed = 1;
nodes = (
(587.739,-171,o),
(726.698,-84.565,o),
(774,45,c),
(756,52,l),
(708.785,-69.118,o),
(577.778,-149,o),
(433,-149,cs),
(217,-149,o),
(74,5,o),
(74,219,cs),
(74,438,o),
(220,589,o),
(431,589,cs),
(624.903,589,o),
(759,463.306,o),
(759,281,cs),
(759,123.123,o),
(673.641,12,o),
(552,12,cs),
(535,12,o),
(512,24,o),
(512,54,cs),
(512,74,o),
(524.667,118.667,o),
(542,160,cs),
(664,454,l),
(651,459,l),
(637.667,429.667,o),
(604.667,403.667,o),
(574,393,c),
(516,448,o),
(494,455,o),
(474,455,cs),
(345,455,o),
(199,175,o),
(199,46,cs),
(199,10,o),
(219,-15,o),
(255,-15,cs),
(302,-15,o),
(365,59,o),
(392,98,cs),
(546,323,l),
(489,191,ls),
(467.667,145.667,o),
(453,91.667,o),
(453,61,cs),
(453,14,o),
(494,-15,o),
(541,-15,cs),
(679.826,-15,o),
(783,100.376,o),
(783,281,cs),
(783,479,o),
(635,611,o),
(431,611,cs),
(283,611,o),
(163.167,541.833,o),
(98.5,422.5,cs),
(66.167,362.833,o),
(50,295,o),
(50,219,cs),
(50,-9,o),
(205,-171,o),
(433,-171,cs)
);
},
{
closed = 1;
nodes = (
(268,137,o),
(376,432,o),
(477,432,cs),
(503,432,o),
(530.333,413.667,o),
(559,377,c),
(373,110,ls),
(332.333,51.333,o),
(303.333,22,o),
(286,22,cs),
(274,22,o),
(268,30,o),
(268,46,cs)
);
}
);
userData = {
assembly = "NPUSHB[ ]	/* 84 values pushed */
54 1 3 5 95 86 59 51 25 5 8 9 2 76 0 0 0 5 3 0 5 105 0 3 0 9 8 3 9 105 0 6 10 1 7 6 7 101 0 8 8 1 97 2 1 1 1 27 77 0 4 4 1 97 2 1 1 1 27 1 78 0 0 98 96 93 91 0 90 0 89 82 80 74 72 66 64 45 46 38 38 11 7 26 
CALL[ ]	/* CallFunction */";
};
width = 833;
}
);
note = at;
unicode = 64;
}
{
glyphname = A;
kernLeft = A;
kernRight = A;
layers = (
{
anchors = (
{
name = bottom;
pos = (413,0);
},
{
name = ogonek;
pos = (799,10);
},
{
name = top;
pos = (388,700);
}
);
layerId = m01;
shapes = (
{
closed = 1;
nodes = (
(391,615,l),
(360,644,l),
(95,74,l),
(-50,1,l),
(-50,0,l),
(252,0,l),
(252,2,l),
(137,67,l)
);
},
{
closed = 1;
nodes = (
(557,269,l),
(192,269,l),
(178,238,l),
(572,238,l)
);
},
{
closed = 1;
nodes = (
(325,700,l),
(630,67,l),
(526,2,l),
(526,0,l),
(862,0,l),
(862,2,l),
(723,67,l),
(417,700,l)
);
}
);
userData = {
assembly = "NPUSHB[ ]	/* 46 values pushed */
18 2 2 4 0 13 10 2 1 2 2 76 5 1 4 0 2 1 4 2 103 0 0 0 17 77 3 1 1 1 21 1 78 17 17 17 19 17 19 34 19 34 19 6 7 26 
CALL[ ]	/* CallFunction */";
};
width = 822;
},
{
anchors = (
{
name = bottom;
pos = (480,0);
},
{
name = ogonek;
pos = (960,0);
},
{
name = top;
pos = (480,700);
}
);
layerId = "03DC8633-12B9-4C09-834B-15CC0827035A";
shapes = (
{
closed = 1;
nodes = (
(652,279,l),
(304,279,l),
(244,161,l),
(712,161,l)
);
},
{
closed = 1;
nodes = (
(778,0,l),
(960,0,l),
(575,700,l),
(383,700,l),
(0,0,l),
(178,0,l),
(478,578,l)
);
}
);
userData = {
assembly = "PUSHB[ ]	/* 6 values pushed */
2 1 0 1 1 76 
MPPEM[ ]	/* MeasurePixelPerEm */
PUSHB[ ]	/* 1 value pushed */
38 
LT[ ]	/* LessThan */
IF[ ]	/* If */
NPUSHB[ ]	/* 20 values pushed */
0 0 0 3 2 0 3 104 0 1 1 17 77 4 1 2 2 18 2 78 
ELSE[ ]	/* Else */
MPPEM[ ]	/* MeasurePixelPerEm */
PUSHB[ ]	/* 1 value pushed */
42 
LT[ ]	/* LessThan */
IF[ ]	/* If */
NPUSHB[ ]	/* 20 values pushed */
0 1 0 1 133 0 0 0 3 2 0 3 104 4 1 2 2 18 2 78 
ELSE[ ]	/* Else */
NPUSHB[ ]	/* 27 values pushed */
0 1 0 1 133 4 1 2 3 2 134 0 0 3 3 0 87 0 0 0 3 96 0 3 0 3 80 
EIF[ ]	/* EndIf */
EIF[ ]	/* EndIf */
PUSHB[ ]	/* 8 values pushed */
17 17 17 18 16 5 7 27 
CALL[ ]	/* CallFunction */";
};
width = 960;
}
);
note = A;
unicode = 65;
}
{
glyphname = B;
kernLeft = B;
kernRight = B;
layers = (
{
layerId = m01;
shapes = (
{
closed = 1;
nodes = (
(40,0,l),
(40,2,l),
(163,62,l),
(165,638,l),
(40,698,l),
(40,700,l),
(423,700,ls),
(630,700,o),
(715,645,o),
(715,525,cs),
(715,436,o),
(640,381,o),
(526,371,c),
(526,369,l),
(644,359,o),
(744,293,o),
(744,186,cs),
(744,57,o),
(632,0,o),
(423,0,cs)
);
},
{
closed = 1;
nodes = (
(423,32,ls),
(549,32,o),
(640,66,o),
(640,186,cs),
(640,314,o),
(519,354,o),
(433,354,cs),
(248,354,l),
(248,32,l)
);
},
{
closed = 1;
nodes = (
(433,386,ls),
(516,386,o),
(625,429,o),
(625,534,cs),
(625,635,o),
(565,671,o),
(423,671,cs),
(248,671,l),
(248,386,l)
);
}
);
userData = {
assembly = "NPUSHB[ ]	/* 10 values pushed */
17 1 6 5 18 1 4 3 2 76 
MPPEM[ ]	/* MeasurePixelPerEm */
PUSHB[ ]	/* 1 value pushed */
25 
LT[ ]	/* LessThan */
IF[ ]	/* If */
NPUSHB[ ]	/* 38 values pushed */
0 0 6 3 6 0 3 128 0 6 0 3 4 6 3 103 0 5 5 1 95 0 1 1 17 77 0 4 4 2 95 7 1 2 2 21 2 78 
ELSE[ ]	/* Else */
NPUSHB[ ]	/* 36 values pushed */
0 0 6 3 6 0 3 128 0 1 0 5 6 1 5 103 0 6 0 3 4 6 3 103 0 4 4 2 95 7 1 2 2 21 2 78 
EIF[ ]	/* EndIf */
NPUSHB[ ]	/* 19 values pushed */
0 0 43 41 35 33 32 30 24 22 0 21 0 19 37 53 8 7 24 
CALL[ ]	/* CallFunction */";
};
width = 802;
},
{
layerId = "03DC8633-12B9-4C09-834B-15CC0827035A";
shapes = (
{
closed = 1;
nodes = (
(101,0,l),
(100,700,l),
(611,700,ls),
(788,700,o),
(875,640,o),
(875,526,cs),
(875,446,o),
(850,384,o),
(719,358,c),
(850,334,o),
(906,279,o),
(906,191,cs),
(906,64,o),
(804,0,o),
(537,0,cs)
);
},
{
closed = 1;
nodes = (
(591,413,ls),
(662,413,o),
(696,444,o),
(696,496,cs),
(696,547,o),
(663,570,o),
(591,570,cs),
(272,570,l),
(272,413,l)
);
},
{
closed = 1;
nodes = (
(581,140,ls),
(672,140,o),
(717,172,o),
(717,228,cs),
(717,283,o),
(672,311,o),
(581,311,cs),
(273,311,l),
(273,140,l)
);
}
);
userData = {
assembly = "PUSHB[ ]	/* 6 values pushed */
5 1 4 3 1 76 
MPPEM[ ]	/* MeasurePixelPerEm */
PUSHB[ ]	/* 1 value pushed */
38 
LT[ ]	/* LessThan */
IF[ ]	/* If */
NPUSHB[ ]	/* 30 values pushed */
0 3 0 4 5 3 4 103 0 2 2 0 95 0 0 0 17 77 0 5 5 1 95 6 1 1 1 18 1 78 
ELSE[ ]	/* Else */
MPPEM[ ]	/* MeasurePixelPerEm */
PUSHB[ ]	/* 1 value pushed */
42 
LT[ ]	/* LessThan */
IF[ ]	/* If */
NPUSHB[ ]	/* 28 values pushed */
0 0 0 2 3 0 2 103 0 3 0 4 5 3 4 103 0 5 5 1 95 6 1 1 1 18 1 78 
ELSE[ ]	/* Else */
NPUSHB[ ]	/* 33 values pushed */
0 0 0 2 3 0 2 103 0 3 0 4 5 3 4 103 0 5 1 1 5 87 0 5 5 1 95 6 1 1 5 1 79 
EIF[ ]	/* EndIf */
EIF[ ]	/* EndIf */
NPUSHB[ ]	/* 18 values pushed */
0 0 31 29 26 24 23 21 17 15 0 14 0 13 42 7 7 23 
CALL[ ]	/* CallFunction */";
};
width = 986;
},
{
associatedMasterId = m01;
layerId = "629DC46D-F0E8-43FA-AE91-5458410DB302";
name = "11 feb 22, 17:44";
shapes = (
{
closed = 1;
nodes = (
(35,0,l),
(35,2,l),
(158,62,l),
(160,588,l),
(35,648,l),
(35,650,l),
(379,650,ls),
(520,650,o),
(750,659,o),
(750,492,cs),
(750,401,o),
(694,339,o),
(558,339,c),
(558,337,l),
(727,337,o),
(774,273,o),
(774,182,cs),
(774,-6,o),
(539,0,o),
(377,0,cs)
);
},
{
closed = 1;
nodes = (
(349,28,ls),
(575,28,o),
(670,61,o),
(670,176,cs),
(670,291,o),
(575,324,o),
(349,324,cs),
(245,324,l),
(245,28,l)
);
},
{
closed = 1;
nodes = (
(349,352,ls),
(471,352,o),
(660,349,o),
(660,487,cs),
(660,629,o),
(469,624,o),
(349,624,cs),
(245,624,l),
(245,352,l)
);
}
);
userData = {
assembly = "NPUSHB[ ]	/* 10 values pushed */
17 1 6 5 18 1 4 3 2 76 
MPPEM[ ]	/* MeasurePixelPerEm */
PUSHB[ ]	/* 1 value pushed */
25 
LT[ ]	/* LessThan */
IF[ ]	/* If */
NPUSHB[ ]	/* 38 values pushed */
0 0 6 3 6 0 3 128 0 6 0 3 4 6 3 103 0 5 5 1 95 0 1 1 17 77 0 4 4 2 95 7 1 2 2 21 2 78 
ELSE[ ]	/* Else */
NPUSHB[ ]	/* 36 values pushed */
0 0 6 3 6 0 3 128 0 1 0 5 6 1 5 103 0 6 0 3 4 6 3 103 0 4 4 2 95 7 1 2 2 21 2 78 
EIF[ ]	/* EndIf */
NPUSHB[ ]	/* 19 values pushed */
0 0 43 41 35 33 32 30 24 22 0 21 0 19 37 53 8 7 24 
CALL[ ]	/* CallFunction */";
};
width = 804;
}
);
metricLeft = H;
note = B;
unicode = 66;
}
{
glyphname = C;
kernLeft = C;
kernRight = C;
layers = (
{
anchors = (
{
name = bottom;
pos = (440,0);
},
{
name = top;
pos = (430,700);
}
);
layerId = m01;
shapes = (
{
closed = 1;
nodes = (
(276,25,o),
(154,140,o),
(154,350,cs),
(154,560,o),
(270,680,o),
(430,680,cs),
(563,680,o),
(668,620,o),
(761,402,c),
(764,403,l),
(706,697,l),
(704,697,l),
(659,634,l),
(598,686,o),
(528,715,o),
(427,715,cs),
(222,715,o),
(54,575,o),
(54,354,cs),
(54,125,o),
(232,-15,o),
(439,-15,cs),
(594,-15,o),
(714,70,o),
(770,207,c),
(736,221,l),
(682,101,o),
(592,25,o),
(449,25,cs)
);
}
);
userData = {
assembly = "NPUSHB[ ]	/* 41 values pushed */
15 1 2 1 33 32 17 14 4 3 2 2 76 0 2 2 1 97 0 1 1 17 77 0 3 3 0 97 0 0 0 27 0 78 38 40 38 34 4 7 26 
CALL[ ]	/* CallFunction */";
};
width = 819;
},
{
anchors = (
{
name = bottom;
pos = (516,-15);
},
{
name = top;
pos = (439,700);
}
);
layerId = "03DC8633-12B9-4C09-834B-15CC0827035A";
shapes = (
{
closed = 1;
nodes = (
(837,629,l),
(744,681,o),
(628,715,o),
(496,715,cs),
(269,715,o),
(50,584,o),
(50,353,cs),
(50,109,o),
(269,-15,o),
(516,-15,cs),
(654,-15,o),
(761,17,o),
(834,63,c),
(761,191,l),
(702,148,o),
(633,125,o),
(518,125,cs),
(341,125,o),
(235,200,o),
(235,353,cs),
(235,496,o),
(344,575,o),
(518,575,cs),
(613,575,o),
(688,550,o),
(761,499,c)
);
}
);
userData = {
assembly = "NPUSHB[ ]	/* 15 values pushed */
24 1 0 3 25 10 2 1 0 11 1 2 1 3 76 
MPPEM[ ]	/* MeasurePixelPerEm */
PUSHB[ ]	/* 1 value pushed */
38 
LT[ ]	/* LessThan */
IF[ ]	/* If */
NPUSHB[ ]	/* 21 values pushed */
0 0 0 3 97 0 3 3 23 77 0 1 1 2 97 0 2 2 24 2 78 
ELSE[ ]	/* Else */
MPPEM[ ]	/* MeasurePixelPerEm */
PUSHB[ ]	/* 1 value pushed */
42 
LT[ ]	/* LessThan */
IF[ ]	/* If */
NPUSHB[ ]	/* 21 values pushed */
0 0 0 3 97 0 3 3 19 77 0 1 1 2 97 0 2 2 24 2 78 
ELSE[ ]	/* Else */
MPPEM[ ]	/* MeasurePixelPerEm */
PUSHB[ ]	/* 1 value pushed */
49 
LT[ ]	/* LessThan */
IF[ ]	/* If */
NPUSHB[ ]	/* 18 values pushed */
0 1 0 2 1 2 101 0 0 0 3 97 0 3 3 19 0 78 
ELSE[ ]	/* Else */
NPUSHB[ ]	/* 24 values pushed */
0 3 0 0 1 3 0 105 0 1 2 2 1 89 0 1 1 2 97 0 2 1 2 81 
EIF[ ]	/* EndIf */
EIF[ ]	/* EndIf */
EIF[ ]	/* EndIf */
PUSHB[ ]	/* 7 values pushed */
38 36 36 32 4 7 26 
CALL[ ]	/* CallFunction */";
};
width = 882;
},
{
associatedMasterId = m01;
layerId = "05268723-59E2-4209-B190-C8C69F2B015C";
name = "11 feb 22, 17:54";
shapes = (
{
closed = 1;
nodes = (
(695,217,l),
(647,97,o),
(540.333,26,o),
(415,26,cs),
(252.545,26,o),
(130,151.73,o),
(130,321,cs),
(130,496,o),
(218,639,o),
(398,639,cs),
(523.333,639,o),
(618.667,574,o),
(712,406,c),
(715,407,l),
(657,651,l),
(655,651,l),
(610,588,l),
(548.667,640,o),
(469.333,669,o),
(380,669,cs),
(183,669,o),
(20,514,o),
(20,321,cs),
(20,142,o),
(181,-17,o),
(388,-17,cs),
(543.328,-17,o),
(675.064,68.104,o),
(722,205,c)
);
}
);
userData = {
assembly = "NPUSHB[ ]	/* 41 values pushed */
15 1 2 1 33 32 17 14 4 3 2 2 76 0 2 2 1 97 0 1 1 17 77 0 3 3 0 97 0 0 0 27 0 78 38 40 38 34 4 7 26 
CALL[ ]	/* CallFunction */";
};
width = 732;
}
);
metricLeft = "=O";
metricRight = "=O-5";
note = C;
unicode = 67;
}
{
glyphname = D;
kernLeft = D;
kernRight = D;
layers = (
{
anchors = (
{
name = bottom;
pos = (420,0);
},
{
name = center;
pos = (420,350);
},
{
name = top;
pos = (420,700);
}
);
layerId = m01;
shapes = (
{
closed = 1;
nodes = (
(40,0,l),
(40,2,l),
(168,74,l),
(169,625,l),
(40,698,l),
(40,700,l),
(393,700,ls),
(608,700,o),
(787,575,o),
(787,364,cs),
(787,134,o),
(604,0,o),
(393,0,cs)
);
},
{
closed = 1;
nodes = (
(413,29,ls),
(548,29,o),
(687,143,o),
(687,364,cs),
(687,565,o),
(549,672,o),
(413,672,cs),
(252,672,l),
(252,29,l)
);
}
);
userData = {
assembly = "PUSHB[ ]	/* 7 values pushed */
11 10 2 3 2 1 76 
MPPEM[ ]	/* MeasurePixelPerEm */
PUSHB[ ]	/* 1 value pushed */
25 
LT[ ]	/* LessThan */
IF[ ]	/* If */
NPUSHB[ ]	/* 22 values pushed */
0 2 2 0 95 0 0 0 17 77 0 3 3 1 95 4 1 1 1 21 1 78 
ELSE[ ]	/* Else */
NPUSHB[ ]	/* 20 values pushed */
0 0 0 2 3 0 2 103 0 3 3 1 95 4 1 1 1 21 1 78 
EIF[ ]	/* EndIf */
NPUSHB[ ]	/* 14 values pushed */
0 0 23 21 17 15 0 14 0 12 38 5 7 23 
CALL[ ]	/* CallFunction */";
};
width = 841;
},
{
anchors = (
{
name = bottom;
pos = (512,0);
},
{
name = center;
pos = (512,350);
},
{
name = top;
pos = (472,700);
}
);
layerId = "03DC8633-12B9-4C09-834B-15CC0827035A";
shapes = (
{
closed = 1;
nodes = (
(811,0,o),
(973,136,o),
(973,357,cs),
(973,570,o),
(812,700,o),
(491,700,cs),
(100,700,l),
(100,0,l),
(491,0,ls)
);
},
{
closed = 1;
nodes = (
(272,570,l),
(491,570,ls),
(696,570,o),
(786,512,o),
(786,354,cs),
(786,194,o),
(696,134,o),
(491,134,cs),
(272,134,l)
);
}
);
userData = {
assembly = "MPPEM[ ]	/* MeasurePixelPerEm */
PUSHB[ ]	/* 1 value pushed */
38 
LT[ ]	/* LessThan */
IF[ ]	/* If */
NPUSHB[ ]	/* 22 values pushed */
0 2 2 0 95 0 0 0 17 77 0 3 3 1 95 4 1 1 1 18 1 78 
ELSE[ ]	/* Else */
MPPEM[ ]	/* MeasurePixelPerEm */
PUSHB[ ]	/* 1 value pushed */
42 
LT[ ]	/* LessThan */
IF[ ]	/* If */
NPUSHB[ ]	/* 20 values pushed */
0 0 0 2 3 0 2 103 0 3 3 1 95 4 1 1 1 18 1 78 
ELSE[ ]	/* Else */
NPUSHB[ ]	/* 25 values pushed */
0 0 0 2 3 0 2 103 0 3 1 1 3 87 0 3 3 1 95 4 1 1 3 1 79 
EIF[ ]	/* EndIf */
EIF[ ]	/* EndIf */
NPUSHB[ ]	/* 14 values pushed */
0 0 21 19 13 11 0 10 0 9 38 5 7 23 
CALL[ ]	/* CallFunction */";
};
width = 1023;
},
{
associatedMasterId = m01;
layerId = "73B7196C-D13D-4E07-8CD8-6DA40023D8B9";
name = "11 feb 22, 17:45";
shapes = (
{
closed = 1;
nodes = (
(35,0,l),
(35,2,l),
(163,74,l),
(164,575,l),
(35,648,l),
(35,650,l),
(374,650,ls),
(648.517,650,o),
(815,531.793,o),
(815,325,cs),
(815,122.977,o),
(645.412,0,o),
(374,0,cs)
);
},
{
closed = 1;
nodes = (
(394,24,ls),
(588.667,24,o),
(698,131.667,o),
(698,325,cs),
(698,522.333,o),
(590,627,o),
(394,627,cs),
(243,627,l),
(243,24,l)
);
}
);
userData = {
assembly = "PUSHB[ ]	/* 7 values pushed */
11 10 2 3 2 1 76 
MPPEM[ ]	/* MeasurePixelPerEm */
PUSHB[ ]	/* 1 value pushed */
25 
LT[ ]	/* LessThan */
IF[ ]	/* If */
NPUSHB[ ]	/* 22 values pushed */
0 2 2 0 95 0 0 0 17 77 0 3 3 1 95 4 1 1 1 21 1 78 
ELSE[ ]	/* Else */
NPUSHB[ ]	/* 20 values pushed */
0 0 0 2 3 0 2 103 0 3 3 1 95 4 1 1 1 21 1 78 
EIF[ ]	/* EndIf */
NPUSHB[ ]	/* 14 values pushed */
0 0 23 21 17 15 0 14 0 12 38 5 7 23 
CALL[ ]	/* CallFunction */";
};
width = 835;
}
);
metricLeft = H;
metricRight = "=O";
note = D;
unicode = 68;
}
{
glyphname = E;
kernLeft = E;
kernRight = E;
layers = (
{
anchors = (
{
name = bottom;
pos = (394,0);
},
{
name = ogonek;
pos = (620,0);
},
{
name = top;
pos = (394,700);
},
{
name = topleft;
pos = (23,700);
}
);
layerId = m01;
shapes = (
{
closed = 1;
nodes = (
(148,62,l),
(40,3,l),
(40,0,l),
(620,0,l),
(659,-31,l),
(661,-31,l),
(774,256,l),
(772,256,l),
(572,31,l),
(231,31,l),
(231,341,l),
(489,341,l),
(569,222,l),
(571,222,l),
(571,492,l),
(569,492,l),
(489,373,l),
(231,373,l),
(231,670,l),
(570,670,l),
(750,491,l),
(752,493,l),
(649,720,l),
(647,720,l),
(603,700,l),
(45,700,l),
(45,698,l),
(148,638,l)
);
}
);
userData = {
assembly = "NPUSHB[ ]	/* 22 values pushed */
27 11 5 3 2 1 26 19 13 3 4 3 2 76 3 1 0 74 21 1 5 73 
MPPEM[ ]	/* MeasurePixelPerEm */
PUSHB[ ]	/* 1 value pushed */
25 
LT[ ]	/* LessThan */
IF[ ]	/* If */
NPUSHB[ ]	/* 29 values pushed */
0 2 0 3 4 2 3 103 0 1 1 0 95 0 0 0 17 77 0 4 4 5 95 0 5 5 21 5 78 
ELSE[ ]	/* Else */
NPUSHB[ ]	/* 27 values pushed */
0 0 0 1 2 0 1 103 0 2 0 3 4 2 3 103 0 4 4 5 95 0 5 5 21 5 78 
EIF[ ]	/* EndIf */
NPUSHB[ ]	/* 9 values pushed */
21 17 21 17 21 32 6 7 28 
CALL[ ]	/* CallFunction */";
};
width = 784;
},
{
anchors = (
{
name = bottom;
pos = (515,0);
},
{
name = ogonek;
pos = (910,10);
},
{
name = top;
pos = (515,700);
},
{
name = topleft;
pos = (40,700);
}
);
layerId = "03DC8633-12B9-4C09-834B-15CC0827035A";
shapes = (
{
closed = 1;
nodes = (
(100,0,l),
(919,0,l),
(919,140,l),
(274,140,l),
(274,291,l),
(782,291,l),
(782,431,l),
(274,431,l),
(274,560,l),
(911,560,l),
(911,700,l),
(100,700,l)
);
}
);
userData = {
assembly = "MPPEM[ ]	/* MeasurePixelPerEm */
PUSHB[ ]	/* 1 value pushed */
38 
LT[ ]	/* LessThan */
IF[ ]	/* If */
NPUSHB[ ]	/* 30 values pushed */
0 1 0 2 3 1 2 103 0 0 0 5 95 6 1 5 5 17 77 0 3 3 4 95 0 4 4 18 4 78 
ELSE[ ]	/* Else */
MPPEM[ ]	/* MeasurePixelPerEm */
PUSHB[ ]	/* 1 value pushed */
42 
LT[ ]	/* LessThan */
IF[ ]	/* If */
NPUSHB[ ]	/* 28 values pushed */
6 1 5 0 0 1 5 0 103 0 1 0 2 3 1 2 103 0 3 3 4 95 0 4 4 18 4 78 
ELSE[ ]	/* Else */
NPUSHB[ ]	/* 33 values pushed */
6 1 5 0 0 1 5 0 103 0 1 0 2 3 1 2 103 0 3 4 4 3 87 0 3 3 4 95 0 4 3 4 79 
EIF[ ]	/* EndIf */
EIF[ ]	/* EndIf */
NPUSHB[ ]	/* 14 values pushed */
0 0 0 11 0 11 17 17 17 17 17 7 7 27 
CALL[ ]	/* CallFunction */";
};
width = 1009;
}
);
metricLeft = H;
note = E;
unicode = 69;
}
{
glyphname = F;
kernLeft = F;
kernRight = F;
layers = (
{
layerId = m01;
shapes = (
{
closed = 1;
nodes = (
(148,73,l),
(40,3,l),
(40,0,l),
(381,0,l),
(381,3,l),
(231,73,l),
(231,331,l),
(489,331,l),
(569,209,l),
(571,209,l),
(571,480,l),
(569,480,l),
(489,363,l),
(231,363,l),
(231,669,l),
(580,669,l),
(740,491,l),
(742,493,l),
(639,720,l),
(637,720,l),
(593,700,l),
(45,700,l),
(45,698,l),
(148,638,l)
);
}
);
userData = {
assembly = "NPUSHB[ ]	/* 18 values pushed */
23 11 5 3 2 1 22 17 13 3 4 3 2 76 3 1 0 74 
MPPEM[ ]	/* MeasurePixelPerEm */
PUSHB[ ]	/* 1 value pushed */
25 
LT[ ]	/* LessThan */
IF[ ]	/* If */
NPUSHB[ ]	/* 24 values pushed */
0 2 0 3 4 2 3 103 0 1 1 0 95 0 0 0 17 77 0 4 4 21 4 78 
ELSE[ ]	/* Else */
NPUSHB[ ]	/* 22 values pushed */
0 0 0 1 2 0 1 103 0 2 0 3 4 2 3 103 0 4 4 21 4 78 
EIF[ ]	/* EndIf */
PUSHB[ ]	/* 8 values pushed */
34 21 17 21 32 5 7 27 
CALL[ ]	/* CallFunction */";
};
width = 762;
},
{
layerId = "03DC8633-12B9-4C09-834B-15CC0827035A";
shapes = (
{
closed = 1;
nodes = (
(100,0,l),
(274,0,l),
(274,271,l),
(742,271,l),
(742,411,l),
(274,411,l),
(274,560,l),
(891,560,l),
(891,700,l),
(100,700,l)
);
}
);
userData = {
assembly = "MPPEM[ ]	/* MeasurePixelPerEm */
PUSHB[ ]	/* 1 value pushed */
38 
LT[ ]	/* LessThan */
IF[ ]	/* If */
NPUSHB[ ]	/* 25 values pushed */
0 1 0 2 3 1 2 103 0 0 0 4 95 5 1 4 4 17 77 0 3 3 18 3 78 
ELSE[ ]	/* Else */
MPPEM[ ]	/* MeasurePixelPerEm */
PUSHB[ ]	/* 1 value pushed */
42 
LT[ ]	/* LessThan */
IF[ ]	/* If */
NPUSHB[ ]	/* 23 values pushed */
5 1 4 0 0 1 4 0 103 0 1 0 2 3 1 2 103 0 3 3 18 3 78 
ELSE[ ]	/* Else */
NPUSHB[ ]	/* 30 values pushed */
0 3 2 3 134 5 1 4 0 0 1 4 0 103 0 1 2 2 1 87 0 1 1 2 95 0 2 1 2 79 
EIF[ ]	/* EndIf */
EIF[ ]	/* EndIf */
NPUSHB[ ]	/* 13 values pushed */
0 0 0 9 0 9 17 17 17 17 6 7 26 
CALL[ ]	/* CallFunction */";
};
width = 981;
}
);
metricLeft = H;
note = F;
unicode = 70;
}
{
glyphname = G;
kernLeft = C;
kernRight = C;
layers = (
{
anchors = (
{
name = bottom;
pos = (431,0);
},
{
name = top;
pos = (431,650);
}
);
layerId = m01;
shapes = (
{
closed = 1;
nodes = (
(749,3,l),
(751,3,l),
(751,290,l),
(829,344,l),
(460,344,l),
(460,342,l),
(661,290,l),
(661,123,l),
(606,64,o),
(540,24,o),
(448,24,cs),
(275,24,o),
(154,139,o),
(154,354,cs),
(154,557,o),
(274,681,o),
(434,681,cs),
(564,681,o),
(668,620,o),
(761,452,c),
(764,453,l),
(710,697,l),
(708,697,l),
(659,634,l),
(598,686,o),
(528,715,o),
(427,715,cs),
(232,715,o),
(54,572,o),
(54,352,cs),
(54,124,o),
(232,-15,o),
(434,-15,cs),
(533,-15,o),
(614,24,o),
(700,109,c)
);
}
);
userData = {
assembly = "NPUSHB[ ]	/* 59 values pushed */
19 1 2 1 21 18 2 4 2 37 36 4 1 4 3 4 2 1 0 3 4 76 0 4 2 3 2 4 3 128 0 2 2 1 97 0 1 1 17 77 0 3 3 0 97 0 0 0 27 0 78 36 38 40 38 38 5 7 27 
CALL[ ]	/* CallFunction */";
};
width = 873;
},
{
anchors = (
{
name = bottom;
pos = (516,0);
},
{
name = top;
pos = (476,700);
}
);
layerId = "03DC8633-12B9-4C09-834B-15CC0827035A";
shapes = (
{
closed = 1;
nodes = (
(911,381,l),
(561,381,l),
(561,261,l),
(771,261,l),
(771,187,l),
(730,144,o),
(633,123,o),
(524,123,cs),
(333,123,o),
(235,215,o),
(235,359,cs),
(235,519,o),
(386,580,o),
(543,580,cs),
(651,580,o),
(741,559,o),
(808,502,c),
(883,634,l),
(811,681,o),
(665,720,o),
(524,720,cs),
(274,720,o),
(50,599,o),
(50,354,cs),
(50,134,o),
(228,-17,o),
(514,-17,cs),
(683,-17,o),
(799,16,o),
(911,105,c)
);
}
);
userData = {
assembly = "NPUSHB[ ]	/* 18 values pushed */
13 1 2 1 14 1 5 2 27 1 3 4 32 1 0 3 4 76 
MPPEM[ ]	/* MeasurePixelPerEm */
PUSHB[ ]	/* 1 value pushed */
38 
LT[ ]	/* LessThan */
IF[ ]	/* If */
NPUSHB[ ]	/* 29 values pushed */
0 5 0 4 3 5 4 103 0 2 2 1 97 0 1 1 23 77 0 3 3 0 97 0 0 0 24 0 78 
ELSE[ ]	/* Else */
MPPEM[ ]	/* MeasurePixelPerEm */
PUSHB[ ]	/* 1 value pushed */
42 
LT[ ]	/* LessThan */
IF[ ]	/* If */
NPUSHB[ ]	/* 29 values pushed */
0 5 0 4 3 5 4 103 0 2 2 1 97 0 1 1 19 77 0 3 3 0 97 0 0 0 24 0 78 
ELSE[ ]	/* Else */
MPPEM[ ]	/* MeasurePixelPerEm */
PUSHB[ ]	/* 1 value pushed */
49 
LT[ ]	/* LessThan */
IF[ ]	/* If */
NPUSHB[ ]	/* 26 values pushed */
0 5 0 4 3 5 4 103 0 3 0 0 3 0 101 0 2 2 1 97 0 1 1 19 2 78 
ELSE[ ]	/* Else */
NPUSHB[ ]	/* 32 values pushed */
0 1 0 2 5 1 2 105 0 5 0 4 3 5 4 103 0 3 0 0 3 89 0 3 3 0 97 0 0 3 0 81 
EIF[ ]	/* EndIf */
EIF[ ]	/* EndIf */
EIF[ ]	/* EndIf */
NPUSHB[ ]	/* 9 values pushed */
17 19 37 37 38 33 6 7 28 
CALL[ ]	/* CallFunction */";
};
width = 951;
},
{
associatedMasterId = m01;
layerId = "B1471268-6B0D-4B4E-AE6E-04908D48F334";
name = "11 feb 22, 18:06";
shapes = (
{
closed = 1;
nodes = (
(420,334,l),
(420,332,l),
(641,272,l),
(641,120,l),
(581,58.667,o),
(500.333,22,o),
(415,22,cs),
(242,22,o),
(131,160,o),
(131,333,cs),
(131,508,o),
(219,639,o),
(396,639,cs),
(520,639,o),
(622.333,575.333,o),
(713,406,c),
(715,408,l),
(657,650,l),
(655,650,l),
(610,588,l),
(552.667,634.667,o),
(472,669,o),
(376,669,cs),
(173,669,o),
(20,501,o),
(20,312,cs),
(20,118,o),
(198,-14,o),
(392,-14,cs),
(518.667,-14,o),
(614.667,41.333,o),
(680,120,c),
(729,3,l),
(731,3,l),
(731,272,l),
(809,334,l)
);
}
);
userData = {
assembly = "NPUSHB[ ]	/* 59 values pushed */
19 1 2 1 21 18 2 4 2 37 36 4 1 4 3 4 2 1 0 3 4 76 0 4 2 3 2 4 3 128 0 2 2 1 97 0 1 1 17 77 0 3 3 0 97 0 0 0 27 0 78 36 38 40 38 38 5 7 27 
CALL[ ]	/* CallFunction */";
};
width = 819;
}
);
metricLeft = "=O";
metricRight = "=O-10";
note = G;
unicode = 71;
}
{
glyphname = H;
kernLeft = H;
kernRight = H;
layers = (
{
layerId = m01;
shapes = (
{
closed = 1;
nodes = (
(708,72,l),
(598,4,l),
(598,0,l),
(899,0,l),
(899,4,l),
(791,72,l),
(791,628,l),
(899,699,l),
(899,700,l),
(598,700,l),
(598,699,l),
(708,628,l)
);
},
{
closed = 1;
nodes = (
(233,628,l),
(341,696,l),
(341,700,l),
(40,700,l),
(40,696,l),
(150,628,l),
(150,72,l),
(40,4,l),
(40,0,l),
(341,0,l),
(341,4,l),
(233,72,l)
);
},
{
closed = 1;
nodes = (
(715,381,l),
(226,381,l),
(226,349,l),
(715,349,l)
);
}
);
userData = {
assembly = "NPUSHB[ ]	/* 16 values pushed */
25 10 5 2 4 0 1 24 19 16 11 4 2 3 2 76 
MPPEM[ ]	/* MeasurePixelPerEm */
PUSHB[ ]	/* 1 value pushed */
23 
LT[ ]	/* LessThan */
IF[ ]	/* If */
NPUSHB[ ]	/* 22 values pushed */
0 0 0 3 2 0 3 103 6 5 2 1 1 17 77 4 1 2 2 21 2 78 
ELSE[ ]	/* Else */
NPUSHB[ ]	/* 22 values pushed */
6 5 2 1 0 1 133 0 0 0 3 2 0 3 103 4 1 2 2 21 2 78 
EIF[ ]	/* EndIf */
NPUSHB[ ]	/* 14 values pushed */
0 0 0 27 0 26 34 19 36 34 19 7 7 27 
CALL[ ]	/* CallFunction */";
};
width = 939;
},
{
layerId = "03DC8633-12B9-4C09-834B-15CC0827035A";
shapes = (
{
closed = 1;
nodes = (
(100,0,l),
(274,0,l),
(274,295,l),
(769,295,l),
(769,0,l),
(943,0,l),
(943,700,l),
(769,700,l),
(769,435,l),
(274,435,l),
(274,700,l),
(100,700,l)
);
}
);
userData = {
assembly = "MPPEM[ ]	/* MeasurePixelPerEm */
PUSHB[ ]	/* 1 value pushed */
38 
LT[ ]	/* LessThan */
IF[ ]	/* If */
NPUSHB[ ]	/* 22 values pushed */
0 0 0 3 2 0 3 103 6 5 2 1 1 17 77 4 1 2 2 18 2 78 
ELSE[ ]	/* Else */
MPPEM[ ]	/* MeasurePixelPerEm */
PUSHB[ ]	/* 1 value pushed */
42 
LT[ ]	/* LessThan */
IF[ ]	/* If */
NPUSHB[ ]	/* 22 values pushed */
0 0 0 3 2 0 3 103 6 5 2 1 1 2 95 4 1 2 2 18 2 78 
ELSE[ ]	/* Else */
NPUSHB[ ]	/* 29 values pushed */
6 5 2 1 0 2 1 87 0 0 0 3 2 0 3 103 6 5 2 1 1 2 95 4 1 2 1 2 79 
EIF[ ]	/* EndIf */
EIF[ ]	/* EndIf */
NPUSHB[ ]	/* 14 values pushed */
0 0 0 11 0 11 17 17 17 17 17 7 7 27 
CALL[ ]	/* CallFunction */";
};
width = 1043;
}
);
note = H;
unicode = 72;
}
{
glyphname = I;
kernLeft = I;
kernRight = I;
layers = (
{
anchors = (
{
name = bottom;
pos = (216,0);
},
{
name = ogonek;
pos = (391,0);
},
{
name = top;
pos = (216,700);
},
{
name = topleft;
pos = (18,700);
}
);
layerId = m01;
metricLeft = "=H";
metricRight = "=H";
shapes = (
{
closed = 1;
nodes = (
(176,628,l),
(176,72,l),
(40,2,l),
(40,0,l),
(392,0,l),
(392,2,l),
(256,72,l),
(256,628,l),
(392,698,l),
(392,700,l),
(40,700,l),
(40,699,l)
);
}
);
userData = {
assembly = "NPUSHB[ ]	/* 9 values pushed */
9 8 3 2 4 0 1 1 76 
MPPEM[ ]	/* MeasurePixelPerEm */
PUSHB[ ]	/* 1 value pushed */
25 
LT[ ]	/* LessThan */
IF[ ]	/* If */
NPUSHB[ ]	/* 12 values pushed */
2 1 1 1 17 77 0 0 0 21 0 78 
ELSE[ ]	/* Else */
NPUSHB[ ]	/* 12 values pushed */
2 1 1 0 1 133 0 0 0 21 0 78 
EIF[ ]	/* EndIf */
NPUSHB[ ]	/* 10 values pushed */
0 0 0 11 0 10 36 3 7 23 
CALL[ ]	/* CallFunction */";
};
width = 432;
},
{
anchors = (
{
name = bottom;
pos = (205,0);
},
{
name = ogonek;
pos = (290,0);
},
{
name = top;
pos = (205,700);
},
{
name = topleft;
pos = (60,700);
}
);
layerId = "03DC8633-12B9-4C09-834B-15CC0827035A";
metricLeft = "=H+20";
metricRight = "=H+20";
shapes = (
{
closed = 1;
nodes = (
(120,700,l),
(120,0,l),
(290,0,l),
(290,700,l)
);
}
);
userData = {
assembly = "MPPEM[ ]	/* MeasurePixelPerEm */
PUSHB[ ]	/* 1 value pushed */
38 
LT[ ]	/* LessThan */
IF[ ]	/* If */
NPUSHB[ ]	/* 11 values pushed */
0 1 1 17 77 0 0 0 18 0 78 
ELSE[ ]	/* Else */
MPPEM[ ]	/* MeasurePixelPerEm */
PUSHB[ ]	/* 1 value pushed */
42 
LT[ ]	/* LessThan */
IF[ ]	/* If */
NPUSHB[ ]	/* 11 values pushed */
0 1 1 0 95 0 0 0 18 0 78 
ELSE[ ]	/* Else */
NPUSHB[ ]	/* 16 values pushed */
0 1 0 0 1 87 0 1 1 0 95 0 0 1 0 79 
EIF[ ]	/* EndIf */
EIF[ ]	/* EndIf */
PUSHB[ ]	/* 5 values pushed */
17 16 2 7 24 
CALL[ ]	/* CallFunction */";
};
width = 410;
}
);
metricLeft = H;
metricRight = H;
note = I;
unicode = 73;
}
{
glyphname = J;
kernLeft = J;
kernRight = J;
layers = (
{
layerId = m01;
shapes = (
{
closed = 1;
nodes = (
(113,218,l),
(115,218,l),
(140,85,o),
(186,15,o),
(286,15,cs),
(368,15,o),
(423,62,o),
(423,210,cs),
(423,630,l),
(262,698,l),
(262,700,l),
(618,700,l),
(618,698,l),
(504,630,l),
(504,216,ls),
(504,60,o),
(402,-14,o),
(277,-14,cs),
(157,-14,o),
(85,51,o),
(36,124,c)
);
}
);
userData = {
assembly = "NPUSHB[ ]	/* 9 values pushed */
22 20 12 7 4 2 1 1 76 
MPPEM[ ]	/* MeasurePixelPerEm */
PUSHB[ ]	/* 1 value pushed */
25 
LT[ ]	/* LessThan */
IF[ ]	/* If */
NPUSHB[ ]	/* 16 values pushed */
0 1 1 17 77 0 2 2 0 97 0 0 0 27 0 78 
ELSE[ ]	/* Else */
NPUSHB[ ]	/* 16 values pushed */
0 1 2 1 133 0 2 2 0 97 0 0 0 27 0 78 
EIF[ ]	/* EndIf */
PUSHB[ ]	/* 6 values pushed */
37 37 33 3 7 25 
CALL[ ]	/* CallFunction */";
};
width = 658;
},
{
layerId = "03DC8633-12B9-4C09-834B-15CC0827035A";
shapes = (
{
closed = 1;
nodes = (
(445,-16,o),
(578,111,o),
(578,359,cs),
(578,700,l),
(405,700,l),
(405,344,ls),
(405,193,o),
(354,134,o),
(229,134,cs),
(158,134,o),
(73,155,o),
(20,187,c),
(20,23,l),
(63,0,o),
(148,-16,o),
(229,-16,cs)
);
}
);
userData = {
assembly = "NPUSHB[ ]	/* 10 values pushed */
3 1 0 1 2 1 2 0 2 76 
MPPEM[ ]	/* MeasurePixelPerEm */
PUSHB[ ]	/* 1 value pushed */
38 
LT[ ]	/* LessThan */
IF[ ]	/* If */
NPUSHB[ ]	/* 17 values pushed */
0 1 1 17 77 0 0 0 2 97 3 1 2 2 24 2 78 
ELSE[ ]	/* Else */
MPPEM[ ]	/* MeasurePixelPerEm */
PUSHB[ ]	/* 1 value pushed */
42 
LT[ ]	/* LessThan */
IF[ ]	/* If */
NPUSHB[ ]	/* 17 values pushed */
0 1 0 1 133 0 0 0 2 97 3 1 2 2 24 2 78 
ELSE[ ]	/* Else */
NPUSHB[ ]	/* 22 values pushed */
0 1 0 1 133 0 0 2 2 0 89 0 0 0 2 97 3 1 2 0 2 81 
EIF[ ]	/* EndIf */
EIF[ ]	/* EndIf */
NPUSHB[ ]	/* 11 values pushed */
0 0 0 15 0 14 19 37 4 7 24 
CALL[ ]	/* CallFunction */";
};
width = 678;
},
{
associatedMasterId = m01;
layerId = "CAC7171E-95B1-496D-825E-D35E1FE97C85";
name = "11 feb 22, 18:09";
shapes = (
{
closed = 1;
nodes = (
(46,216,l),
(48,216,l),
(58,94,o),
(143,12,o),
(265,12,cs),
(378.333,12,o),
(433,76,o),
(433,224,cs),
(433,586,l),
(322,648,l),
(322,650,l),
(635,650,l),
(635,648,l),
(521,586,l),
(521,224,ls),
(521,78.441,o),
(412.146,-14,o),
(255,-14,cs),
(116.333,-14,o),
(38.667,58.333,o),
(0,121,c)
);
}
);
userData = {
assembly = "NPUSHB[ ]	/* 9 values pushed */
22 20 12 7 4 2 1 1 76 
MPPEM[ ]	/* MeasurePixelPerEm */
PUSHB[ ]	/* 1 value pushed */
25 
LT[ ]	/* LessThan */
IF[ ]	/* If */
NPUSHB[ ]	/* 16 values pushed */
0 1 1 17 77 0 2 2 0 97 0 0 0 27 0 78 
ELSE[ ]	/* Else */
NPUSHB[ ]	/* 16 values pushed */
0 1 2 1 133 0 2 2 0 97 0 0 0 27 0 78 
EIF[ ]	/* EndIf */
PUSHB[ ]	/* 6 values pushed */
37 37 33 3 7 25 
CALL[ ]	/* CallFunction */";
};
width = 670;
}
);
metricRight = H;
note = J;
unicode = 74;
}
{
glyphname = K;
kernLeft = K;
kernRight = K;
layers = (
{
anchors = (
{
name = bottom;
pos = (424,0);
},
{
name = top;
pos = (404,700);
}
);
layerId = m01;
shapes = (
{
closed = 1;
nodes = (
(232,632,l),
(344,698,l),
(344,700,l),
(40,700,l),
(40,699,l),
(152,632,l),
(152,69,l),
(40,2,l),
(40,0,l),
(343,0,l),
(343,2,l),
(232,69,l)
);
},
{
closed = 1;
nodes = (
(579,60,l),
(529,2,l),
(529,0,l),
(803,0,l),
(803,2,l),
(664,72,l),
(374,415,l),
(280,415,l)
);
},
{
closed = 1;
nodes = (
(225,267,l),
(616,625,l),
(791,698,l),
(791,700,l),
(490,700,l),
(490,698,l),
(567,629,l),
(225,313,l)
);
}
);
userData = {
assembly = "NPUSHB[ ]	/* 19 values pushed */
28 7 2 3 0 1 27 22 21 20 19 13 4 3 8 2 0 2 76 
MPPEM[ ]	/* MeasurePixelPerEm */
PUSHB[ ]	/* 1 value pushed */
25 
LT[ ]	/* LessThan */
IF[ ]	/* If */
NPUSHB[ ]	/* 22 values pushed */
0 0 1 2 1 0 2 128 5 4 2 1 1 17 77 3 1 2 2 21 2 78 
ELSE[ ]	/* Else */
NPUSHB[ ]	/* 19 values pushed */
5 4 2 1 0 1 133 0 0 2 0 133 3 1 2 2 21 2 78 
EIF[ ]	/* EndIf */
NPUSHB[ ]	/* 13 values pushed */
0 0 0 30 0 29 38 37 34 21 6 7 26 
CALL[ ]	/* CallFunction */";
};
width = 810;
},
{
anchors = (
{
name = bottom;
pos = (487,0);
},
{
name = top;
pos = (487,700);
}
);
layerId = "03DC8633-12B9-4C09-834B-15CC0827035A";
shapes = (
{
closed = 1;
nodes = (
(383,336,l),
(654,0,l),
(884,0,l),
(530,430,l)
);
},
{
closed = 1;
nodes = (
(860,700,l),
(619,700,l),
(273,408,l),
(273,700,l),
(100,700,l),
(100,0,l),
(273,0,l),
(273,203,l)
);
}
);
userData = {
assembly = "NPUSHB[ ]	/* 9 values pushed */
10 9 6 3 4 2 0 1 76 
MPPEM[ ]	/* MeasurePixelPerEm */
PUSHB[ ]	/* 1 value pushed */
38 
LT[ ]	/* LessThan */
IF[ ]	/* If */
NPUSHB[ ]	/* 14 values pushed */
1 1 0 0 17 77 4 3 2 2 2 18 2 78 
ELSE[ ]	/* Else */
MPPEM[ ]	/* MeasurePixelPerEm */
PUSHB[ ]	/* 1 value pushed */
42 
LT[ ]	/* LessThan */
IF[ ]	/* If */
NPUSHB[ ]	/* 14 values pushed */
1 1 0 0 2 95 4 3 2 2 2 18 2 78 
ELSE[ ]	/* Else */
NPUSHB[ ]	/* 20 values pushed */
1 1 0 2 2 0 87 1 1 0 0 2 95 4 3 2 2 0 2 79 
EIF[ ]	/* EndIf */
EIF[ ]	/* EndIf */
NPUSHB[ ]	/* 12 values pushed */
0 0 0 11 0 11 18 18 17 5 7 25 
CALL[ ]	/* CallFunction */";
};
width = 944;
},
{
associatedMasterId = m01;
layerId = "00734874-B2ED-4E38-B3B8-A940080664A4";
name = "11 feb 22, 18:11";
shapes = (
{
closed = 1;
nodes = (
(146,578,l),
(146,72,l),
(34,2,l),
(34,0,l),
(337,0,l),
(337,2,l),
(226,72,l),
(226,243,l),
(340,335,l),
(583,73,l),
(533,2,l),
(533,0,l),
(817,0,l),
(817,2,l),
(677,77,l),
(393,378,l),
(615,558,l),
(794,648,l),
(794,650,l),
(493,650,l),
(493,648,l),
(570,558,l),
(369,395,l),
(284,395,l),
(320,356,l),
(226,279,l),
(226,578,l),
(338,648,l),
(338,650,l),
(34,650,l),
(34,650,l)
);
}
);
userData = {
assembly = "NPUSHB[ ]	/* 19 values pushed */
28 7 2 3 0 1 27 22 21 20 19 13 4 3 8 2 0 2 76 
MPPEM[ ]	/* MeasurePixelPerEm */
PUSHB[ ]	/* 1 value pushed */
25 
LT[ ]	/* LessThan */
IF[ ]	/* If */
NPUSHB[ ]	/* 22 values pushed */
0 0 1 2 1 0 2 128 5 4 2 1 1 17 77 3 1 2 2 21 2 78 
ELSE[ ]	/* Else */
NPUSHB[ ]	/* 19 values pushed */
5 4 2 1 0 1 133 0 0 2 0 133 3 1 2 2 21 2 78 
EIF[ ]	/* EndIf */
NPUSHB[ ]	/* 13 values pushed */
0 0 0 30 0 29 38 37 34 21 6 7 26 
CALL[ ]	/* CallFunction */";
};
width = 854;
}
);
metricLeft = H;
note = K;
unicode = 75;
}
{
glyphname = L;
kernLeft = L;
kernRight = L;
layers = (
{
anchors = (
{
name = bottom;
pos = (391,0);
},
{
name = center;
pos = (391,325);
},
{
name = top;
pos = (188,700);
},
{
name = topright;
pos = (420,650);
}
);
layerId = m01;
shapes = (
{
closed = 1;
nodes = (
(137,630,l),
(137,75,l),
(63,2,l),
(63,0,l),
(580,0,l),
(618,-34,l),
(620,-34,l),
(738,250,l),
(736,252,l),
(548,35,l),
(220,35,l),
(220,630,l),
(375,698,l),
(375,700,l),
(40,700,l),
(40,699,l)
);
}
);
userData = {
assembly = "NPUSHB[ ]	/* 13 values pushed */
13 12 5 2 4 0 2 1 76 7 1 1 73 
MPPEM[ ]	/* MeasurePixelPerEm */
PUSHB[ ]	/* 1 value pushed */
25 
LT[ ]	/* LessThan */
IF[ ]	/* If */
NPUSHB[ ]	/* 17 values pushed */
3 1 2 2 17 77 0 0 0 1 95 0 1 1 21 1 78 
ELSE[ ]	/* Else */
NPUSHB[ ]	/* 17 values pushed */
3 1 2 0 2 133 0 0 0 1 95 0 1 1 21 1 78 
EIF[ ]	/* EndIf */
NPUSHB[ ]	/* 11 values pushed */
0 0 0 15 0 14 21 19 4 7 24 
CALL[ ]	/* CallFunction */";
};
width = 758;
},
{
anchors = (
{
name = bottom;
pos = (443,0);
},
{
name = center;
pos = (443,350);
},
{
name = top;
pos = (191,700);
},
{
name = topright;
pos = (407,700);
}
);
layerId = "03DC8633-12B9-4C09-834B-15CC0827035A";
shapes = (
{
closed = 1;
nodes = (
(100,700,l),
(100,0,l),
(766,0,l),
(766,140,l),
(274,140,l),
(274,700,l)
);
}
);
userData = {
assembly = "MPPEM[ ]	/* MeasurePixelPerEm */
PUSHB[ ]	/* 1 value pushed */
38 
LT[ ]	/* LessThan */
IF[ ]	/* If */
NPUSHB[ ]	/* 16 values pushed */
0 2 2 17 77 0 0 0 1 96 0 1 1 18 1 78 
ELSE[ ]	/* Else */
MPPEM[ ]	/* MeasurePixelPerEm */
PUSHB[ ]	/* 1 value pushed */
42 
LT[ ]	/* LessThan */
IF[ ]	/* If */
NPUSHB[ ]	/* 16 values pushed */
0 2 0 2 133 0 0 0 1 96 0 1 1 18 1 78 
ELSE[ ]	/* Else */
NPUSHB[ ]	/* 21 values pushed */
0 2 0 2 133 0 0 1 1 0 87 0 0 0 1 96 0 1 0 1 80 
EIF[ ]	/* EndIf */
EIF[ ]	/* EndIf */
PUSHB[ ]	/* 6 values pushed */
17 17 16 3 7 25 
CALL[ ]	/* CallFunction */";
};
width = 806;
}
);
metricLeft = H;
note = L;
unicode = 76;
}
{
glyphname = M;
kernLeft = M;
kernRight = M;
layers = (
{
layerId = m01;
shapes = (
{
closed = 1;
nodes = (
(582,68,l),
(881,643,l),
(881,72,l),
(782,4,l),
(782,0,l),
(1060,0,l),
(1060,4,l),
(961,72,l),
(961,652,l),
(1086,696,l),
(1086,700,l),
(873,700,l),
(559,103,l)
);
},
{
closed = 1;
nodes = (
(272,700,l),
(40,700,l),
(40,695,l),
(164,652,l),
(164,77,l),
(39,0,l),
(39,1,l),
(323,0,l),
(323,4,l),
(198,77,l),
(198,643,l),
(540,0,l),
(645,0,l)
);
}
);
userData = {
assembly = "NPUSHB[ ]	/* 15 values pushed */
22 21 18 17 16 11 10 6 2 1 10 2 0 1 76 
MPPEM[ ]	/* MeasurePixelPerEm */
PUSHB[ ]	/* 1 value pushed */
23 
LT[ ]	/* LessThan */
IF[ ]	/* If */
NPUSHB[ ]	/* 14 values pushed */
1 1 0 0 17 77 4 3 2 2 2 21 2 78 
ELSE[ ]	/* Else */
NPUSHB[ ]	/* 14 values pushed */
1 1 0 2 0 133 4 3 2 2 2 21 2 78 
EIF[ ]	/* EndIf */
PUSHB[ ]	/* 8 values pushed */
35 21 36 18 35 5 7 27 
CALL[ ]	/* CallFunction */";
};
width = 1126;
},
{
layerId = "03DC8633-12B9-4C09-834B-15CC0827035A";
shapes = (
{
closed = 1;
nodes = (
(261,0,l),
(261,480,l),
(535,0,l),
(652,0,l),
(927,480,l),
(927,0,l),
(1088,0,l),
(1088,700,l),
(894,700,l),
(594,173,l),
(294,700,l),
(100,700,l),
(100,0,l)
);
}
);
userData = {
assembly = "PUSHB[ ]	/* 8 values pushed */
10 7 2 3 3 0 1 76 
MPPEM[ ]	/* MeasurePixelPerEm */
PUSHB[ ]	/* 1 value pushed */
38 
LT[ ]	/* LessThan */
IF[ ]	/* If */
NPUSHB[ ]	/* 21 values pushed */
0 3 0 2 0 3 2 128 1 1 0 0 17 77 4 1 2 2 18 2 78 
ELSE[ ]	/* Else */
MPPEM[ ]	/* MeasurePixelPerEm */
PUSHB[ ]	/* 1 value pushed */
42 
LT[ ]	/* LessThan */
IF[ ]	/* If */
NPUSHB[ ]	/* 21 values pushed */
0 3 0 2 0 3 2 128 1 1 0 0 2 95 4 1 2 2 18 2 78 
ELSE[ ]	/* Else */
NPUSHB[ ]	/* 27 values pushed */
0 3 0 2 0 3 2 128 1 1 0 3 2 0 87 1 1 0 0 2 95 4 1 2 0 2 79 
EIF[ ]	/* EndIf */
EIF[ ]	/* EndIf */
PUSHB[ ]	/* 8 values pushed */
18 18 17 18 16 5 7 27 
CALL[ ]	/* CallFunction */";
};
width = 1188;
},
{
associatedMasterId = m01;
layerId = "4968C0BD-F97A-4190-8692-92155336500E";
name = "11 feb 22, 18:14";
shapes = (
{
closed = 1;
nodes = (
(313,0,l),
(313,4,l),
(188,104,l),
(188,592,l),
(516,0,l),
(633,0,l),
(592,70,l),
(901,598,l),
(901,64,l),
(802,4,l),
(802,0,l),
(1080,0,l),
(1080,4,l),
(981,64,l),
(981,602,l),
(1106,646,l),
(1106,650,l),
(901,650,l),
(578,95,l),
(266,650,l),
(36,650,l),
(36,645,l),
(160,602,l),
(160,104,l),
(35,4,l),
(35,0,l),
(35,0,l)
);
}
);
userData = {
assembly = "NPUSHB[ ]	/* 15 values pushed */
22 21 18 17 16 11 10 6 2 1 10 2 0 1 76 
MPPEM[ ]	/* MeasurePixelPerEm */
PUSHB[ ]	/* 1 value pushed */
23 
LT[ ]	/* LessThan */
IF[ ]	/* If */
NPUSHB[ ]	/* 14 values pushed */
1 1 0 0 17 77 4 3 2 2 2 21 2 78 
ELSE[ ]	/* Else */
NPUSHB[ ]	/* 14 values pushed */
1 1 0 2 0 133 4 3 2 2 2 21 2 78 
EIF[ ]	/* EndIf */
PUSHB[ ]	/* 8 values pushed */
35 21 36 18 35 5 7 27 
CALL[ ]	/* CallFunction */";
};
width = 1141;
}
);
metricLeft = H;
metricRight = H;
note = M;
unicode = 77;
}
{
glyphname = N;
kernLeft = N;
kernRight = N;
layers = (
{
anchors = (
{
name = bottom;
pos = (458,0);
},
{
name = top;
pos = (458,700);
}
);
layerId = m01;
shapes = (
{
closed = 1;
nodes = (
(760,58,l),
(760,625,l),
(885,698,l),
(885,700,l),
(600,700,l),
(600,698,l),
(725,625,l),
(725,88,l)
);
},
{
closed = 1;
nodes = (
(270,700,l),
(41,700,l),
(41,698,l),
(165,648,l),
(165,75,l),
(40,2,l),
(40,0,l),
(326,0,l),
(326,2,l),
(201,75,l),
(201,638,l),
(700,0,l),
(811,0,l)
);
}
);
userData = {
assembly = "NPUSHB[ ]	/* 13 values pushed */
20 15 14 11 10 5 4 0 8 2 0 1 76 
MPPEM[ ]	/* MeasurePixelPerEm */
PUSHB[ ]	/* 1 value pushed */
25 
LT[ ]	/* LessThan */
IF[ ]	/* If */
NPUSHB[ ]	/* 13 values pushed */
1 1 0 0 17 77 3 1 2 2 21 2 78 
ELSE[ ]	/* Else */
NPUSHB[ ]	/* 13 values pushed */
1 1 0 2 0 133 3 1 2 2 21 2 78 
EIF[ ]	/* EndIf */
PUSHB[ ]	/* 7 values pushed */
35 20 35 33 4 7 26 
CALL[ ]	/* CallFunction */";
};
width = 915;
},
{
anchors = (
{
name = bottom;
pos = (518,0);
},
{
name = top;
pos = (518,700);
}
);
layerId = "03DC8633-12B9-4C09-834B-15CC0827035A";
shapes = (
{
closed = 1;
nodes = (
(100,4,l),
(110,0,l),
(271,0,l),
(271,497,l),
(726,0,l),
(935,0,l),
(935,700,l),
(765,700,l),
(765,178,l),
(309,700,l),
(100,700,l)
);
}
);
userData = {
assembly = "PUSHB[ ]	/* 8 values pushed */
9 6 1 3 1 0 1 76 
MPPEM[ ]	/* MeasurePixelPerEm */
PUSHB[ ]	/* 1 value pushed */
38 
LT[ ]	/* LessThan */
IF[ ]	/* If */
NPUSHB[ ]	/* 14 values pushed */
4 3 2 0 0 17 77 2 1 1 1 18 1 78 
ELSE[ ]	/* Else */
MPPEM[ ]	/* MeasurePixelPerEm */
PUSHB[ ]	/* 1 value pushed */
42 
LT[ ]	/* LessThan */
IF[ ]	/* If */
NPUSHB[ ]	/* 14 values pushed */
4 3 2 0 0 1 95 2 1 1 1 18 1 78 
ELSE[ ]	/* Else */
NPUSHB[ ]	/* 21 values pushed */
4 3 2 0 1 1 0 87 4 3 2 0 0 1 95 2 1 1 0 1 79 
EIF[ ]	/* EndIf */
EIF[ ]	/* EndIf */
NPUSHB[ ]	/* 12 values pushed */
0 0 0 10 0 10 18 17 18 5 7 25 
CALL[ ]	/* CallFunction */";
};
width = 1025;
}
);
metricLeft = H;
metricRight = "=H-10";
note = N;
unicode = 78;
}
{
glyphname = O;
kernLeft = O;
kernRight = O;
layers = (
{
anchors = (
{
name = bottom;
pos = (450,0);
},
{
name = center;
pos = (450,325);
},
{
name = ogonek;
pos = (770,10);
},
{
name = top;
pos = (450,650);
},
{
name = topleft;
pos = (69,650);
},
{
name = topright;
pos = (830,650);
}
);
layerId = m01;
shapes = (
{
closed = 1;
nodes = (
(669,-15,o),
(842,124,o),
(842,348,cs),
(842,569,o),
(668,715,o),
(448,715,cs),
(227,715,o),
(54,569,o),
(54,348,cs),
(54,124,o),
(227,-15,o),
(448,-15,cs)
);
},
{
closed = 1;
nodes = (
(156,553,o),
(272,685,o),
(448,685,cs),
(625,685,o),
(740,553,o),
(740,348,cs),
(740,139,o),
(625,16,o),
(448,16,cs),
(272,16,o),
(156,139,o),
(156,348,cs)
);
}
);
userData = {
assembly = "NPUSHB[ ]	/* 36 values pushed */
0 3 3 0 97 0 0 0 17 77 0 2 2 1 97 4 1 1 1 27 1 78 0 0 25 23 19 17 0 15 0 14 38 5 7 23 
CALL[ ]	/* CallFunction */";
};
width = 896;
},
{
anchors = (
{
name = bottom;
pos = (529,0);
},
{
name = center;
pos = (529,350);
},
{
name = ogonek;
pos = (939,10);
},
{
name = top;
pos = (529,700);
},
{
name = topleft;
pos = (36,700);
},
{
name = topright;
pos = (1021,700);
}
);
layerId = "03DC8633-12B9-4C09-834B-15CC0827035A";
shapes = (
{
closed = 1;
nodes = (
(769,-15,o),
(1007,104,o),
(1007,353,cs),
(1007,588,o),
(763,715,o),
(529,715,cs),
(289,715,o),
(50,587,o),
(50,353,cs),
(50,98,o),
(293,-15,o),
(529,-15,cs)
);
},
{
closed = 1;
nodes = (
(235,496,o),
(329,575,o),
(529,575,cs),
(730,575,o),
(822,496,o),
(822,350,cs),
(822,189,o),
(730,125,o),
(529,125,cs),
(329,125,o),
(235,189,o),
(235,350,cs)
);
}
);
userData = {
assembly = "MPPEM[ ]	/* MeasurePixelPerEm */
PUSHB[ ]	/* 1 value pushed */
38 
LT[ ]	/* LessThan */
IF[ ]	/* If */
NPUSHB[ ]	/* 22 values pushed */
0 3 3 0 97 0 0 0 23 77 0 2 2 1 97 4 1 1 1 24 1 78 
ELSE[ ]	/* Else */
MPPEM[ ]	/* MeasurePixelPerEm */
PUSHB[ ]	/* 1 value pushed */
42 
LT[ ]	/* LessThan */
IF[ ]	/* If */
NPUSHB[ ]	/* 22 values pushed */
0 3 3 0 97 0 0 0 19 77 0 2 2 1 97 4 1 1 1 24 1 78 
ELSE[ ]	/* Else */
MPPEM[ ]	/* MeasurePixelPerEm */
PUSHB[ ]	/* 1 value pushed */
49 
LT[ ]	/* LessThan */
IF[ ]	/* If */
NPUSHB[ ]	/* 19 values pushed */
0 2 4 1 1 2 1 101 0 3 3 0 97 0 0 0 19 3 78 
ELSE[ ]	/* Else */
NPUSHB[ ]	/* 25 values pushed */
0 0 0 3 2 0 3 105 0 2 1 1 2 89 0 2 2 1 97 4 1 1 2 1 81 
EIF[ ]	/* EndIf */
EIF[ ]	/* EndIf */
EIF[ ]	/* EndIf */
NPUSHB[ ]	/* 14 values pushed */
0 0 24 22 19 17 0 15 0 14 38 5 7 23 
CALL[ ]	/* CallFunction */";
};
width = 1057;
}
);
note = O;
unicode = 79;
}
{
glyphname = P;
kernLeft = P;
kernRight = P;
layers = (
{
layerId = m01;
shapes = (
{
closed = 1;
nodes = (
(164,68,l),
(166,638,l),
(40,698,l),
(40,700,l),
(422,700,ls),
(609,700,o),
(733,639,o),
(733,497,cs),
(733,370,o),
(609,301,o),
(422,301,cs),
(248,301,l),
(248,68,l),
(414,2,l),
(414,0,l),
(40,0,l),
(40,1,l)
);
},
{
closed = 1;
nodes = (
(422,333,ls),
(546,333,o),
(633,388,o),
(633,502,cs),
(633,614,o),
(546,668,o),
(422,668,cs),
(248,668,l),
(248,333,l)
);
}
);
userData = {
assembly = "NPUSHB[ ]	/* 11 values pushed */
12 1 4 3 13 2 2 2 0 2 76 
MPPEM[ ]	/* MeasurePixelPerEm */
PUSHB[ ]	/* 1 value pushed */
25 
LT[ ]	/* LessThan */
IF[ ]	/* If */
NPUSHB[ ]	/* 25 values pushed */
0 4 0 0 2 4 0 103 0 3 3 1 95 0 1 1 17 77 5 1 2 2 21 2 78 
ELSE[ ]	/* Else */
NPUSHB[ ]	/* 23 values pushed */
0 1 0 3 4 1 3 103 0 4 0 0 2 4 0 103 5 1 2 2 21 2 78 
EIF[ ]	/* EndIf */
NPUSHB[ ]	/* 15 values pushed */
0 0 26 24 18 16 0 15 0 14 35 35 6 7 24 
CALL[ ]	/* CallFunction */";
};
width = 763;
},
{
layerId = "03DC8633-12B9-4C09-834B-15CC0827035A";
shapes = (
{
closed = 1;
nodes = (
(100,700,l),
(521,700,ls),
(776,700,o),
(903,622,o),
(903,466,cs),
(903,309,o),
(776,231,o),
(521,231,cs),
(272,231,l),
(272,0,l),
(100,0,l)
);
},
{
closed = 1;
nodes = (
(541,356,ls),
(657,356,o),
(713,389,o),
(713,466,cs),
(713,543,o),
(657,576,o),
(541,576,cs),
(275,576,l),
(275,356,l)
);
}
);
userData = {
assembly = "MPPEM[ ]	/* MeasurePixelPerEm */
PUSHB[ ]	/* 1 value pushed */
38 
LT[ ]	/* LessThan */
IF[ ]	/* If */
NPUSHB[ ]	/* 25 values pushed */
0 4 0 0 2 4 0 103 0 3 3 1 95 0 1 1 17 77 5 1 2 2 18 2 78 
ELSE[ ]	/* Else */
MPPEM[ ]	/* MeasurePixelPerEm */
PUSHB[ ]	/* 1 value pushed */
42 
LT[ ]	/* LessThan */
IF[ ]	/* If */
NPUSHB[ ]	/* 23 values pushed */
0 1 0 3 4 1 3 103 0 4 0 0 2 4 0 103 5 1 2 2 18 2 78 
ELSE[ ]	/* Else */
NPUSHB[ ]	/* 30 values pushed */
5 1 2 0 2 134 0 1 0 3 4 1 3 103 0 4 0 0 4 87 0 4 4 0 95 0 0 4 0 79 
EIF[ ]	/* EndIf */
EIF[ ]	/* EndIf */
NPUSHB[ ]	/* 15 values pushed */
0 0 17 15 11 9 0 8 0 8 34 33 6 7 24 
CALL[ ]	/* CallFunction */";
};
width = 963;
},
{
associatedMasterId = m01;
layerId = "841E1A30-08AA-4EAB-BF44-BB784610F238";
name = "11 feb 22, 18:16";
shapes = (
{
closed = 1;
nodes = (
(159,62,l),
(161,588,l),
(35,648,l),
(35,650,l),
(419,650,ls),
(549,650,o),
(645,635,o),
(707,606,cs),
(769,577,o),
(800,532,o),
(800,472,cs),
(800,338,o),
(650,271,o),
(349,271,cs),
(245,271,l),
(245,62,l),
(371,2,l),
(371,0,l),
(35,0,l),
(35,1,l)
);
},
{
closed = 1;
nodes = (
(349,301,ls),
(516,301,o),
(618,314,o),
(660,366,cs),
(680,391,o),
(690,423,o),
(690,462,cs),
(690,581,o),
(612,624,o),
(419,624,cs),
(245,624,l),
(245,301,l)
);
}
);
userData = {
assembly = "NPUSHB[ ]	/* 11 values pushed */
12 1 4 3 13 2 2 2 0 2 76 
MPPEM[ ]	/* MeasurePixelPerEm */
PUSHB[ ]	/* 1 value pushed */
25 
LT[ ]	/* LessThan */
IF[ ]	/* If */
NPUSHB[ ]	/* 25 values pushed */
0 4 0 0 2 4 0 103 0 3 3 1 95 0 1 1 17 77 5 1 2 2 21 2 78 
ELSE[ ]	/* Else */
NPUSHB[ ]	/* 23 values pushed */
0 1 0 3 4 1 3 103 0 4 0 0 2 4 0 103 5 1 2 2 21 2 78 
EIF[ ]	/* EndIf */
NPUSHB[ ]	/* 15 values pushed */
0 0 26 24 18 16 0 15 0 14 35 35 6 7 24 
CALL[ ]	/* CallFunction */";
};
width = 780;
}
);
metricLeft = H;
note = P;
unicode = 80;
}
{
glyphname = Q;
kernLeft = O;
kernRight = O;
layers = (
{
layerId = m01;
shapes = (
{
closed = 1;
nodes = (
(500,102,l),
(456,102,l),
(185,-221,l),
(190,-224,l),
(315,-163,o),
(387,-152,o),
(437,-152,cs),
(555,-152,o),
(624,-213,o),
(648,-234,c),
(650,-234,l),
(715,-137,l),
(650,-112,o),
(598,-99,o),
(509,-99,cs),
(405,-99,o),
(332,-125,o),
(258,-173,c),
(282,-172,l)
);
},
{
ref = O;
}
);
userData = {
assembly = "NPUSHB[ ]	/* 17 values pushed */
40 37 2 5 4 25 1 3 2 2 76 33 26 19 3 3 73 
MPPEM[ ]	/* MeasurePixelPerEm */
PUSHB[ ]	/* 1 value pushed */
19 
LT[ ]	/* LessThan */
IF[ ]	/* If */
NPUSHB[ ]	/* 35 values pushed */
0 4 6 5 5 4 114 0 2 0 3 2 3 101 0 6 6 0 97 0 0 0 17 77 0 5 5 1 98 0 1 1 27 1 78 
ELSE[ ]	/* Else */
NPUSHB[ ]	/* 36 values pushed */
0 4 6 5 6 4 5 128 0 2 0 3 2 3 101 0 6 6 0 97 0 0 0 17 77 0 5 5 1 98 0 1 1 27 1 78 
EIF[ ]	/* EndIf */
NPUSHB[ ]	/* 10 values pushed */
36 34 23 37 37 38 39 7 7 29 
CALL[ ]	/* CallFunction */";
};
width = 896;
},
{
layerId = "03DC8633-12B9-4C09-834B-15CC0827035A";
shapes = (
{
closed = 1;
nodes = (
(911,-90,l),
(621,269,l),
(421,269,l),
(714,-90,l)
);
},
{
ref = O;
}
);
userData = {
assembly = "NPUSHB[ ]	/* 11 values pushed */
1 1 1 2 30 27 2 5 1 2 76 
MPPEM[ ]	/* MeasurePixelPerEm */
PUSHB[ ]	/* 1 value pushed */
9 
LT[ ]	/* LessThan */
IF[ ]	/* If */
NPUSHB[ ]	/* 34 values pushed */
6 1 2 0 1 1 2 114 0 4 5 4 134 0 0 0 3 97 0 3 3 17 77 0 1 1 5 98 0 5 5 24 5 78 
ELSE[ ]	/* Else */
MPPEM[ ]	/* MeasurePixelPerEm */
PUSHB[ ]	/* 1 value pushed */
38 
LT[ ]	/* LessThan */
IF[ ]	/* If */
NPUSHB[ ]	/* 35 values pushed */
6 1 2 0 1 0 2 1 128 0 4 5 4 134 0 0 0 3 97 0 3 3 17 77 0 1 1 5 98 0 5 5 24 5 78 
ELSE[ ]	/* Else */
MPPEM[ ]	/* MeasurePixelPerEm */
PUSHB[ ]	/* 1 value pushed */
42 
LT[ ]	/* LessThan */
IF[ ]	/* If */
NPUSHB[ ]	/* 33 values pushed */
6 1 2 0 1 0 2 1 128 0 4 5 4 134 0 3 0 0 2 3 0 105 0 1 1 5 98 0 5 5 24 5 78 
ELSE[ ]	/* Else */
NPUSHB[ ]	/* 38 values pushed */
6 1 2 0 1 0 2 1 128 0 4 5 4 134 0 3 0 0 2 3 0 105 0 1 5 5 1 89 0 1 1 5 98 0 5 1 5 82 
EIF[ ]	/* EndIf */
EIF[ ]	/* EndIf */
EIF[ ]	/* EndIf */
NPUSHB[ ]	/* 17 values pushed */
0 0 33 31 29 28 21 19 0 16 0 16 37 38 7 7 24 
CALL[ ]	/* CallFunction */";
};
width = 1057;
},
{
associatedMasterId = m01;
layerId = "7BC4F665-19EF-4348-9612-01CFAD25980A";
name = "11 feb 22, 16:51";
shapes = (
{
closed = 1;
nodes = (
(133,-214,l),
(227,-168,o),
(444,-112,o),
(533,-112,qs),
(622,-112,o),
(742,-168,o),
(756,-214,q),
(758,-214,l),
(823,-97,l),
(725,-59,o),
(606,-59,qs),
(499,-59,o),
(288,-119,o),
(200,-169,q),
(196,-169,l),
(324,-8,l),
(362,-14,o),
(401,-14,qs),
(505,-14,o),
(679,75,o),
(781,229,o),
(781,325,qs),
(781,423,o),
(679,581,o),
(504,670,o),
(400,670,qs),
(297,670,o),
(122,581,o),
(20,423,o),
(20,325,qs),
(20,245,o),
(91,110,o),
(217,17,o),
(296,-2,q),
(131,-214,l)
);
},
{
closed = 1;
nodes = (
(120,482,o),
(269,642,o),
(400,642,qs),
(531,642,o),
(681,482,o),
(681,325,qs),
(681,171,o),
(532,14,o),
(401,14,qs),
(368,14,o),
(344,18,q),
(392,78,l),
(359,78,l),
(316,23,l),
(223,46,o),
(120,198,o),
(120,325,qs)
);
}
);
userData = {
assembly = "NPUSHB[ ]	/* 17 values pushed */
40 37 2 5 4 25 1 3 2 2 76 33 26 19 3 3 73 
MPPEM[ ]	/* MeasurePixelPerEm */
PUSHB[ ]	/* 1 value pushed */
19 
LT[ ]	/* LessThan */
IF[ ]	/* If */
NPUSHB[ ]	/* 35 values pushed */
0 4 6 5 5 4 114 0 2 0 3 2 3 101 0 6 6 0 97 0 0 0 17 77 0 5 5 1 98 0 1 1 27 1 78 
ELSE[ ]	/* Else */
NPUSHB[ ]	/* 36 values pushed */
0 4 6 5 6 4 5 128 0 2 0 3 2 3 101 0 6 6 0 97 0 0 0 17 77 0 5 5 1 98 0 1 1 27 1 78 
EIF[ ]	/* EndIf */
NPUSHB[ ]	/* 10 values pushed */
36 34 23 37 37 38 39 7 7 29 
CALL[ ]	/* CallFunction */";
};
width = 843;
}
);
metricLeft = "=O";
metricRight = "=O";
note = Q;
unicode = 81;
}
{
glyphname = R;
kernLeft = R;
kernRight = R;
layers = (
{
anchors = (
{
name = bottom;
pos = (431,0);
},
{
name = top;
pos = (431,650);
}
);
layerId = m01;
shapes = (
{
closed = 1;
nodes = (
(531,2,l),
(531,0,l),
(822,0,l),
(822,2,l),
(673,61,l),
(499,340,l),
(407,340,l),
(582,55,l)
);
},
{
closed = 1;
nodes = (
(40,0,l),
(374,0,l),
(374,2,l),
(248,62,l),
(248,324,l),
(430,324,ls),
(607,324,o),
(737,386,o),
(737,509,cs),
(737,646,o),
(607,700,o),
(430,700,cs),
(40,700,l),
(40,698,l),
(166,638,l),
(164,62,l),
(40,1,l)
);
},
{
closed = 1;
nodes = (
(248,668,l),
(420,668,ls),
(534,668,o),
(639,621,o),
(639,509,cs),
(639,404,o),
(524,358,o),
(420,358,cs),
(248,358,l)
);
}
);
userData = {
assembly = "NPUSHB[ ]	/* 12 values pushed */
25 1 2 6 26 7 2 3 1 0 2 76 
MPPEM[ ]	/* MeasurePixelPerEm */
PUSHB[ ]	/* 1 value pushed */
25 
LT[ ]	/* LessThan */
IF[ ]	/* If */
NPUSHB[ ]	/* 28 values pushed */
7 1 2 3 1 0 1 2 0 105 0 6 6 4 95 0 4 4 17 77 8 5 2 1 1 21 1 78 
ELSE[ ]	/* Else */
NPUSHB[ ]	/* 26 values pushed */
0 4 0 6 2 4 6 103 7 1 2 3 1 0 1 2 0 105 8 5 2 1 1 21 1 78 
EIF[ ]	/* EndIf */
NPUSHB[ ]	/* 18 values pushed */
0 0 39 37 31 29 0 28 0 27 37 17 19 34 51 9 7 27 
CALL[ ]	/* CallFunction */";
};
width = 863;
},
{
anchors = (
{
name = bottom;
pos = (497,0);
},
{
name = top;
pos = (497,700);
}
);
layerId = "03DC8633-12B9-4C09-834B-15CC0827035A";
shapes = (
{
closed = 1;
nodes = (
(705,241,o),
(903,282,o),
(903,471,cs),
(903,627,o),
(776,700,o),
(521,700,cs),
(100,700,l),
(100,0,l),
(272,0,l),
(272,241,l),
(521,241,ls)
);
},
{
closed = 1;
nodes = (
(275,576,l),
(541,576,ls),
(657,576,o),
(713,548,o),
(713,471,cs),
(713,399,o),
(657,366,o),
(541,366,cs),
(275,366,l)
);
},
{
closed = 1;
nodes = (
(892,0,l),
(602,349,l),
(402,349,l),
(692,0,l)
);
}
);
userData = {
assembly = "MPPEM[ ]	/* MeasurePixelPerEm */
PUSHB[ ]	/* 1 value pushed */
14 
LT[ ]	/* LessThan */
IF[ ]	/* If */
NPUSHB[ ]	/* 28 values pushed */
7 1 2 3 1 0 1 2 0 105 0 6 6 4 95 0 4 4 17 77 8 5 2 1 1 18 1 78 
ELSE[ ]	/* Else */
MPPEM[ ]	/* MeasurePixelPerEm */
PUSHB[ ]	/* 1 value pushed */
38 
LT[ ]	/* LessThan */
IF[ ]	/* If */
NPUSHB[ ]	/* 34 values pushed */
0 2 7 0 7 2 114 0 7 3 1 0 1 7 0 105 0 6 6 4 95 0 4 4 17 77 8 5 2 1 1 18 1 78 
ELSE[ ]	/* Else */
MPPEM[ ]	/* MeasurePixelPerEm */
PUSHB[ ]	/* 1 value pushed */
42 
LT[ ]	/* LessThan */
IF[ ]	/* If */
NPUSHB[ ]	/* 32 values pushed */
0 2 7 0 7 2 114 0 4 0 6 7 4 6 103 0 7 3 1 0 1 7 0 105 8 5 2 1 1 18 1 78 
ELSE[ ]	/* Else */
NPUSHB[ ]	/* 39 values pushed */
0 2 7 0 7 2 114 8 5 2 1 0 1 134 0 4 0 6 7 4 6 103 0 7 2 0 7 87 0 7 7 0 97 3 1 0 7 0 81 
EIF[ ]	/* EndIf */
EIF[ ]	/* EndIf */
EIF[ ]	/* EndIf */
NPUSHB[ ]	/* 18 values pushed */
0 0 26 24 20 18 0 17 0 17 36 33 18 17 17 9 7 27 
CALL[ ]	/* CallFunction */";
};
width = 973;
},
{
anchors = (
{
name = bottom;
pos = (433,0);
},
{
name = top;
pos = (433,650);
}
);
associatedMasterId = m01;
layerId = "049F0853-34B3-4E92-8D86-BBD25BB006F1";
name = "14 feb 22, 11:58";
shapes = (
{
closed = 1;
nodes = (
(439,307,l),
(531,307,l),
(704,66,l),
(854,2,l),
(854,0,l),
(563,0,l),
(563,2,l),
(613,60,l)
);
},
{
closed = 1;
nodes = (
(166,67,l),
(168,588,l),
(42,648,l),
(42,650,l),
(432,650,ls),
(609,650,o),
(739,596,o),
(739,467,cs),
(739,343,o),
(609,281,o),
(432,281,cs),
(250,281,l),
(250,67,l),
(376,2,l),
(376,0,l),
(42,0,l),
(42,1,l)
);
},
{
closed = 1;
nodes = (
(432,314,ls),
(536,314,o),
(641,361,o),
(641,467,cs),
(641,571,o),
(536,618,o),
(432,618,cs),
(250,618,l),
(250,314,l)
);
}
);
userData = {
assembly = "NPUSHB[ ]	/* 12 values pushed */
25 1 2 6 26 7 2 3 1 0 2 76 
MPPEM[ ]	/* MeasurePixelPerEm */
PUSHB[ ]	/* 1 value pushed */
25 
LT[ ]	/* LessThan */
IF[ ]	/* If */
NPUSHB[ ]	/* 28 values pushed */
7 1 2 3 1 0 1 2 0 105 0 6 6 4 95 0 4 4 17 77 8 5 2 1 1 21 1 78 
ELSE[ ]	/* Else */
NPUSHB[ ]	/* 26 values pushed */
0 4 0 6 2 4 6 103 7 1 2 3 1 0 1 2 0 105 8 5 2 1 1 21 1 78 
EIF[ ]	/* EndIf */
NPUSHB[ ]	/* 18 values pushed */
0 0 39 37 31 29 0 28 0 27 37 17 19 34 51 9 7 27 
CALL[ ]	/* CallFunction */";
};
width = 865;
},
{
anchors = (
{
name = bottom;
pos = (497,0);
},
{
name = top;
pos = (497,700);
}
);
associatedMasterId = "03DC8633-12B9-4C09-834B-15CC0827035A";
layerId = "580B79D3-41AA-4DF4-B045-8F7F322A92B5";
name = "21 feb 22, 14:51";
shapes = (
{
closed = 1;
nodes = (
(90,700,l),
(521,700,ls),
(776,700,o),
(903,622,o),
(903,466,cs),
(903,347,o),
(830,274,o),
(683,245,cs),
(639,236,o),
(585,231,o),
(521,231,cs),
(494,231,l),
(402,339,l),
(602,339,l),
(886,8,l),
(892,0,l),
(692,0,l),
(494,231,l),
(262,231,l),
(262,0,l),
(90,0,l),
(90,0,l)
);
},
{
closed = 1;
nodes = (
(541,356,ls),
(657,356,o),
(713,389,o),
(713,466,cs),
(713,543,o),
(657,576,o),
(541,576,cs),
(265,576,l),
(265,356,l),
(265,356,l)
);
}
);
userData = {
assembly = "MPPEM[ ]	/* MeasurePixelPerEm */
PUSHB[ ]	/* 1 value pushed */
14 
LT[ ]	/* LessThan */
IF[ ]	/* If */
NPUSHB[ ]	/* 28 values pushed */
7 1 2 3 1 0 1 2 0 105 0 6 6 4 95 0 4 4 17 77 8 5 2 1 1 18 1 78 
ELSE[ ]	/* Else */
MPPEM[ ]	/* MeasurePixelPerEm */
PUSHB[ ]	/* 1 value pushed */
38 
LT[ ]	/* LessThan */
IF[ ]	/* If */
NPUSHB[ ]	/* 34 values pushed */
0 2 7 0 7 2 114 0 7 3 1 0 1 7 0 105 0 6 6 4 95 0 4 4 17 77 8 5 2 1 1 18 1 78 
ELSE[ ]	/* Else */
MPPEM[ ]	/* MeasurePixelPerEm */
PUSHB[ ]	/* 1 value pushed */
42 
LT[ ]	/* LessThan */
IF[ ]	/* If */
NPUSHB[ ]	/* 32 values pushed */
0 2 7 0 7 2 114 0 4 0 6 7 4 6 103 0 7 3 1 0 1 7 0 105 8 5 2 1 1 18 1 78 
ELSE[ ]	/* Else */
NPUSHB[ ]	/* 39 values pushed */
0 2 7 0 7 2 114 8 5 2 1 0 1 134 0 4 0 6 7 4 6 103 0 7 2 0 7 87 0 7 7 0 97 3 1 0 7 0 81 
EIF[ ]	/* EndIf */
EIF[ ]	/* EndIf */
EIF[ ]	/* EndIf */
NPUSHB[ ]	/* 18 values pushed */
0 0 26 24 20 18 0 17 0 17 36 33 18 17 17 9 7 27 
CALL[ ]	/* CallFunction */";
};
width = 983;
}
);
metricLeft = H;
note = R;
unicode = 82;
}
{
glyphname = S;
kernLeft = S;
kernRight = S;
layers = (
{
anchors = (
{
name = bottom;
pos = (438,-5);
},
{
name = top;
pos = (384,700);
}
);
layerId = m01;
shapes = (
{
closed = 1;
nodes = (
(176,52,l),
(255,9,o),
(351,-15,o),
(448,-15,cs),
(594,-15,o),
(711,67,o),
(711,179,cs),
(711,286,o),
(599,342,o),
(481,373,cs),
(323,415,ls),
(232,439,o),
(138,486,o),
(138,572,cs),
(138,629,o),
(198,683,o),
(320,683,cs),
(439,683,o),
(576,626,o),
(703,465,c),
(710,465,l),
(590,697,l),
(549,642,l),
(474,691,o),
(388,715,o),
(291,715,cs),
(140,715,o),
(48,645,o),
(48,554,cs),
(48,444,o),
(151,374,o),
(292,336,cs),
(442,296,ls),
(573,261,o),
(619,220,o),
(619,158,cs),
(619,70,o),
(531,18,o),
(438,18,cs),
(264,18,o),
(119,101,o),
(26,273,c),
(18,274,l),
(115,-1,l)
);
}
);
userData = {
assembly = "NPUSHB[ ]	/* 16 values pushed */
20 1 2 1 43 21 19 3 0 2 44 1 3 0 3 76 
MPPEM[ ]	/* MeasurePixelPerEm */
PUSHB[ ]	/* 1 value pushed */
42 
LT[ ]	/* LessThan */
IF[ ]	/* If */
NPUSHB[ ]	/* 21 values pushed */
0 2 2 1 97 0 1 1 17 77 0 0 0 3 97 0 3 3 27 3 78 
ELSE[ ]	/* Else */
NPUSHB[ ]	/* 19 values pushed */
0 1 0 2 0 1 2 105 0 0 0 3 97 0 3 3 27 3 78 
EIF[ ]	/* EndIf */
PUSHB[ ]	/* 7 values pushed */
46 38 43 35 4 7 26 
CALL[ ]	/* CallFunction */";
};
width = 768;
},
{
anchors = (
{
name = bottom;
pos = (384,0);
},
{
name = top;
pos = (384,650);
}
);
associatedMasterId = m01;
layerId = "801245EC-89A8-4081-8AEC-AE65ACE080DB";
name = "11 feb 22, 17:50";
shapes = (
{
closed = 1;
nodes = (
(208,57,l),
(276.667,9,o),
(366,-15,o),
(476,-15,cs),
(646.739,-15,o),
(764,57.183,o),
(764,162,cs),
(764,249,o),
(680,305,o),
(585,335,cs),
(538,350,o),
(483,363,o),
(421,375,cs),
(351,389,ls),
(262,408,o),
(213,426,o),
(189,456,cs),
(177,471,o),
(171,490,o),
(171,513,cs),
(171,578.333,o),
(216.667,626,o),
(346,626,cs),
(462,626,o),
(605.333,569.333,o),
(732,408,c),
(734,408,l),
(619,640,l),
(578,585,l),
(502.667,633.667,o),
(413,658,o),
(309,658,cs),
(138,658,o),
(79,588,o),
(79,504,cs),
(79,393,o),
(190,322,o),
(358,291,cs),
(412,281,ls),
(551,256,o),
(661,219,o),
(661,139,cs),
(661,60.333,o),
(584,16,o),
(459,16,cs),
(295,16,o),
(137.333,99,o),
(44,271,c),
(40,274,l),
(137,-1,l)
);
}
);
userData = {
assembly = "NPUSHB[ ]	/* 16 values pushed */
20 1 2 1 43 21 19 3 0 2 44 1 3 0 3 76 
MPPEM[ ]	/* MeasurePixelPerEm */
PUSHB[ ]	/* 1 value pushed */
42 
LT[ ]	/* LessThan */
IF[ ]	/* If */
NPUSHB[ ]	/* 21 values pushed */
0 2 2 1 97 0 1 1 17 77 0 0 0 3 97 0 3 3 27 3 78 
ELSE[ ]	/* Else */
NPUSHB[ ]	/* 19 values pushed */
0 1 0 2 0 1 2 105 0 0 0 3 97 0 3 3 27 3 78 
EIF[ ]	/* EndIf */
PUSHB[ ]	/* 7 values pushed */
46 38 43 35 4 7 26 
CALL[ ]	/* CallFunction */";
};
width = 768;
},
{
associatedMasterId = "03DC8633-12B9-4C09-834B-15CC0827035A";
layerId = "CD412549-EA3A-4F7F-94FE-1E4645357D0C";
name = "21 feb 22, 14:15";
shapes = (
{
closed = 1;
nodes = (
(30,84,l),
(160.667,18.667,o),
(332.333,-18,o),
(507,-18,cs),
(780.333,-18,o),
(923,61.667,o),
(923,211,cs),
(923,348.333,o),
(812.333,406,o),
(603,418,cs),
(414,429,ls),
(286.938,436.059,o),
(222,450.865,o),
(222,508,cs),
(222,592,o),
(383,589,o),
(457,589,cs),
(613,589,o),
(733.667,559.667,o),
(835,501,c),
(889,632,l),
(778.333,688,o),
(624.333,719,o),
(471,719,cs),
(283,719,o),
(57,666,o),
(57,502,cs),
(57,381.059,o),
(186.067,300.243,o),
(384,288,cs),
(558,277,ls),
(693.545,268.528,o),
(757,257.997,o),
(757,201,cs),
(757,138.729,o),
(679.671,122,o),
(507,122,cs),
(333.667,122,o),
(199,149.667,o),
(83,215,c)
);
}
);
userData = {
assembly = "MPPEM[ ]	/* MeasurePixelPerEm */
PUSHB[ ]	/* 1 value pushed */
44 
LT[ ]	/* LessThan */
IF[ ]	/* If */
NPUSHB[ ]	/* 18 values pushed */
22 1 3 2 23 1 4 3 44 1 0 1 43 1 5 0 4 76 
ELSE[ ]	/* Else */
MPPEM[ ]	/* MeasurePixelPerEm */
PUSHB[ ]	/* 1 value pushed */
47 
LT[ ]	/* LessThan */
IF[ ]	/* If */
NPUSHB[ ]	/* 18 values pushed */
22 1 3 2 23 1 1 3 44 1 0 1 43 1 5 0 4 76 
ELSE[ ]	/* Else */
NPUSHB[ ]	/* 15 values pushed */
22 1 3 2 44 23 2 0 3 43 1 5 0 3 76 
EIF[ ]	/* EndIf */
EIF[ ]	/* EndIf */
MPPEM[ ]	/* MeasurePixelPerEm */
PUSHB[ ]	/* 1 value pushed */
38 
LT[ ]	/* LessThan */
IF[ ]	/* If */
NPUSHB[ ]	/* 29 values pushed */
0 4 0 1 0 4 1 103 0 3 3 2 97 0 2 2 23 77 0 0 0 5 97 0 5 5 24 5 78 
ELSE[ ]	/* Else */
MPPEM[ ]	/* MeasurePixelPerEm */
PUSHB[ ]	/* 1 value pushed */
42 
LT[ ]	/* LessThan */
IF[ ]	/* If */
NPUSHB[ ]	/* 29 values pushed */
0 4 0 1 0 4 1 103 0 3 3 2 97 0 2 2 19 77 0 0 0 5 97 0 5 5 24 5 78 
ELSE[ ]	/* Else */
MPPEM[ ]	/* MeasurePixelPerEm */
PUSHB[ ]	/* 1 value pushed */
44 
LT[ ]	/* LessThan */
IF[ ]	/* If */
NPUSHB[ ]	/* 26 values pushed */
0 4 0 1 0 4 1 103 0 0 0 5 0 5 101 0 3 3 2 97 0 2 2 19 3 78 
ELSE[ ]	/* Else */
MPPEM[ ]	/* MeasurePixelPerEm */
PUSHB[ ]	/* 1 value pushed */
45 
LT[ ]	/* LessThan */
IF[ ]	/* If */
NPUSHB[ ]	/* 26 values pushed */
0 1 3 0 3 1 0 128 0 0 0 5 0 5 101 0 3 3 2 97 0 2 2 19 3 78 
ELSE[ ]	/* Else */
MPPEM[ ]	/* MeasurePixelPerEm */
PUSHB[ ]	/* 1 value pushed */
47 
LT[ ]	/* LessThan */
IF[ ]	/* If */
NPUSHB[ ]	/* 32 values pushed */
0 1 3 0 3 1 0 128 0 2 0 3 1 2 3 105 0 0 5 5 0 89 0 0 0 5 97 0 5 0 5 81 
ELSE[ ]	/* Else */
NPUSHB[ ]	/* 24 values pushed */
0 2 0 3 0 2 3 105 0 0 5 5 0 89 0 0 0 5 97 0 5 0 5 81 
EIF[ ]	/* EndIf */
EIF[ ]	/* EndIf */
EIF[ ]	/* EndIf */
EIF[ ]	/* EndIf */
EIF[ ]	/* EndIf */
NPUSHB[ ]	/* 9 values pushed */
36 53 37 38 54 33 6 7 28 
CALL[ ]	/* CallFunction */";
};
width = 953;
},
{
anchors = (
{
name = bottom;
pos = (477,0);
},
{
name = top;
pos = (477,700);
}
);
associatedMasterId = "03DC8633-12B9-4C09-834B-15CC0827035A";
layerId = "5FE42EC1-47A1-4E9A-A422-FF5615A28BC4";
name = "23 mar 22, 22:03";
shapes = (
{
closed = 1;
nodes = (
(30,87,l),
(161,22,o),
(332,-15,o),
(507,-15,cs),
(780,-15,o),
(923,65,o),
(923,214,cs),
(923,351,o),
(812,410,o),
(603,422,cs),
(414,433,ls),
(287,440,o),
(239,457,o),
(239,504,cs),
(239,561,o),
(363,576,o),
(457,576,cs),
(603,576,o),
(734,556,o),
(835,497,c),
(889,628,l),
(778,684,o),
(614,715,o),
(471,715,cs),
(283,715,o),
(57,662,o),
(57,498,cs),
(57,357,o),
(176,292,o),
(374,279,cs),
(558,267,ls),
(674,259,o),
(745,253,o),
(745,204,cs),
(745,151,o),
(660,135,o),
(507,135,cs),
(344,135,o),
(199,164,o),
(83,229,c)
);
}
);
userData = {
assembly = "MPPEM[ ]	/* MeasurePixelPerEm */
PUSHB[ ]	/* 1 value pushed */
44 
LT[ ]	/* LessThan */
IF[ ]	/* If */
NPUSHB[ ]	/* 18 values pushed */
22 1 3 2 23 1 4 3 44 1 0 1 43 1 5 0 4 76 
ELSE[ ]	/* Else */
MPPEM[ ]	/* MeasurePixelPerEm */
PUSHB[ ]	/* 1 value pushed */
47 
LT[ ]	/* LessThan */
IF[ ]	/* If */
NPUSHB[ ]	/* 18 values pushed */
22 1 3 2 23 1 1 3 44 1 0 1 43 1 5 0 4 76 
ELSE[ ]	/* Else */
NPUSHB[ ]	/* 15 values pushed */
22 1 3 2 44 23 2 0 3 43 1 5 0 3 76 
EIF[ ]	/* EndIf */
EIF[ ]	/* EndIf */
MPPEM[ ]	/* MeasurePixelPerEm */
PUSHB[ ]	/* 1 value pushed */
38 
LT[ ]	/* LessThan */
IF[ ]	/* If */
NPUSHB[ ]	/* 29 values pushed */
0 4 0 1 0 4 1 103 0 3 3 2 97 0 2 2 23 77 0 0 0 5 97 0 5 5 24 5 78 
ELSE[ ]	/* Else */
MPPEM[ ]	/* MeasurePixelPerEm */
PUSHB[ ]	/* 1 value pushed */
42 
LT[ ]	/* LessThan */
IF[ ]	/* If */
NPUSHB[ ]	/* 29 values pushed */
0 4 0 1 0 4 1 103 0 3 3 2 97 0 2 2 19 77 0 0 0 5 97 0 5 5 24 5 78 
ELSE[ ]	/* Else */
MPPEM[ ]	/* MeasurePixelPerEm */
PUSHB[ ]	/* 1 value pushed */
44 
LT[ ]	/* LessThan */
IF[ ]	/* If */
NPUSHB[ ]	/* 26 values pushed */
0 4 0 1 0 4 1 103 0 0 0 5 0 5 101 0 3 3 2 97 0 2 2 19 3 78 
ELSE[ ]	/* Else */
MPPEM[ ]	/* MeasurePixelPerEm */
PUSHB[ ]	/* 1 value pushed */
45 
LT[ ]	/* LessThan */
IF[ ]	/* If */
NPUSHB[ ]	/* 26 values pushed */
0 1 3 0 3 1 0 128 0 0 0 5 0 5 101 0 3 3 2 97 0 2 2 19 3 78 
ELSE[ ]	/* Else */
MPPEM[ ]	/* MeasurePixelPerEm */
PUSHB[ ]	/* 1 value pushed */
47 
LT[ ]	/* LessThan */
IF[ ]	/* If */
NPUSHB[ ]	/* 32 values pushed */
0 1 3 0 3 1 0 128 0 2 0 3 1 2 3 105 0 0 5 5 0 89 0 0 0 5 97 0 5 0 5 81 
ELSE[ ]	/* Else */
NPUSHB[ ]	/* 24 values pushed */
0 2 0 3 0 2 3 105 0 0 5 5 0 89 0 0 0 5 97 0 5 0 5 81 
EIF[ ]	/* EndIf */
EIF[ ]	/* EndIf */
EIF[ ]	/* EndIf */
EIF[ ]	/* EndIf */
EIF[ ]	/* EndIf */
NPUSHB[ ]	/* 9 values pushed */
36 53 37 38 54 33 6 7 28 
CALL[ ]	/* CallFunction */";
};
width = 953;
},
{
anchors = (
{
name = bottom;
pos = (457,0);
},
{
name = top;
pos = (457,700);
}
);
layerId = "03DC8633-12B9-4C09-834B-15CC0827035A";
name = Bold;
shapes = (
{
closed = 1;
nodes = (
(30,87,l),
(155,22,o),
(318,-15,o),
(486,-15,cs),
(746,-15,o),
(883,65,o),
(883,214,cs),
(883,351,o),
(777,410,o),
(577,422,cs),
(397,433,ls),
(275,440,o),
(230,457,o),
(230,504,cs),
(230,561,o),
(348,576,o),
(438,576,cs),
(577,576,o),
(702,556,o),
(799,497,c),
(851,628,l),
(744,684,o),
(588,715,o),
(451,715,cs),
(272,715,o),
(56,662,o),
(56,498,cs),
(56,357,o),
(169,292,o),
(359,279,cs),
(534,267,ls),
(645,259,o),
(713,253,o),
(713,204,cs),
(713,151,o),
(632,135,o),
(486,135,cs),
(330,135,o),
(191,164,o),
(81,229,c)
);
}
);
userData = {
assembly = "MPPEM[ ]	/* MeasurePixelPerEm */
PUSHB[ ]	/* 1 value pushed */
44 
LT[ ]	/* LessThan */
IF[ ]	/* If */
NPUSHB[ ]	/* 18 values pushed */
22 1 3 2 23 1 4 3 44 1 0 1 43 1 5 0 4 76 
ELSE[ ]	/* Else */
MPPEM[ ]	/* MeasurePixelPerEm */
PUSHB[ ]	/* 1 value pushed */
47 
LT[ ]	/* LessThan */
IF[ ]	/* If */
NPUSHB[ ]	/* 18 values pushed */
22 1 3 2 23 1 1 3 44 1 0 1 43 1 5 0 4 76 
ELSE[ ]	/* Else */
NPUSHB[ ]	/* 15 values pushed */
22 1 3 2 44 23 2 0 3 43 1 5 0 3 76 
EIF[ ]	/* EndIf */
EIF[ ]	/* EndIf */
MPPEM[ ]	/* MeasurePixelPerEm */
PUSHB[ ]	/* 1 value pushed */
38 
LT[ ]	/* LessThan */
IF[ ]	/* If */
NPUSHB[ ]	/* 29 values pushed */
0 4 0 1 0 4 1 103 0 3 3 2 97 0 2 2 23 77 0 0 0 5 97 0 5 5 24 5 78 
ELSE[ ]	/* Else */
MPPEM[ ]	/* MeasurePixelPerEm */
PUSHB[ ]	/* 1 value pushed */
42 
LT[ ]	/* LessThan */
IF[ ]	/* If */
NPUSHB[ ]	/* 29 values pushed */
0 4 0 1 0 4 1 103 0 3 3 2 97 0 2 2 19 77 0 0 0 5 97 0 5 5 24 5 78 
ELSE[ ]	/* Else */
MPPEM[ ]	/* MeasurePixelPerEm */
PUSHB[ ]	/* 1 value pushed */
44 
LT[ ]	/* LessThan */
IF[ ]	/* If */
NPUSHB[ ]	/* 26 values pushed */
0 4 0 1 0 4 1 103 0 0 0 5 0 5 101 0 3 3 2 97 0 2 2 19 3 78 
ELSE[ ]	/* Else */
MPPEM[ ]	/* MeasurePixelPerEm */
PUSHB[ ]	/* 1 value pushed */
45 
LT[ ]	/* LessThan */
IF[ ]	/* If */
NPUSHB[ ]	/* 26 values pushed */
0 1 3 0 3 1 0 128 0 0 0 5 0 5 101 0 3 3 2 97 0 2 2 19 3 78 
ELSE[ ]	/* Else */
MPPEM[ ]	/* MeasurePixelPerEm */
PUSHB[ ]	/* 1 value pushed */
47 
LT[ ]	/* LessThan */
IF[ ]	/* If */
NPUSHB[ ]	/* 32 values pushed */
0 1 3 0 3 1 0 128 0 2 0 3 1 2 3 105 0 0 5 5 0 89 0 0 0 5 97 0 5 0 5 81 
ELSE[ ]	/* Else */
NPUSHB[ ]	/* 24 values pushed */
0 2 0 3 0 2 3 105 0 0 5 5 0 89 0 0 0 5 97 0 5 0 5 81 
EIF[ ]	/* EndIf */
EIF[ ]	/* EndIf */
EIF[ ]	/* EndIf */
EIF[ ]	/* EndIf */
EIF[ ]	/* EndIf */
NPUSHB[ ]	/* 9 values pushed */
36 53 37 38 54 33 6 7 28 
CALL[ ]	/* CallFunction */";
};
visible = 1;
width = 913;
}
);
note = S;
unicode = 83;
}
{
glyphname = T;
kernLeft = T;
kernRight = T;
layers = (
{
anchors = (
{
name = bottom;
pos = (406,0);
},
{
name = center;
pos = (406,350);
},
{
name = top;
pos = (406,700);
}
);
layerId = m01;
shapes = (
{
closed = 1;
nodes = (
(156,670,l),
(361,670,l),
(361,70,l),
(231,2,l),
(231,0,l),
(575,0,l),
(575,2,l),
(445,70,l),
(445,670,l),
(651,670,l),
(796,418,l),
(798,420,l),
(733,720,l),
(731,720,l),
(673,700,l),
(132,700,l),
(75,720,l),
(73,720,l),
(10,418,l),
(9,418,l)
);
}
);
userData = {
assembly = "NPUSHB[ ]	/* 13 values pushed */
16 11 7 3 2 1 1 76 5 1 2 0 74 
MPPEM[ ]	/* MeasurePixelPerEm */
PUSHB[ ]	/* 1 value pushed */
25 
LT[ ]	/* LessThan */
IF[ ]	/* If */
NPUSHB[ ]	/* 17 values pushed */
3 1 1 1 0 95 0 0 0 17 77 0 2 2 21 2 78 
ELSE[ ]	/* Else */
NPUSHB[ ]	/* 15 values pushed */
0 0 3 1 1 2 0 1 103 0 2 2 21 2 78 
EIF[ ]	/* EndIf */
PUSHB[ ]	/* 7 values pushed */
19 34 21 19 4 7 26 
CALL[ ]	/* CallFunction */";
};
width = 812;
},
{
anchors = (
{
name = bottom;
pos = (465,0);
},
{
name = center;
pos = (465,350);
},
{
name = top;
pos = (465,700);
}
);
layerId = "03DC8633-12B9-4C09-834B-15CC0827035A";
shapes = (
{
closed = 1;
nodes = (
(378,560,l),
(378,0,l),
(552,0,l),
(552,560,l),
(880,560,l),
(880,700,l),
(50,700,l),
(50,560,l)
);
}
);
userData = {
assembly = "MPPEM[ ]	/* MeasurePixelPerEm */
PUSHB[ ]	/* 1 value pushed */
38 
LT[ ]	/* LessThan */
IF[ ]	/* If */
NPUSHB[ ]	/* 17 values pushed */
3 1 1 1 0 95 0 0 0 17 77 0 2 2 18 2 78 
ELSE[ ]	/* Else */
MPPEM[ ]	/* MeasurePixelPerEm */
PUSHB[ ]	/* 1 value pushed */
42 
LT[ ]	/* LessThan */
IF[ ]	/* If */
NPUSHB[ ]	/* 15 values pushed */
0 0 3 1 1 2 0 1 103 0 2 2 18 2 78 
ELSE[ ]	/* Else */
NPUSHB[ ]	/* 22 values pushed */
0 2 1 2 134 0 0 1 1 0 87 0 0 0 1 95 3 1 1 0 1 79 
EIF[ ]	/* EndIf */
EIF[ ]	/* EndIf */
PUSHB[ ]	/* 7 values pushed */
17 17 17 16 4 7 26 
CALL[ ]	/* CallFunction */";
};
width = 930;
},
{
anchors = (
{
name = bottom;
pos = (413,0);
},
{
name = center;
pos = (413,325);
},
{
name = top;
pos = (413,650);
}
);
associatedMasterId = m01;
layerId = "0136F452-B028-4218-A2C3-73A05CD6D0C1";
name = "11 feb 22, 17:53";
shapes = (
{
closed = 1;
nodes = (
(166,620,l),
(368,620,l),
(368,72,l),
(268,2,l),
(268,0,l),
(558,0,l),
(558,2,l),
(458,72,l),
(458,620,l),
(660,620,l),
(813,448,l),
(815,450,l),
(722,670,l),
(720,670,l),
(682,650,l),
(142,650,l),
(105,670,l),
(103,670,l),
(12,448,l),
(11,448,l)
);
}
);
userData = {
assembly = "NPUSHB[ ]	/* 13 values pushed */
16 11 7 3 2 1 1 76 5 1 2 0 74 
MPPEM[ ]	/* MeasurePixelPerEm */
PUSHB[ ]	/* 1 value pushed */
25 
LT[ ]	/* LessThan */
IF[ ]	/* If */
NPUSHB[ ]	/* 17 values pushed */
3 1 1 1 0 95 0 0 0 17 77 0 2 2 21 2 78 
ELSE[ ]	/* Else */
NPUSHB[ ]	/* 15 values pushed */
0 0 3 1 1 2 0 1 103 0 2 2 21 2 78 
EIF[ ]	/* EndIf */
PUSHB[ ]	/* 7 values pushed */
19 34 21 19 4 7 26 
CALL[ ]	/* CallFunction */";
};
width = 825;
}
);
note = T;
unicode = 84;
}
{
glyphname = U;
kernLeft = U;
kernRight = U;
layers = (
{
anchors = (
{
name = bottom;
pos = (490,0);
},
{
name = ogonek;
pos = (676,17);
},
{
name = top;
pos = (490,700);
},
{
name = topright;
pos = (950,700);
}
);
layerId = m01;
shapes = (
{
closed = 1;
nodes = (
(54,699,l),
(169,635,l),
(168,242,ls),
(168,187,o),
(145,156,o),
(116,156,c),
(221,68,o),
(330,-15,o),
(505,-15,cs),
(654,-15,o),
(758,41,o),
(887,156,c),
(853,156,o),
(810,189,o),
(810,242,cs),
(810,633,l),
(943,699,l),
(943,700,l),
(638,700,l),
(638,699,l),
(771,633,l),
(771,251,ls),
(771,97,o),
(662,17,o),
(511,17,cs),
(349,17,o),
(248,97,o),
(249,251,cs),
(251,635,l),
(364,698,l),
(364,700,l),
(54,700,l)
);
}
);
userData = {
assembly = "NPUSHB[ ]	/* 9 values pushed */
29 22 17 1 4 0 3 1 76 
MPPEM[ ]	/* MeasurePixelPerEm */
PUSHB[ ]	/* 1 value pushed */
25 
LT[ ]	/* LessThan */
IF[ ]	/* If */
NPUSHB[ ]	/* 26 values pushed */
2 1 0 3 4 3 0 4 128 5 1 3 3 17 77 0 4 4 1 97 0 1 1 27 1 78 
ELSE[ ]	/* Else */
NPUSHB[ ]	/* 23 values pushed */
5 1 3 0 3 133 2 1 0 4 0 133 0 4 4 1 97 0 1 1 27 1 78 
EIF[ ]	/* EndIf */
NPUSHB[ ]	/* 9 values pushed */
35 37 37 18 35 20 6 7 28 
CALL[ ]	/* CallFunction */";
};
width = 980;
},
{
anchors = (
{
name = bottom;
pos = (510,0);
},
{
name = ogonek;
pos = (684,10);
},
{
name = top;
pos = (510,700);
},
{
name = topright;
pos = (999,700);
}
);
layerId = "03DC8633-12B9-4C09-834B-15CC0827035A";
shapes = (
{
closed = 1;
nodes = (
(80,122,o),
(234,-15,o),
(509,-15,cs),
(786,-15,o),
(940,122,o),
(939,366,cs),
(938,701,l),
(769,700,l),
(769,365,ls),
(769,211,o),
(676,125,o),
(509,125,cs),
(342,125,o),
(249,211,o),
(249,365,cs),
(249,700,l),
(80,701,l),
(80,366,ls)
);
}
);
userData = {
assembly = "MPPEM[ ]	/* MeasurePixelPerEm */
PUSHB[ ]	/* 1 value pushed */
38 
LT[ ]	/* LessThan */
IF[ ]	/* If */
NPUSHB[ ]	/* 17 values pushed */
2 1 0 0 17 77 0 1 1 3 97 0 3 3 27 3 78 
ELSE[ ]	/* Else */
MPPEM[ ]	/* MeasurePixelPerEm */
PUSHB[ ]	/* 1 value pushed */
42 
LT[ ]	/* LessThan */
IF[ ]	/* If */
NPUSHB[ ]	/* 17 values pushed */
2 1 0 1 0 133 0 1 1 3 97 0 3 3 24 3 78 
ELSE[ ]	/* Else */
NPUSHB[ ]	/* 22 values pushed */
2 1 0 1 0 133 0 1 3 3 1 89 0 1 1 3 97 0 3 1 3 81 
EIF[ ]	/* EndIf */
EIF[ ]	/* EndIf */
PUSHB[ ]	/* 7 values pushed */
36 20 36 16 4 7 26 
CALL[ ]	/* CallFunction */";
};
width = 1019;
}
);
note = U;
unicode = 85;
}
{
glyphname = V;
kernLeft = V;
kernRight = V;
layers = (
{
layerId = m01;
shapes = (
{
closed = 1;
nodes = (
(210,626,l),
(314,698,l),
(314,700,l),
(-42,700,l),
(-42,698,l),
(117,626,l),
(442,0,l),
(534,0,l)
);
},
{
closed = 1;
nodes = (
(493,58,l),
(754,618,l),
(916,700,l),
(916,699,l),
(608,700,l),
(608,698,l),
(716,618,l),
(469,82,l)
);
}
);
userData = {
assembly = "NPUSHB[ ]	/* 9 values pushed */
12 11 10 2 4 0 1 1 76 
MPPEM[ ]	/* MeasurePixelPerEm */
PUSHB[ ]	/* 1 value pushed */
25 
LT[ ]	/* LessThan */
IF[ ]	/* If */
NPUSHB[ ]	/* 12 values pushed */
2 1 1 1 17 77 0 0 0 21 0 78 
ELSE[ ]	/* Else */
NPUSHB[ ]	/* 12 values pushed */
2 1 1 0 1 133 0 0 0 21 0 78 
EIF[ ]	/* EndIf */
PUSHB[ ]	/* 6 values pushed */
37 34 19 3 7 25 
CALL[ ]	/* CallFunction */";
};
width = 872;
},
{
layerId = "03DC8633-12B9-4C09-834B-15CC0827035A";
shapes = (
{
closed = 1;
nodes = (
(397,0,l),
(560,0,l),
(950,700,l),
(770,700,l),
(478,170,l),
(194,700,l),
(10,700,l)
);
}
);
userData = {
assembly = "PUSHB[ ]	/* 6 values pushed */
1 1 1 0 1 76 
MPPEM[ ]	/* MeasurePixelPerEm */
PUSHB[ ]	/* 1 value pushed */
38 
LT[ ]	/* LessThan */
IF[ ]	/* If */
NPUSHB[ ]	/* 13 values pushed */
3 2 2 0 0 17 77 0 1 1 18 1 78 
ELSE[ ]	/* Else */
MPPEM[ ]	/* MeasurePixelPerEm */
PUSHB[ ]	/* 1 value pushed */
42 
LT[ ]	/* LessThan */
IF[ ]	/* If */
NPUSHB[ ]	/* 13 values pushed */
3 2 2 0 1 0 133 0 1 1 18 1 78 
ELSE[ ]	/* Else */
NPUSHB[ ]	/* 11 values pushed */
3 2 2 0 1 0 133 0 1 1 118 
EIF[ ]	/* EndIf */
EIF[ ]	/* EndIf */
NPUSHB[ ]	/* 11 values pushed */
0 0 0 6 0 6 17 18 4 7 24 
CALL[ ]	/* CallFunction */";
};
width = 960;
}
);
note = V;
unicode = 86;
}
{
glyphname = W;
kernLeft = V;
kernRight = V;
layers = (
{
layerId = m01;
shapes = (
{
closed = 1;
nodes = (
(217,637,l),
(321,698,l),
(321,700,l),
(-38,700,l),
(-38,698,l),
(121,635,l),
(420,0,l),
(515,0,l)
);
},
{
closed = 1;
nodes = (
(960,58,l),
(1202,643,l),
(1354,698,l),
(1354,700,l),
(1052,700,l),
(1052,698,l),
(1167,643,l),
(934,85,l)
);
},
{
closed = 1;
nodes = (
(907,0,l),
(1002,0,l),
(704,637,l),
(808,698,l),
(808,700,l),
(449,700,l),
(449,698,l),
(608,635,l)
);
},
{
closed = 1;
nodes = (
(658,554,l),
(447,85,l),
(473,58,l),
(675,520,l)
);
}
);
userData = {
assembly = "NPUSHB[ ]	/* 14 values pushed */
25 24 22 16 15 14 6 5 2 9 0 2 1 76 
MPPEM[ ]	/* MeasurePixelPerEm */
PUSHB[ ]	/* 1 value pushed */
25 
LT[ ]	/* LessThan */
IF[ ]	/* If */
NPUSHB[ ]	/* 14 values pushed */
4 3 2 2 2 17 77 1 1 0 0 21 0 78 
ELSE[ ]	/* Else */
NPUSHB[ ]	/* 14 values pushed */
4 3 2 2 0 2 133 1 1 0 0 21 0 78 
EIF[ ]	/* EndIf */
PUSHB[ ]	/* 8 values pushed */
38 38 34 19 19 5 7 27 
CALL[ ]	/* CallFunction */";
};
width = 1322;
},
{
layerId = "03DC8633-12B9-4C09-834B-15CC0827035A";
shapes = (
{
closed = 1;
nodes = (
(1298,700,l),
(1096,700,l),
(940,179,l),
(748,700,l),
(555,700,l),
(356,179,l),
(200,700,l),
(0,700,l),
(250,0,l),
(437,0,l),
(651,506,l),
(848,0,l),
(1048,0,l),
(1048,0,l)
);
}
);
userData = {
assembly = "PUSHB[ ]	/* 8 values pushed */
9 6 1 3 0 1 1 76 
MPPEM[ ]	/* MeasurePixelPerEm */
PUSHB[ ]	/* 1 value pushed */
38 
LT[ ]	/* LessThan */
IF[ ]	/* If */
NPUSHB[ ]	/* 15 values pushed */
3 2 2 1 1 17 77 5 4 2 0 0 18 0 78 
ELSE[ ]	/* Else */
MPPEM[ ]	/* MeasurePixelPerEm */
PUSHB[ ]	/* 1 value pushed */
42 
LT[ ]	/* LessThan */
IF[ ]	/* If */
NPUSHB[ ]	/* 15 values pushed */
3 2 2 1 0 1 133 5 4 2 0 0 18 0 78 
ELSE[ ]	/* Else */
NPUSHB[ ]	/* 13 values pushed */
3 2 2 1 0 1 133 5 4 2 0 0 118 
EIF[ ]	/* EndIf */
EIF[ ]	/* EndIf */
NPUSHB[ ]	/* 13 values pushed */
0 0 0 12 0 12 18 18 17 18 6 7 26 
CALL[ ]	/* CallFunction */";
};
width = 1298;
},
{
associatedMasterId = m01;
layerId = "6AB8F4AA-A172-4BEB-AC43-F6B44E51221C";
name = "11 feb 22, 18:44";
shapes = (
{
closed = 1;
nodes = (
(409,82,l),
(165,576,l),
(269,648,l),
(269,650,l),
(-90,650,l),
(-90,648,l),
(69,576,l),
(368,0,l),
(463,0,l),
(420,71,l)
);
},
{
closed = 1;
nodes = (
(918,58,l),
(1160,572,l),
(1312,648,l),
(1312,650,l),
(1010,650,l),
(1010,648,l),
(1128,572,l),
(900,82,l)
);
},
{
closed = 1;
nodes = (
(421,58,l),
(619,462,l),
(865,0,l),
(960,0,l),
(917,71,l),
(906,82,l),
(663,556,l),
(652,576,l),
(756,648,l),
(756,650,l),
(397,650,l),
(397,648,l),
(556,576,l),
(602,493,l),
(403,82,l)
);
}
);
userData = {
assembly = "NPUSHB[ ]	/* 14 values pushed */
25 24 22 16 15 14 6 5 2 9 0 2 1 76 
MPPEM[ ]	/* MeasurePixelPerEm */
PUSHB[ ]	/* 1 value pushed */
25 
LT[ ]	/* LessThan */
IF[ ]	/* If */
NPUSHB[ ]	/* 14 values pushed */
4 3 2 2 2 17 77 1 1 0 0 21 0 78 
ELSE[ ]	/* Else */
NPUSHB[ ]	/* 14 values pushed */
4 3 2 2 0 2 133 1 1 0 0 21 0 78 
EIF[ ]	/* EndIf */
PUSHB[ ]	/* 8 values pushed */
38 38 34 19 19 5 7 27 
CALL[ ]	/* CallFunction */";
};
width = 1302;
}
);
note = W;
unicode = 87;
}
{
glyphname = X;
kernLeft = X;
kernRight = X;
layers = (
{
layerId = m01;
shapes = (
{
closed = 1;
nodes = (
(406,342,l),
(182,75,l),
(35,2,l),
(35,0,l),
(364,0,l),
(364,2,l),
(224,69,l),
(429,317,l)
);
},
{
closed = 1;
nodes = (
(473,359,l),
(696,628,l),
(855,698,l),
(855,700,l),
(525,700,l),
(525,698,l),
(655,632,l),
(450,385,l)
);
},
{
closed = 1;
nodes = (
(262,638,l),
(374,698,l),
(374,700,l),
(4,700,l),
(4,698,l),
(144,637,l),
(635,61,l),
(510,2,l),
(510,0,l),
(880,0,l),
(880,2,l),
(738,72,l)
);
}
);
userData = {
assembly = "NPUSHB[ ]	/* 13 values pushed */
26 20 19 18 12 6 5 4 8 0 2 1 76 
MPPEM[ ]	/* MeasurePixelPerEm */
PUSHB[ ]	/* 1 value pushed */
25 
LT[ ]	/* LessThan */
IF[ ]	/* If */
NPUSHB[ ]	/* 13 values pushed */
3 1 2 2 17 77 1 1 0 0 21 0 78 
ELSE[ ]	/* Else */
NPUSHB[ ]	/* 13 values pushed */
3 1 2 0 2 133 1 1 0 0 21 0 78 
EIF[ ]	/* EndIf */
PUSHB[ ]	/* 7 values pushed */
37 37 37 32 4 7 26 
CALL[ ]	/* CallFunction */";
};
width = 883;
},
{
layerId = "03DC8633-12B9-4C09-834B-15CC0827035A";
shapes = (
{
closed = 1;
nodes = (
(759,0,l),
(987,0,l),
(632,362,l),
(975,700,l),
(749,700,l),
(515,474,l),
(281,700,l),
(53,700,l),
(397,362,l),
(43,0,l),
(269,0,l),
(515,251,l),
(515,251,l)
);
}
);
userData = {
assembly = "NPUSHB[ ]	/* 9 values pushed */
11 8 5 2 4 0 1 1 76 
MPPEM[ ]	/* MeasurePixelPerEm */
PUSHB[ ]	/* 1 value pushed */
38 
LT[ ]	/* LessThan */
IF[ ]	/* If */
NPUSHB[ ]	/* 13 values pushed */
2 1 1 1 17 77 3 1 0 0 18 0 78 
ELSE[ ]	/* Else */
MPPEM[ ]	/* MeasurePixelPerEm */
PUSHB[ ]	/* 1 value pushed */
42 
LT[ ]	/* LessThan */
IF[ ]	/* If */
NPUSHB[ ]	/* 13 values pushed */
2 1 1 1 0 95 3 1 0 0 18 0 78 
ELSE[ ]	/* Else */
NPUSHB[ ]	/* 19 values pushed */
2 1 1 0 0 1 87 2 1 1 1 0 95 3 1 0 1 0 79 
EIF[ ]	/* EndIf */
EIF[ ]	/* EndIf */
PUSHB[ ]	/* 7 values pushed */
18 18 18 16 4 7 26 
CALL[ ]	/* CallFunction */";
};
width = 1030;
}
);
note = X;
unicode = 88;
}
{
glyphname = Y;
kernLeft = V;
kernRight = V;
layers = (
{
anchors = (
{
name = bottom;
pos = (373,0);
},
{
name = top;
pos = (373,700);
},
{
name = topleft;
pos = (20,700);
}
);
layerId = m01;
shapes = (
{
closed = 1;
nodes = (
(92,631,l),
(346,301,l),
(346,69,l),
(224,2,l),
(224,0,l),
(556,0,l),
(556,2,l),
(431,69,l),
(431,302,l),
(654,635,l),
(776,698,l),
(776,700,l),
(504,700,l),
(504,698,l),
(616,636,l),
(410,334,l),
(180,637,l),
(288,698,l),
(288,700,l),
(-36,700,l),
(-36,698,l)
);
}
);
userData = {
assembly = "NPUSHB[ ]	/* 12 values pushed */
18 17 12 11 5 4 3 7 2 0 1 76 
MPPEM[ ]	/* MeasurePixelPerEm */
PUSHB[ ]	/* 1 value pushed */
25 
LT[ ]	/* LessThan */
IF[ ]	/* If */
NPUSHB[ ]	/* 13 values pushed */
1 3 2 0 0 17 77 0 2 2 21 2 78 
ELSE[ ]	/* Else */
NPUSHB[ ]	/* 13 values pushed */
1 3 2 0 2 0 133 0 2 2 21 2 78 
EIF[ ]	/* EndIf */
NPUSHB[ ]	/* 13 values pushed */
1 0 15 13 8 6 0 20 1 20 4 7 22 
CALL[ ]	/* CallFunction */";
};
width = 746;
},
{
anchors = (
{
name = bottom;
pos = (481,0);
},
{
name = top;
pos = (481,700);
},
{
name = topleft;
pos = (20,700);
}
);
layerId = "03DC8633-12B9-4C09-834B-15CC0827035A";
shapes = (
{
closed = 1;
nodes = (
(759,700,l),
(483,393,l),
(205,700,l),
(0,700,l),
(397,253,l),
(397,0,l),
(568,0,l),
(568,253,l),
(962,700,l)
);
}
);
userData = {
assembly = "PUSHB[ ]	/* 8 values pushed */
6 3 0 3 0 1 1 76 
MPPEM[ ]	/* MeasurePixelPerEm */
PUSHB[ ]	/* 1 value pushed */
38 
LT[ ]	/* LessThan */
IF[ ]	/* If */
NPUSHB[ ]	/* 12 values pushed */
2 1 1 1 17 77 0 0 0 18 0 78 
ELSE[ ]	/* Else */
MPPEM[ ]	/* MeasurePixelPerEm */
PUSHB[ ]	/* 1 value pushed */
42 
LT[ ]	/* LessThan */
IF[ ]	/* If */
NPUSHB[ ]	/* 12 values pushed */
2 1 1 0 1 133 0 0 0 18 0 78 
ELSE[ ]	/* Else */
NPUSHB[ ]	/* 10 values pushed */
2 1 1 0 1 133 0 0 0 118 
EIF[ ]	/* EndIf */
EIF[ ]	/* EndIf */
PUSHB[ ]	/* 6 values pushed */
18 18 17 3 7 25 
CALL[ ]	/* CallFunction */";
};
width = 962;
},
{
anchors = (
{
name = bottom;
pos = (369,0);
},
{
name = top;
pos = (369,650);
},
{
name = topleft;
pos = (20,650);
}
);
associatedMasterId = m01;
layerId = "946055CA-C46B-40D9-AFE6-904BFE51BB2A";
name = "11 feb 22, 18:21";
shapes = (
{
closed = 1;
nodes = (
(79,576,l),
(347,281,l),
(347,72,l),
(245,2,l),
(245,0,l),
(548,0,l),
(548,2,l),
(443,72,l),
(443,284,l),
(674,555,l),
(787,648,l),
(787,650,l),
(515,650,l),
(515,648,l),
(629,541,l),
(422,303,l),
(185,576,l),
(279,648,l),
(279,650,l),
(-50,650,l),
(-50,648,l)
);
}
);
userData = {
assembly = "NPUSHB[ ]	/* 12 values pushed */
18 17 12 11 5 4 3 7 2 0 1 76 
MPPEM[ ]	/* MeasurePixelPerEm */
PUSHB[ ]	/* 1 value pushed */
25 
LT[ ]	/* LessThan */
IF[ ]	/* If */
NPUSHB[ ]	/* 13 values pushed */
1 3 2 0 0 17 77 0 2 2 21 2 78 
ELSE[ ]	/* Else */
NPUSHB[ ]	/* 13 values pushed */
1 3 2 0 2 0 133 0 2 2 21 2 78 
EIF[ ]	/* EndIf */
NPUSHB[ ]	/* 13 values pushed */
1 0 15 13 8 6 0 20 1 20 4 7 22 
CALL[ ]	/* CallFunction */";
};
width = 737;
}
);
note = Y;
unicode = 89;
}
{
glyphname = Z;
kernLeft = Z;
kernRight = Z;
layers = (
{
anchors = (
{
name = bottom;
pos = (373,0);
},
{
name = center;
pos = (373,350);
},
{
name = top;
pos = (373,700);
}
);
layerId = m01;
shapes = (
{
closed = 1;
nodes = (
(15,0,l),
(15,2,l),
(565,668,l),
(177,668,l),
(15,425,l),
(13,426,l),
(84,735,l),
(136,700,l),
(695,700,l),
(695,698,l),
(150,32,l),
(536,32,l),
(726,266,l),
(728,266,l),
(622,-35,l),
(620,-35,l),
(567,0,l)
);
}
);
userData = {
assembly = "NPUSHB[ ]	/* 11 values pushed */
11 2 2 0 2 1 76 9 1 1 74 
MPPEM[ ]	/* MeasurePixelPerEm */
PUSHB[ ]	/* 1 value pushed */
25 
LT[ ]	/* LessThan */
IF[ ]	/* If */
NPUSHB[ ]	/* 21 values pushed */
0 2 2 1 95 0 1 1 17 77 0 0 0 3 95 0 3 3 21 3 78 
ELSE[ ]	/* Else */
NPUSHB[ ]	/* 19 values pushed */
0 1 0 2 0 1 2 103 0 0 0 3 95 0 3 3 21 3 78 
EIF[ ]	/* EndIf */
PUSHB[ ]	/* 7 values pushed */
33 21 33 20 4 7 26 
CALL[ ]	/* CallFunction */";
};
width = 746;
},
{
anchors = (
{
name = bottom;
pos = (486,0);
},
{
name = center;
pos = (486,350);
},
{
name = top;
pos = (486,700);
}
);
layerId = "03DC8633-12B9-4C09-834B-15CC0827035A";
shapes = (
{
closed = 1;
nodes = (
(888,700,l),
(86,700,l),
(86,565,l),
(654,565,l),
(75,131,l),
(75,0,l),
(897,0,l),
(897,135,l),
(320,135,l),
(888,569,l),
(888,569,l)
);
}
);
userData = {
assembly = "NPUSHB[ ]	/* 10 values pushed */
9 1 2 3 4 1 1 0 2 76 
MPPEM[ ]	/* MeasurePixelPerEm */
PUSHB[ ]	/* 1 value pushed */
38 
LT[ ]	/* LessThan */
IF[ ]	/* If */
NPUSHB[ ]	/* 21 values pushed */
0 2 2 3 95 0 3 3 17 77 0 0 0 1 95 0 1 1 18 1 78 
ELSE[ ]	/* Else */
MPPEM[ ]	/* MeasurePixelPerEm */
PUSHB[ ]	/* 1 value pushed */
42 
LT[ ]	/* LessThan */
IF[ ]	/* If */
NPUSHB[ ]	/* 19 values pushed */
0 3 0 2 0 3 2 103 0 0 0 1 95 0 1 1 18 1 78 
ELSE[ ]	/* Else */
NPUSHB[ ]	/* 24 values pushed */
0 3 0 2 0 3 2 103 0 0 1 1 0 87 0 0 0 1 95 0 1 0 1 79 
EIF[ ]	/* EndIf */
EIF[ ]	/* EndIf */
PUSHB[ ]	/* 7 values pushed */
17 18 17 16 4 7 26 
CALL[ ]	/* CallFunction */";
};
width = 972;
}
);
note = Z;
unicode = 90;
}
{
glyphname = bracketleft;
layers = (
{
layerId = m01;
shapes = (
{
closed = 1;
nodes = (
(215,-146,l),
(74,-143,l),
(102,-12,o),
(116,120,o),
(116,271,cs),
(116,424,o),
(102,555,o),
(74,686,c),
(215,689,l),
(215,714,l),
(145,714,o),
(90,715,o),
(50,717,c),
(50,-174,l),
(90,-172,o),
(145,-171,o),
(215,-171,c)
);
}
);
userData = {
assembly = "NPUSHB[ ]	/* 40 values pushed */
0 1 0 2 3 1 2 103 0 3 0 0 3 87 0 3 3 0 95 4 1 0 3 0 79 1 0 11 10 6 5 4 2 0 12 1 12 5 7 22 
CALL[ ]	/* CallFunction */";
};
width = 265;
},
{
layerId = "03DC8633-12B9-4C09-834B-15CC0827035A";
shapes = (
{
closed = 1;
nodes = (
(50,-250,l),
(383,-250,l),
(383,-134,l),
(209,-134,l),
(209,649,l),
(383,649,l),
(383,765,l),
(50,765,l)
);
}
);
userData = {
assembly = "NPUSHB[ ]	/* 37 values pushed */
4 1 3 0 0 1 3 0 103 0 1 2 2 1 87 0 1 1 2 95 0 2 1 2 79 0 0 0 7 0 7 17 17 17 5 7 25 
CALL[ ]	/* CallFunction */";
};
width = 403;
}
);
note = bracketleft;
unicode = 91;
}
{
glyphname = asciicircum;
layers = (
{
layerId = m01;
shapes = (
{
closed = 1;
nodes = (
(428,321,l),
(252,705,l),
(226,705,l),
(50,321,l),
(73,311,l),
(238,676,l),
(405,311,l),
(405,311,l)
);
}
);
userData = {
assembly = "PUSHB[ ]	/* 2 values pushed */
6 100 
WCVTP[ ]	/* WriteCVTInPixels */
NPUSHB[ ]	/* 13 values pushed */
5 2 2 0 73 0 0 0 118 19 1 7 23 
CALL[ ]	/* CallFunction */
PUSHB[ ]	/* 2 values pushed */
6 0 
WCVTP[ ]	/* WriteCVTInPixels */";
};
width = 478;
},
{
layerId = "03DC8633-12B9-4C09-834B-15CC0827035A";
shapes = (
{
closed = 1;
nodes = (
(551,310,l),
(710,310,l),
(464,767,l),
(336,767,l),
(90,310,l),
(251,310,l),
(400,590,l)
);
}
);
userData = {
assembly = "PUSHB[ ]	/* 2 values pushed */
6 100 
WCVTP[ ]	/* WriteCVTInPixels */
NPUSHB[ ]	/* 22 values pushed */
6 1 0 1 1 76 0 1 0 1 133 2 1 0 0 118 17 17 16 3 7 25 
CALL[ ]	/* CallFunction */
PUSHB[ ]	/* 2 values pushed */
6 0 
WCVTP[ ]	/* WriteCVTInPixels */";
};
width = 800;
}
);
note = asciicircum;
unicode = 94;
}
{
glyphname = underscore;
layers = (
{
layerId = m01;
shapes = (
{
closed = 1;
nodes = (
(422,-80,l),
(422,-48,l),
(0,-48,l),
(0,-80,l)
);
}
);
userData = {
assembly = "PUSHB[ ]	/* 2 values pushed */
6 100 
WCVTP[ ]	/* WriteCVTInPixels */
NPUSHB[ ]	/* 21 values pushed */
0 0 1 1 0 87 0 0 0 1 95 0 1 0 1 79 17 16 2 7 24 
CALL[ ]	/* CallFunction */
PUSHB[ ]	/* 2 values pushed */
6 0 
WCVTP[ ]	/* WriteCVTInPixels */";
};
width = 422;
},
{
layerId = "03DC8633-12B9-4C09-834B-15CC0827035A";
shapes = (
{
closed = 1;
nodes = (
(0,-125,l),
(478,-125,l),
(478,-40,l),
(0,-40,l)
);
}
);
userData = {
assembly = "PUSHB[ ]	/* 2 values pushed */
6 100 
WCVTP[ ]	/* WriteCVTInPixels */
NPUSHB[ ]	/* 28 values pushed */
2 1 1 0 0 1 87 2 1 1 1 0 95 0 0 1 0 79 0 0 0 3 0 3 17 3 7 23 
CALL[ ]	/* CallFunction */
PUSHB[ ]	/* 2 values pushed */
6 0 
WCVTP[ ]	/* WriteCVTInPixels */";
};
width = 478;
}
);
note = underscore;
unicode = 95;
}
{
glyphname = a;
kernLeft = a;
kernRight = a;
layers = (
{
anchors = (
{
name = bottom;
pos = (355,0);
},
{
name = ogonek;
pos = (654,10);
},
{
name = top;
pos = (355,500);
}
);
layerId = m01;
shapes = (
{
closed = 1;
nodes = (
(517,271,l),
(325,271,ls),
(204,271,o),
(50,244,o),
(50,123,cs),
(50,40,o),
(122,-15,o),
(251,-15,cs),
(333,-15,o),
(442,21,o),
(515,103,c),
(516,135,l),
(437,55,o),
(339,18,o),
(268,18,cs),
(187,18,o),
(136,51,o),
(136,128,cs),
(136,236,o),
(249,246,o),
(365,246,cs),
(517,246,l)
);
},
{
closed = 1;
nodes = (
(511,0,l),
(699,0,l),
(699,2,l),
(591,62,l),
(591,283,ls),
(591,431,o),
(494,514,o),
(332,514,cs),
(217,514,o),
(118,465,o),
(50,381,c),
(109,305,l),
(111,305,l),
(160,426,o),
(232,486,o),
(334,486,cs),
(427,486,o),
(511,420,o),
(511,310,cs)
);
}
);
userData = {
assembly = "NPUSHB[ ]	/* 57 values pushed */
7 5 2 4 0 34 18 14 3 5 6 2 76 0 4 0 6 5 4 6 103 0 0 0 1 97 0 1 1 26 77 0 2 2 21 77 0 5 5 3 97 0 3 3 27 3 78 35 35 36 34 36 37 34 7 7 29 
CALL[ ]	/* CallFunction */";
};
width = 729;
},
{
anchors = (
{
name = bottom;
pos = (375,0);
},
{
name = ogonek;
pos = (674,10);
},
{
name = top;
pos = (375,500);
}
);
associatedMasterId = m01;
layerId = "B586EE0A-0FA9-4C38-8F1A-576C7B236DC5";
name = "11 feb 22, 17:12";
shapes = (
{
closed = 1;
nodes = (
(537,271,l),
(365,271,ls),
(234,271,o),
(50,244,o),
(50,117,cs),
(50,39.667,o),
(118.333,-15,o),
(257,-15,cs),
(369,-15,o),
(462,21,o),
(535,93,c),
(536,116,l),
(457,56,o),
(375,18,o),
(274,18,cs),
(183.333,18,o),
(130,51.333,o),
(130,122,cs),
(130,236,o),
(289,247,o),
(405,247,cs),
(537,247,l)
);
},
{
closed = 1;
nodes = (
(531,0,l),
(719,0,l),
(719,2,l),
(611,62,l),
(611,289,ls),
(611,429,o),
(505.667,514,o),
(343,514,cs),
(216.333,514,o),
(132,465,o),
(60,381,c),
(109,305,l),
(111,305,l),
(163.667,425.667,o),
(239.667,486,o),
(339,486,cs),
(449.804,486,o),
(531,407.679,o),
(531,298,cs)
);
}
);
userData = {
assembly = "NPUSHB[ ]	/* 57 values pushed */
7 5 2 4 0 34 18 14 3 5 6 2 76 0 4 0 6 5 4 6 103 0 0 0 1 97 0 1 1 26 77 0 2 2 21 77 0 5 5 3 97 0 3 3 27 3 78 35 35 36 34 36 37 34 7 7 29 
CALL[ ]	/* CallFunction */";
};
width = 749;
},
{
anchors = (
{
name = bottom;
pos = (413,0);
},
{
name = ogonek;
pos = (743,10);
},
{
name = top;
pos = (393,500);
}
);
layerId = "03DC8633-12B9-4C09-834B-15CC0827035A";
shapes = (
{
closed = 1;
nodes = (
(565,159,l),
(524,118,o),
(444,90,o),
(364,90,cs),
(288,90,o),
(250,110,o),
(250,153,cs),
(250,214,o),
(348,219,o),
(437,219,cs),
(565,219,l)
);
},
{
closed = 1;
nodes = (
(154,324,l),
(233,371,o),
(315,390,o),
(397,390,cs),
(509,390,o),
(565,354,o),
(565,298,c),
(413,297,ls),
(275,296,o),
(70,269,o),
(70,136,cs),
(70,34,o),
(162,-15,o),
(308,-15,cs),
(386,-15,o),
(500,12,o),
(565,73,c),
(565,0,l),
(725,0,l),
(725,222,ls),
(725,431,o),
(611,515,o),
(397,515,cs),
(296,515,o),
(186,487,o),
(111,443,c)
);
}
);
userData = {
assembly = "NPUSHB[ ]	/* 18 values pushed */
24 1 3 4 23 1 2 3 10 1 0 1 33 1 5 0 4 76 
MPPEM[ ]	/* MeasurePixelPerEm */
PUSHB[ ]	/* 1 value pushed */
12 
LT[ ]	/* LessThan */
IF[ ]	/* If */
NPUSHB[ ]	/* 31 values pushed */
0 2 7 1 1 0 2 1 105 0 3 3 4 97 0 4 4 26 77 0 0 0 5 97 6 1 5 5 18 5 78 
ELSE[ ]	/* Else */
MPPEM[ ]	/* MeasurePixelPerEm */
PUSHB[ ]	/* 1 value pushed */
38 
LT[ ]	/* LessThan */
IF[ ]	/* If */
NPUSHB[ ]	/* 35 values pushed */
0 2 7 1 1 0 2 1 105 0 3 3 4 97 0 4 4 26 77 0 5 5 18 77 0 0 0 6 97 0 6 6 27 6 78 
ELSE[ ]	/* Else */
MPPEM[ ]	/* MeasurePixelPerEm */
PUSHB[ ]	/* 1 value pushed */
42 
LT[ ]	/* LessThan */
IF[ ]	/* If */
NPUSHB[ ]	/* 33 values pushed */
0 4 0 3 2 4 3 105 0 2 7 1 1 0 2 1 105 0 5 5 18 77 0 0 0 6 97 0 6 6 24 6 78 
ELSE[ ]	/* Else */
NPUSHB[ ]	/* 41 values pushed */
0 5 0 6 0 5 6 128 0 4 0 3 2 4 3 105 0 2 7 1 1 0 2 1 105 0 0 5 6 0 89 0 0 0 6 97 0 6 0 6 81 
EIF[ ]	/* EndIf */
EIF[ ]	/* EndIf */
EIF[ ]	/* EndIf */
NPUSHB[ ]	/* 20 values pushed */
0 0 37 35 32 31 28 26 21 19 17 15 0 11 0 11 38 8 7 23 
CALL[ ]	/* CallFunction */";
};
width = 825;
},
{
anchors = (
{
name = bottom;
pos = (413,0);
},
{
name = ogonek;
pos = (743,10);
},
{
name = top;
pos = (393,500);
}
);
associatedMasterId = "03DC8633-12B9-4C09-834B-15CC0827035A";
layerId = "ED3FDB05-8DEC-4CD4-9F2B-60026444595B";
name = "4 apr 22, 10:05";
shapes = (
{
closed = 1;
nodes = (
(565,159,l),
(524,118,o),
(444,90,o),
(364,90,cs),
(288,90,o),
(250,110,o),
(250,153,cs),
(250,214,o),
(348,219,o),
(437,219,cs),
(565,219,l)
);
},
{
closed = 1;
nodes = (
(70,34,o),
(162,-15,o),
(308,-15,cs),
(386,-15,o),
(500,12,o),
(565,73,c),
(565,0,l),
(725,0,l),
(725,222,ls),
(725,431,o),
(611,515,o),
(397,515,cs),
(276,515,o),
(143,475,o),
(71,416,c),
(111,296,l),
(203,363,o),
(300,390,o),
(397,390,cs),
(509,390,o),
(565,354,o),
(565,298,c),
(413,297,ls),
(275,296,o),
(70,269,o),
(70,136,cs)
);
}
);
userData = {
assembly = "NPUSHB[ ]	/* 18 values pushed */
24 1 3 4 23 1 2 3 10 1 0 1 33 1 5 0 4 76 
MPPEM[ ]	/* MeasurePixelPerEm */
PUSHB[ ]	/* 1 value pushed */
12 
LT[ ]	/* LessThan */
IF[ ]	/* If */
NPUSHB[ ]	/* 31 values pushed */
0 2 7 1 1 0 2 1 105 0 3 3 4 97 0 4 4 26 77 0 0 0 5 97 6 1 5 5 18 5 78 
ELSE[ ]	/* Else */
MPPEM[ ]	/* MeasurePixelPerEm */
PUSHB[ ]	/* 1 value pushed */
38 
LT[ ]	/* LessThan */
IF[ ]	/* If */
NPUSHB[ ]	/* 35 values pushed */
0 2 7 1 1 0 2 1 105 0 3 3 4 97 0 4 4 26 77 0 5 5 18 77 0 0 0 6 97 0 6 6 27 6 78 
ELSE[ ]	/* Else */
MPPEM[ ]	/* MeasurePixelPerEm */
PUSHB[ ]	/* 1 value pushed */
42 
LT[ ]	/* LessThan */
IF[ ]	/* If */
NPUSHB[ ]	/* 33 values pushed */
0 4 0 3 2 4 3 105 0 2 7 1 1 0 2 1 105 0 5 5 18 77 0 0 0 6 97 0 6 6 24 6 78 
ELSE[ ]	/* Else */
NPUSHB[ ]	/* 41 values pushed */
0 5 0 6 0 5 6 128 0 4 0 3 2 4 3 105 0 2 7 1 1 0 2 1 105 0 0 5 6 0 89 0 0 0 6 97 0 6 0 6 81 
EIF[ ]	/* EndIf */
EIF[ ]	/* EndIf */
EIF[ ]	/* EndIf */
NPUSHB[ ]	/* 20 values pushed */
0 0 37 35 32 31 28 26 21 19 17 15 0 11 0 11 38 8 7 23 
CALL[ ]	/* CallFunction */";
};
width = 825;
},
{
anchors = (
{
name = bottom;
pos = (413,0);
},
{
name = ogonek;
pos = (743,10);
},
{
name = top;
pos = (393,500);
}
);
associatedMasterId = "03DC8633-12B9-4C09-834B-15CC0827035A";
layerId = "A0138988-EFE8-43C5-8C1C-50BB69F000A3";
name = "21 feb 22, 11:51";
shapes = (
{
closed = 1;
nodes = (
(575,149,l),
(534,118,o),
(444,90,o),
(364,90,cs),
(314,90,o),
(278,94,o),
(255,102,cs),
(232,109,o),
(220,123,o),
(220,142,cs),
(220,161,o),
(231,176,o),
(254,187,cs),
(277,198,o),
(313,206,o),
(364,211,cs),
(416,216,o),
(486,219,o),
(575,219,c)
);
},
{
closed = 1;
nodes = (
(40,34,o),
(132,-20,o),
(288,-20,cs),
(416,-20,o),
(510,5,o),
(575,61,c),
(575,0,l),
(735,0,l),
(735,222,ls),
(735,431,o),
(621,520,o),
(397,520,cs),
(246,520,o),
(113,475,o),
(41,416,c),
(81,296,l),
(173,363,o),
(270,390,o),
(397,390,cs),
(529,390,o),
(575,364,o),
(575,296,c),
(420,295,o),
(308,290,o),
(212,273,cs),
(104,253,o),
(40,198,o),
(40,126,cs)
);
}
);
userData = {
assembly = "NPUSHB[ ]	/* 18 values pushed */
24 1 3 4 23 1 2 3 10 1 0 1 33 1 5 0 4 76 
MPPEM[ ]	/* MeasurePixelPerEm */
PUSHB[ ]	/* 1 value pushed */
12 
LT[ ]	/* LessThan */
IF[ ]	/* If */
NPUSHB[ ]	/* 31 values pushed */
0 2 7 1 1 0 2 1 105 0 3 3 4 97 0 4 4 26 77 0 0 0 5 97 6 1 5 5 18 5 78 
ELSE[ ]	/* Else */
MPPEM[ ]	/* MeasurePixelPerEm */
PUSHB[ ]	/* 1 value pushed */
38 
LT[ ]	/* LessThan */
IF[ ]	/* If */
NPUSHB[ ]	/* 35 values pushed */
0 2 7 1 1 0 2 1 105 0 3 3 4 97 0 4 4 26 77 0 5 5 18 77 0 0 0 6 97 0 6 6 27 6 78 
ELSE[ ]	/* Else */
MPPEM[ ]	/* MeasurePixelPerEm */
PUSHB[ ]	/* 1 value pushed */
42 
LT[ ]	/* LessThan */
IF[ ]	/* If */
NPUSHB[ ]	/* 33 values pushed */
0 4 0 3 2 4 3 105 0 2 7 1 1 0 2 1 105 0 5 5 18 77 0 0 0 6 97 0 6 6 24 6 78 
ELSE[ ]	/* Else */
NPUSHB[ ]	/* 41 values pushed */
0 5 0 6 0 5 6 128 0 4 0 3 2 4 3 105 0 2 7 1 1 0 2 1 105 0 0 5 6 0 89 0 0 0 6 97 0 6 0 6 81 
EIF[ ]	/* EndIf */
EIF[ ]	/* EndIf */
EIF[ ]	/* EndIf */
NPUSHB[ ]	/* 20 values pushed */
0 0 37 35 32 31 28 26 21 19 17 15 0 11 0 11 38 8 7 23 
CALL[ ]	/* CallFunction */";
};
width = 825;
}
);
note = a;
unicode = 97;
}
{
glyphname = b;
kernLeft = b;
kernRight = b;
layers = (
{
anchors = (
{
name = bottom;
pos = (367,0);
},
{
name = center;
pos = (367,250);
},
{
name = top;
pos = (367,500);
}
);
layerId = m01;
shapes = (
{
closed = 1;
nodes = (
(0,748,l),
(112,684,l),
(112,0,l),
(114,0,l),
(186,58,l),
(235,21,o),
(290,-11,o),
(379,-11,cs),
(526,-11,o),
(675,99,o),
(675,255,cs),
(675,399,o),
(539,514,o),
(382,514,cs),
(298,514,o),
(240,485,o),
(192,452,c),
(192,750,l),
(0,750,l)
);
},
{
closed = 1;
nodes = (
(192,417,l),
(237,457,o),
(314,488,o),
(368,488,cs),
(500,488,o),
(580,398,o),
(580,255,cs),
(580,112,o),
(492,16,o),
(370,16,cs),
(295,16,o),
(237,52,o),
(192,93,c)
);
}
);
userData = {
assembly = "NPUSHB[ ]	/* 59 values pushed */
18 1 0 2 34 33 15 1 4 3 4 16 1 1 3 3 76 5 1 2 2 19 77 0 4 4 0 97 0 0 0 26 77 0 3 3 1 97 0 1 1 27 1 78 0 0 31 29 24 22 0 20 0 19 38 35 6 7 24 
CALL[ ]	/* CallFunction */";
};
width = 723;
},
{
layerId = "03DC8633-12B9-4C09-834B-15CC0827035A";
shapes = (
{
pos = (842,0);
ref = d;
scale = (-1,1);
}
);
userData = {
assembly = "MPPEM[ ]	/* MeasurePixelPerEm */
PUSHB[ ]	/* 1 value pushed */
12 
LT[ ]	/* LessThan */
IF[ ]	/* If */
NPUSHB[ ]	/* 15 values pushed */
2 1 5 1 31 30 2 4 5 16 1 2 4 3 76 
ELSE[ ]	/* Else */
NPUSHB[ ]	/* 15 values pushed */
2 1 5 1 31 30 2 4 5 16 1 3 4 3 76 
EIF[ ]	/* EndIf */
MPPEM[ ]	/* MeasurePixelPerEm */
PUSHB[ ]	/* 1 value pushed */
12 
LT[ ]	/* LessThan */
IF[ ]	/* If */
NPUSHB[ ]	/* 27 values pushed */
0 0 0 19 77 0 5 5 1 97 0 1 1 26 77 0 4 4 2 97 3 1 2 2 27 2 78 
ELSE[ ]	/* Else */
MPPEM[ ]	/* MeasurePixelPerEm */
PUSHB[ ]	/* 1 value pushed */
38 
LT[ ]	/* LessThan */
IF[ ]	/* If */
NPUSHB[ ]	/* 31 values pushed */
0 0 0 19 77 0 5 5 1 97 0 1 1 26 77 0 3 3 18 77 0 4 4 2 97 0 2 2 27 2 78 
ELSE[ ]	/* Else */
MPPEM[ ]	/* MeasurePixelPerEm */
PUSHB[ ]	/* 1 value pushed */
42 
LT[ ]	/* LessThan */
IF[ ]	/* If */
NPUSHB[ ]	/* 29 values pushed */
0 1 0 5 4 1 5 105 0 0 0 19 77 0 3 3 18 77 0 4 4 2 97 0 2 2 24 2 78 
ELSE[ ]	/* Else */
NPUSHB[ ]	/* 26 values pushed */
0 1 0 5 4 1 5 105 0 4 0 2 4 2 101 0 3 3 0 95 0 0 0 19 3 78 
EIF[ ]	/* EndIf */
EIF[ ]	/* EndIf */
EIF[ ]	/* EndIf */
NPUSHB[ ]	/* 9 values pushed */
36 34 19 38 35 16 6 7 28 
CALL[ ]	/* CallFunction */";
};
width = 842;
},
{
associatedMasterId = m01;
layerId = "52F5E557-EC04-45BD-8F74-3B41E1B275E2";
name = "17 feb 22, 10:29";
shapes = (
{
closed = 1;
nodes = (
(0,698,l),
(112,634,l),
(112,0,l),
(114,0,l),
(186,46,l),
(235.333,8.667,o),
(304,-11,o),
(380,-11,cs),
(503,-11,o),
(604,40,o),
(659,121,cs),
(686,162,o),
(700,206,o),
(700,255,cs),
(700,399,o),
(564,514,o),
(380,514,cs),
(308,514,o),
(240,495,o),
(192,462,c),
(192,700,l),
(0,700,l)
);
},
{
closed = 1;
nodes = (
(192,427,l),
(237,467,o),
(307,488,o),
(380,488,cs),
(528,488,o),
(615,398,o),
(615,255,cs),
(615,112,o),
(523,15,o),
(380,15,cs),
(309,15,o),
(237.333,37.667,o),
(192,79,c)
);
}
);
userData = {
assembly = "NPUSHB[ ]	/* 59 values pushed */
18 1 0 2 34 33 15 1 4 3 4 16 1 1 3 3 76 5 1 2 2 19 77 0 4 4 0 97 0 0 0 26 77 0 3 3 1 97 0 1 1 27 1 78 0 0 31 29 24 22 0 20 0 19 38 35 6 7 24 
CALL[ ]	/* CallFunction */";
};
width = 758;
},
{
associatedMasterId = "03DC8633-12B9-4C09-834B-15CC0827035A";
layerId = "214EB1B4-C896-4B8B-9583-482D6F36544A";
name = "21 feb 22, 11:52";
shapes = (
{
closed = 1;
nodes = (
(228,0,l),
(245,54,l),
(303.667,10,o),
(394,-20,o),
(486,-20,cs),
(697.69,-20,o),
(829,93.492,o),
(829,251,cs),
(829,409.055,o),
(697.057,520,o),
(486,520,cs),
(395.333,520,o),
(308,493.667,o),
(248,455,c),
(248,730,l),
(70,730,l),
(70,0,l)
);
},
{
closed = 1;
nodes = (
(248,346,l),
(301.333,372.667,o),
(382.667,390,o),
(460,390,cs),
(598.667,390,o),
(655,350.333,o),
(655,249,cs),
(655,147.667,o),
(597.333,101,o),
(460,101,cs),
(382.667,101,o),
(300,123.333,o),
(248,154,c)
);
}
);
userData = {
assembly = "MPPEM[ ]	/* MeasurePixelPerEm */
PUSHB[ ]	/* 1 value pushed */
12 
LT[ ]	/* LessThan */
IF[ ]	/* If */
NPUSHB[ ]	/* 15 values pushed */
2 1 5 1 31 30 2 4 5 16 1 2 4 3 76 
ELSE[ ]	/* Else */
NPUSHB[ ]	/* 15 values pushed */
2 1 5 1 31 30 2 4 5 16 1 3 4 3 76 
EIF[ ]	/* EndIf */
MPPEM[ ]	/* MeasurePixelPerEm */
PUSHB[ ]	/* 1 value pushed */
12 
LT[ ]	/* LessThan */
IF[ ]	/* If */
NPUSHB[ ]	/* 27 values pushed */
0 0 0 19 77 0 5 5 1 97 0 1 1 26 77 0 4 4 2 97 3 1 2 2 27 2 78 
ELSE[ ]	/* Else */
MPPEM[ ]	/* MeasurePixelPerEm */
PUSHB[ ]	/* 1 value pushed */
38 
LT[ ]	/* LessThan */
IF[ ]	/* If */
NPUSHB[ ]	/* 31 values pushed */
0 0 0 19 77 0 5 5 1 97 0 1 1 26 77 0 3 3 18 77 0 4 4 2 97 0 2 2 27 2 78 
ELSE[ ]	/* Else */
MPPEM[ ]	/* MeasurePixelPerEm */
PUSHB[ ]	/* 1 value pushed */
42 
LT[ ]	/* LessThan */
IF[ ]	/* If */
NPUSHB[ ]	/* 29 values pushed */
0 1 0 5 4 1 5 105 0 0 0 19 77 0 3 3 18 77 0 4 4 2 97 0 2 2 24 2 78 
ELSE[ ]	/* Else */
NPUSHB[ ]	/* 26 values pushed */
0 1 0 5 4 1 5 105 0 4 0 2 4 2 101 0 3 3 0 95 0 0 0 19 3 78 
EIF[ ]	/* EndIf */
EIF[ ]	/* EndIf */
EIF[ ]	/* EndIf */
NPUSHB[ ]	/* 9 values pushed */
36 34 19 38 35 16 6 7 28 
CALL[ ]	/* CallFunction */";
};
width = 869;
}
);
metricRight = "=o";
note = b;
unicode = 98;
}
{
glyphname = c;
kernLeft = c;
kernRight = c;
layers = (
{
anchors = (
{
name = bottom;
pos = (329,0);
},
{
name = top;
pos = (329,500);
}
);
layerId = m01;
shapes = (
{
closed = 1;
nodes = (
(562,289,l),
(610,382,l),
(555,458,o),
(466,514,o),
(346,514,cs),
(174,514,o),
(48,405,o),
(48,251,cs),
(48,86,o),
(189,-14,o),
(352,-14,cs),
(467,-14,o),
(558,35,o),
(613,115,c),
(595,130,l),
(543,66,o),
(463,22,o),
(375,22,cs),
(237,22,o),
(132,127,o),
(132,267,cs),
(132,388,o),
(210,486,o),
(343,486,cs),
(467,486,o),
(528,410,o),
(559,289,c)
);
}
);
userData = {
assembly = "NPUSHB[ ]	/* 48 values pushed */
28 1 4 0 14 13 2 1 4 2 76 0 4 0 1 0 4 1 128 0 0 0 3 97 0 3 3 26 77 0 1 1 2 97 0 2 2 27 2 78 19 38 37 38 33 5 7 27 
CALL[ ]	/* CallFunction */";
};
width = 656;
},
{
anchors = (
{
name = bottom;
pos = (392,0);
},
{
name = top;
pos = (382,500);
}
);
layerId = "03DC8633-12B9-4C09-834B-15CC0827035A";
shapes = (
{
closed = 1;
nodes = (
(664,449,l),
(612,485,o),
(506,515,o),
(390,515,cs),
(179,515,o),
(43,402,o),
(43,251,cs),
(43,99,o),
(180,-15,o),
(391,-15,cs),
(508,-15,o),
(614,15,o),
(665,54,c),
(617,166,l),
(573,137,o),
(496,116,o),
(403,116,cs),
(281,116,o),
(207,165,o),
(207,251,cs),
(207,348,o),
(281,388,o),
(403,388,cs),
(488,388,o),
(571,366,o),
(616,337,c)
);
}
);
userData = {
assembly = "NPUSHB[ ]	/* 15 values pushed */
26 1 0 3 27 11 2 1 0 12 1 2 1 3 76 
MPPEM[ ]	/* MeasurePixelPerEm */
PUSHB[ ]	/* 1 value pushed */
38 
LT[ ]	/* LessThan */
IF[ ]	/* If */
NPUSHB[ ]	/* 21 values pushed */
0 0 0 3 97 0 3 3 26 77 0 1 1 2 97 0 2 2 27 2 78 
ELSE[ ]	/* Else */
MPPEM[ ]	/* MeasurePixelPerEm */
PUSHB[ ]	/* 1 value pushed */
42 
LT[ ]	/* LessThan */
IF[ ]	/* If */
NPUSHB[ ]	/* 19 values pushed */
0 3 0 0 1 3 0 105 0 1 1 2 97 0 2 2 24 2 78 
ELSE[ ]	/* Else */
NPUSHB[ ]	/* 24 values pushed */
0 3 0 0 1 3 0 105 0 1 2 2 1 89 0 1 1 2 97 0 2 1 2 81 
EIF[ ]	/* EndIf */
EIF[ ]	/* EndIf */
PUSHB[ ]	/* 7 values pushed */
38 37 36 33 4 7 26 
CALL[ ]	/* CallFunction */";
};
width = 703;
}
);
metricLeft = "=o";
metricRight = "=o-5";
note = c;
unicode = 99;
}
